<svg width="1919" height="765" viewBox="0 0 1919 765" fill="none" xmlns="http://www.w3.org/2000/svg">
<g opacity="0.5">
<path d="M611.632 551.411C572.574 551.411 540.916 583.067 540.916 622.122H611.632V551.411Z" fill="#4D80C8"/>
<path d="M281.664 1.40662C242.605 1.40662 210.947 33.0624 210.947 72.1178H281.664V1.40662Z" fill="#4D80C8" stroke="black" stroke-miterlimit="10"/>
<path d="M1232.41 637.019H1127.58V760.194H1232.41V637.019Z" fill="#4D80C8" stroke="black" stroke-miterlimit="10"/>
<path d="M757.937 639.719L677.73 719.911H757.937V639.719Z" fill="#FFC739" stroke="black" stroke-miterlimit="10"/>
<path d="M762.743 724.741H677.413V763.284H762.743V724.741Z" fill="#FF2410" stroke="black" stroke-miterlimit="10"/>
<path d="M712.731 626.757C729.146 626.757 742.454 613.451 742.454 597.036C742.454 580.622 729.146 567.316 712.731 567.316C696.315 567.316 683.008 580.622 683.008 597.036C683.008 613.451 696.315 626.757 712.731 626.757Z" fill="#FF9900"/>
<path d="M161.756 439.603C73.3108 439.489 1.52045 511.095 1.4066 599.541L161.561 599.736L161.756 439.603Z" fill="#4D80C8"/>
<path d="M161.756 439.603C73.3108 439.489 1.52045 511.095 1.4066 599.541L161.56 599.736L161.756 439.603Z" stroke="black" stroke-miterlimit="10"/>
<path d="M376.143 637.84L253.421 760.552H376.143V637.84Z" fill="#FF2410"/>
<path d="M376.143 637.84L253.421 760.552H376.143V637.84Z" stroke="black" stroke-miterlimit="10"/>
<path d="M537.955 738.191H377.476V760.861H537.955V738.191Z" fill="#FF2410"/>
<path d="M537.955 738.191H377.476V760.861H537.955V738.191Z" stroke="black" stroke-miterlimit="10"/>
<path d="M354.096 599.736H345.176V637.019H354.096V599.736Z" fill="#FF9900"/>
<path d="M354.096 599.736H345.176V637.019H354.096V599.736Z" stroke="black" stroke-miterlimit="10"/>
<path d="M331.4 599.736H317.77V683.076H331.4V599.736Z" fill="#FF2410"/>
<path d="M331.4 599.736H317.77V683.076H331.4V599.736Z" stroke="black" stroke-miterlimit="10"/>
<path d="M307.036 599.736H293.406V706.266H307.036V599.736Z" fill="#4D80C8"/>
<path d="M307.036 599.736H293.406V706.266H307.036V599.736Z" stroke="black" stroke-miterlimit="10"/>
<path d="M283.266 599.736H269.636V729.913H283.266V599.736Z" fill="#FF2410"/>
<path d="M283.266 599.736H269.636V729.913H283.266V599.736Z" stroke="black" stroke-miterlimit="10"/>
<path d="M261.903 599.736H248.273V751.933H261.903V599.736Z" fill="#FFCA00"/>
<path d="M261.903 599.736H248.273V751.933H261.903V599.736Z" stroke="black" stroke-miterlimit="10"/>
<path d="M540.232 644.451C540.232 628.676 528.042 615.755 512.567 614.576V614.479H407.199V614.487C407.069 614.487 406.939 614.479 406.809 614.479C390.252 614.479 376.834 627.895 376.834 644.451C376.834 661.007 390.252 674.424 406.809 674.424C406.939 674.424 407.069 674.416 407.199 674.416V674.424H512.567V674.326C528.034 673.147 540.232 660.226 540.232 644.451Z" fill="#00809C"/>
<path d="M540.232 644.451C540.232 628.676 528.042 615.755 512.567 614.576V614.479H407.199V614.487C407.069 614.487 406.939 614.479 406.809 614.479C390.252 614.479 376.834 627.895 376.834 644.451C376.834 661.007 390.252 674.424 406.809 674.424C406.939 674.424 407.069 674.416 407.199 674.416V674.424H512.567V674.326C528.034 673.147 540.232 660.226 540.232 644.451Z" stroke="black" stroke-miterlimit="10"/>
<path d="M854.441 697.306C871.023 697.306 884.465 683.865 884.465 667.284C884.465 650.704 871.023 637.263 854.441 637.263C837.86 637.263 824.417 650.704 824.417 667.284C824.417 683.865 837.86 697.306 854.441 697.306Z" fill="#FF9900" stroke="black" stroke-miterlimit="10"/>
<path d="M820.343 637.263C787.18 637.263 760.304 664.145 760.304 697.297H820.343V637.263Z" fill="#4D80C8" stroke="black" stroke-miterlimit="10"/>
<path d="M760.304 702.241C760.304 735.401 787.189 762.276 820.343 762.276V702.241H760.304Z" fill="#FF2410" stroke="black" stroke-miterlimit="10"/>
<path d="M825.287 702.241C858.45 702.241 885.327 729.124 885.327 762.276H825.287V702.241Z" fill="#00809C" stroke="black" stroke-miterlimit="10"/>
<path d="M516.601 486.131C533.182 486.131 546.624 472.69 546.624 456.11C546.624 439.53 533.182 426.089 516.601 426.089C500.019 426.089 486.577 439.53 486.577 456.11C486.577 472.69 500.019 486.131 516.601 486.131Z" fill="#FF9900" stroke="black" stroke-miterlimit="10"/>
<path d="M482.511 426.098C449.348 426.098 422.471 452.98 422.471 486.132H482.511V426.098Z" fill="#4D80C8" stroke="black" stroke-miterlimit="10"/>
<path d="M422.471 491.075C422.471 524.235 449.356 551.11 482.511 551.11V491.075H422.471Z" fill="#FF2410" stroke="black" stroke-miterlimit="10"/>
<path d="M487.455 491.075C520.618 491.075 547.494 517.958 547.494 551.11H487.455V491.075Z" fill="#00809C" stroke="black" stroke-miterlimit="10"/>
<path d="M894.988 715.398C894.988 741.289 915.977 762.276 941.87 762.276V715.398H894.988Z" fill="#4D80C8" stroke="black" stroke-miterlimit="10"/>
<path d="M941.658 637.263H895.199V683.718H941.658V637.263Z" fill="#4D80C8" stroke="black" stroke-miterlimit="10"/>
<path d="M993.102 684.141L946.643 637.686H993.102V684.141Z" fill="#00809C" stroke="black" stroke-miterlimit="10"/>
<path d="M993.102 713.219L946.643 759.674H993.102V713.219Z" fill="#FF2410" stroke="black" stroke-miterlimit="10"/>
<path d="M941.658 689.361H895.199V710.438H941.658V689.361Z" fill="#FF2410" stroke="black" stroke-miterlimit="10"/>
<path d="M969.877 720.188C981.064 720.188 990.134 711.119 990.134 699.932C990.134 688.745 981.064 679.677 969.877 679.677C958.689 679.677 949.62 688.745 949.62 699.932C949.62 711.119 958.689 720.188 969.877 720.188Z" fill="#FF9900" stroke="black" stroke-miterlimit="10"/>
<path d="M1017.84 715.398C1017.84 741.289 1038.83 762.276 1064.72 762.276V715.398H1017.84Z" fill="#4D80C8" stroke="black" stroke-miterlimit="10"/>
<path d="M1064.51 637.263H1018.05V683.718H1064.51V637.263Z" fill="#4D80C8" stroke="black" stroke-miterlimit="10"/>
<path d="M1115.96 684.141L1069.49 637.686H1115.96V684.141Z" fill="#00809C" stroke="black" stroke-miterlimit="10"/>
<path d="M1115.96 713.219L1069.49 759.674H1115.96V713.219Z" fill="#FF2410" stroke="black" stroke-miterlimit="10"/>
<path d="M1064.51 689.361H1018.05V710.438H1064.51V689.361Z" fill="#FF2410" stroke="black" stroke-miterlimit="10"/>
<path d="M1092.73 720.188C1103.92 720.188 1112.99 711.119 1112.99 699.932C1112.99 688.745 1103.92 679.677 1092.73 679.677C1081.54 679.677 1072.47 688.745 1072.47 699.932C1072.47 711.119 1081.54 720.188 1092.73 720.188Z" fill="#FF9900" stroke="black" stroke-miterlimit="10"/>
<path d="M1352.81 251.506C1352.81 292.895 1386.36 326.446 1427.76 326.446V251.506H1352.81Z" fill="#4D80C8" stroke="black" stroke-miterlimit="10"/>
<path d="M1427.41 126.607H1353.14V200.871H1427.41V126.607Z" fill="#4D80C8" stroke="black" stroke-miterlimit="10"/>
<path d="M1509.65 201.546L1435.38 127.282H1509.65V201.546Z" fill="#00809C" stroke="black" stroke-miterlimit="10"/>
<path d="M1509.65 248.018L1435.38 322.282H1509.65V248.018Z" fill="#FF2410" stroke="black" stroke-miterlimit="10"/>
<path d="M1427.41 209.881H1353.14V243.57H1427.41V209.881Z" fill="#FF2410" stroke="black" stroke-miterlimit="10"/>
<path d="M1472.51 259.166C1490.4 259.166 1504.9 244.669 1504.9 226.786C1504.9 208.904 1490.4 194.407 1472.51 194.407C1454.63 194.407 1440.13 208.904 1440.13 226.786C1440.13 244.669 1454.63 259.166 1472.51 259.166Z" fill="#FF9900" stroke="black" stroke-miterlimit="10"/>
<path d="M332.197 517.226H255.308V588.693H332.197V517.226Z" fill="#FF9900"/>
<path d="M332.197 517.226H255.308V588.693H332.197V517.226Z" stroke="black" stroke-miterlimit="10"/>
<path d="M260.658 511.022H248.566V523.113H260.658V511.022Z" fill="#FF2410"/>
<path d="M260.658 511.022H248.566V523.113H260.658V511.022Z" stroke="black" stroke-miterlimit="10"/>
<path d="M338.239 511.184H326.146V523.276H338.239V511.184Z" fill="#FF2410"/>
<path d="M338.239 511.184H326.146V523.276H338.239V511.184Z" stroke="black" stroke-miterlimit="10"/>
<path d="M338.239 582.644H326.146V594.735H338.239V582.644Z" fill="#FF2410"/>
<path d="M338.239 582.644H326.146V594.735H338.239V582.644Z" stroke="black" stroke-miterlimit="10"/>
<path d="M260.658 582.644H248.566V594.735H260.658V582.644Z" fill="#FF2410"/>
<path d="M260.658 582.644H248.566V594.735H260.658V582.644Z" stroke="black" stroke-miterlimit="10"/>
<path d="M497.669 737.532H382.746C379.477 737.532 376.826 734.718 376.826 731.246V682.116C376.826 678.644 379.477 675.83 382.746 675.83H497.669C500.938 675.83 503.589 678.644 503.589 682.116V731.246C503.589 734.718 500.938 737.532 497.669 737.532Z" fill="#FFCA00"/>
<path d="M497.669 737.532H382.746C379.477 737.532 376.826 734.718 376.826 731.246V682.116C376.826 678.644 379.477 675.83 382.746 675.83H497.669C500.938 675.83 503.589 678.644 503.589 682.116V731.246C503.589 734.718 500.938 737.532 497.669 737.532Z" stroke="black" stroke-miterlimit="10"/>
<path d="M532.035 737.532H417.12C413.851 737.532 411.2 734.718 411.2 731.246V682.116C411.2 678.644 413.851 675.83 417.12 675.83H532.044C535.313 675.83 537.964 678.644 537.964 682.116V731.246C537.956 734.718 535.304 737.532 532.035 737.532Z" fill="#4D80C8"/>
<path d="M532.035 737.532H417.12C413.851 737.532 411.2 734.718 411.2 731.246V682.116C411.2 678.644 413.851 675.83 417.12 675.83H532.043C535.313 675.83 537.964 678.644 537.964 682.116V731.246C537.956 734.718 535.304 737.532 532.035 737.532Z" stroke="black" stroke-miterlimit="10"/>
<path d="M526.18 685.328H469.028V696.476H526.18V685.328Z" fill="#FF9900"/>
<path d="M526.18 685.328H469.028V696.476H526.18V685.328Z" stroke="black" stroke-miterlimit="10"/>
<path d="M526.18 703.103H508.086V722.31H526.18V703.103Z" fill="#FF2410"/>
<path d="M526.18 703.103H508.086V722.31H526.18V703.103Z" stroke="black" stroke-miterlimit="10"/>
<path d="M412.64 653.461C418.065 653.461 422.463 649.063 422.463 643.638C422.463 638.213 418.065 633.815 412.64 633.815C407.214 633.815 402.816 638.213 402.816 643.638C402.816 649.063 407.214 653.461 412.64 653.461Z" fill="#FFCA00"/>
<path d="M412.64 653.461C418.065 653.461 422.463 649.063 422.463 643.638C422.463 638.213 418.065 633.815 412.64 633.815C407.214 633.815 402.816 638.213 402.816 643.638C402.816 649.063 407.214 653.461 412.64 653.461Z" stroke="black" stroke-miterlimit="10"/>
<path d="M462.237 653.461C467.663 653.461 472.061 649.063 472.061 643.638C472.061 638.213 467.663 633.815 462.237 633.815C456.812 633.815 452.414 638.213 452.414 643.638C452.414 649.063 456.812 653.461 462.237 653.461Z" fill="#FFCA00"/>
<path d="M462.237 653.461C467.663 653.461 472.061 649.063 472.061 643.638C472.061 638.213 467.663 633.815 462.237 633.815C456.812 633.815 452.414 638.213 452.414 643.638C452.414 649.063 456.812 653.461 462.237 653.461Z" stroke="black" stroke-miterlimit="10"/>
<path d="M509.306 653.461C514.731 653.461 519.13 649.063 519.13 643.638C519.13 638.213 514.731 633.815 509.306 633.815C503.881 633.815 499.482 638.213 499.482 643.638C499.482 649.063 503.881 653.461 509.306 653.461Z" fill="#FFCA00"/>
<path d="M509.306 653.461C514.731 653.461 519.13 649.063 519.13 643.638C519.13 638.213 514.731 633.815 509.306 633.815C503.881 633.815 499.482 638.213 499.482 643.638C499.482 649.063 503.881 653.461 509.306 653.461Z" stroke="black" stroke-miterlimit="10"/>
<path d="M163.032 599.736H1.4066V761.349H163.032V599.736Z" fill="#9EDDF4" stroke="black" stroke-miterlimit="10"/>
<path d="M56.0544 736.198L76.6205 676.172L19.6307 704.071L76.6205 676.172H13.1738C13.1738 711.21 41.5793 739.622 76.6287 739.622V676.172L56.0544 736.198Z" fill="#FF9900"/>
<path d="M56.0544 736.198L76.6205 676.172L19.6307 704.071L76.6205 676.172H13.1738C13.1738 711.21 41.5793 739.622 76.6287 739.622V676.172L56.0544 736.198Z" stroke="black" stroke-miterlimit="10"/>
<path d="M76.6205 676.18L132.992 705.307L76.6205 676.18L108.344 731.132L76.6205 676.18V739.63C111.662 739.63 140.075 711.218 140.075 676.18H76.6205Z" fill="#FF9900"/>
<path d="M76.6205 676.18L132.992 705.307L76.6205 676.18ZM76.6205 676.18L108.344 731.132L76.6205 676.18ZM76.6205 676.18V739.63C111.662 739.63 140.075 711.218 140.075 676.18H76.6205Z" stroke="black" stroke-miterlimit="10"/>
<path d="M20.2487 647.053L76.6205 676.18L44.8972 621.228L76.6205 676.18V612.73C41.5793 612.73 13.1656 641.133 13.1656 676.18H76.6205L20.2487 647.053Z" fill="#FF9900"/>
<path d="M20.2487 647.053L76.6205 676.18L44.8972 621.228L76.6205 676.18V612.73C41.5793 612.73 13.1656 641.133 13.1656 676.18H76.6205L20.2487 647.053Z" stroke="black" stroke-miterlimit="10"/>
<path d="M97.1948 616.154L76.6287 676.18L133.619 648.281L76.6287 676.18H140.084C140.084 641.142 111.678 612.73 76.6287 612.73V676.18L97.1948 616.154Z" fill="#FF9900"/>
<path d="M97.1948 616.154L76.6287 676.18L133.619 648.281L76.6287 676.18H140.084C140.084 641.142 111.678 612.73 76.6287 612.73V676.18L97.1948 616.154Z" stroke="black" stroke-miterlimit="10"/>
<path d="M76.6205 694.216C86.5866 694.216 94.6657 686.137 94.6657 676.172C94.6657 666.207 86.5866 658.128 76.6205 658.128C66.6545 658.128 58.5754 666.207 58.5754 676.172C58.5754 686.137 66.6545 694.216 76.6205 694.216Z" fill="#FF2410"/>
<path d="M76.6205 694.216C86.5866 694.216 94.6657 686.137 94.6657 676.172C94.6657 666.207 86.5866 658.128 76.6205 658.128C66.6545 658.128 58.5754 666.207 58.5754 676.172C58.5754 686.137 66.6545 694.216 76.6205 694.216Z" stroke="black" stroke-miterlimit="10"/>
<path d="M248.216 676.18H163.032V761.357H248.216V676.18Z" fill="#FF2410" stroke="black" stroke-miterlimit="10"/>
<path d="M246.305 439.603H162.569V676.18H246.305V439.603Z" fill="#FFC739" stroke="black" stroke-miterlimit="10"/>
<path d="M225.308 511.022H189.307V651.558H225.308V511.022Z" fill="#00809C"/>
<path d="M225.308 511.022H189.307V651.558H225.308V511.022Z" stroke="black" stroke-miterlimit="10"/>
<path d="M207.304 658.128C217.243 658.128 225.3 654.906 225.3 650.932C225.3 646.957 217.243 643.735 207.304 643.735C197.365 643.735 189.307 646.957 189.307 650.932C189.307 654.906 197.365 658.128 207.304 658.128Z" fill="white" stroke="black" stroke-miterlimit="10"/>
<path d="M189.307 511.022L207.304 476.382L225.3 511.022H189.307Z" fill="white" stroke="black" stroke-miterlimit="10"/>
<path d="M203.815 483.106L207.304 476.382L210.792 483.106H203.815Z" fill="#FF9900"/>
<path d="M203.815 483.106L207.304 476.382L210.792 483.106H203.815Z" stroke="black" stroke-miterlimit="10"/>
<path d="M198.903 511.022V640.808" stroke="black" stroke-miterlimit="10"/>
<path d="M209.751 511.022V639.556" stroke="black" stroke-miterlimit="10"/>
<path d="M219.144 511.176V639.719" stroke="black" stroke-miterlimit="10"/>
<path d="M675.779 625.854H539.045V762.577H675.779V625.854Z" fill="white" stroke="black" stroke-miterlimit="10"/>
<path d="M636.11 691.922C651.587 691.922 664.133 679.377 664.133 663.901C664.133 648.426 651.587 635.88 636.11 635.88C620.633 635.88 608.087 648.426 608.087 663.901C608.087 679.377 620.633 691.922 636.11 691.922Z" fill="#FF9900" stroke="black" stroke-miterlimit="10"/>
<path d="M604.297 635.88C573.346 635.88 548.259 660.966 548.259 691.914H604.297V635.88Z" fill="#4D80C8" stroke="black" stroke-miterlimit="10"/>
<path d="M548.259 696.525C548.259 727.473 573.346 752.559 604.297 752.559V696.525H548.259Z" fill="#FF2410" stroke="black" stroke-miterlimit="10"/>
<path d="M608.908 696.525C639.859 696.525 664.947 721.61 664.947 752.559H608.908V696.525Z" fill="#00809C" stroke="black" stroke-miterlimit="10"/>
<path d="M1757.24 442.839C1845.7 442.726 1917.49 514.339 1917.59 602.777L1757.44 602.972L1757.24 442.839Z" fill="#4D80C8"/>
<path d="M1757.24 442.839C1845.7 442.726 1917.49 514.339 1917.59 602.777L1757.44 602.972L1757.24 442.839Z" stroke="black" stroke-miterlimit="10"/>
<path d="M1542.85 641.085L1665.57 763.797H1542.85V641.085Z" fill="#FF2410"/>
<path d="M1542.85 641.085L1665.57 763.797H1542.85V641.085Z" stroke="black" stroke-miterlimit="10"/>
<path d="M1541.52 741.435H1381.04V764.106H1541.52V741.435Z" fill="#FF2410"/>
<path d="M1541.52 741.435H1381.04V764.106H1541.52V741.435Z" stroke="black" stroke-miterlimit="10"/>
<path d="M1573.82 602.98H1564.9V640.263H1573.82V602.98Z" fill="#FF9900"/>
<path d="M1573.82 602.98H1564.9V640.263H1573.82V602.98Z" stroke="black" stroke-miterlimit="10"/>
<path d="M1601.23 602.98H1587.6V686.32H1601.23V602.98Z" fill="#FF2410"/>
<path d="M1601.23 602.98H1587.6V686.32H1601.23V602.98Z" stroke="black" stroke-miterlimit="10"/>
<path d="M1625.59 602.98H1611.96V709.511H1625.59V602.98Z" fill="#4D80C8"/>
<path d="M1625.59 602.98H1611.96V709.511H1625.59V602.98Z" stroke="black" stroke-miterlimit="10"/>
<path d="M1649.36 602.98H1635.73V733.157H1649.36V602.98Z" fill="#FF2410"/>
<path d="M1649.36 602.98H1635.73V733.157H1649.36V602.98Z" stroke="black" stroke-miterlimit="10"/>
<path d="M1670.73 602.98H1657.1V755.177H1670.73V602.98Z" fill="#FFCA00"/>
<path d="M1670.73 602.98H1657.1V755.177H1670.73V602.98Z" stroke="black" stroke-miterlimit="10"/>
<path d="M1378.77 647.695C1378.77 631.92 1390.96 619 1406.43 617.82V617.723H1511.8V617.731C1511.93 617.731 1512.06 617.723 1512.19 617.723C1528.75 617.723 1542.17 631.14 1542.17 647.695C1542.17 664.251 1528.75 677.668 1512.19 677.668C1512.06 677.668 1511.93 677.66 1511.8 677.66V677.668H1406.43V677.57C1390.97 676.391 1378.77 663.471 1378.77 647.695Z" fill="#00809C"/>
<path d="M1378.77 647.695C1378.77 631.92 1390.96 619 1406.43 617.82V617.723H1511.8V617.731C1511.93 617.731 1512.06 617.723 1512.19 617.723C1528.75 617.723 1542.17 631.14 1542.17 647.695C1542.17 664.251 1528.75 677.668 1512.19 677.668C1512.06 677.668 1511.93 677.66 1511.8 677.66V677.668H1406.43V677.57C1390.97 676.391 1378.77 663.471 1378.77 647.695Z" stroke="black" stroke-miterlimit="10"/>
<path d="M1663.69 520.471H1586.8V591.938H1663.69V520.471Z" fill="#FF9900"/>
<path d="M1663.69 520.471H1586.8V591.938H1663.69V520.471Z" stroke="black" stroke-miterlimit="10"/>
<path d="M1670.43 514.266H1658.34V526.358H1670.43V514.266Z" fill="#FF2410"/>
<path d="M1670.43 514.266H1658.34V526.358H1670.43V514.266Z" stroke="black" stroke-miterlimit="10"/>
<path d="M1592.85 514.421H1580.76V526.512H1592.85V514.421Z" fill="#FF2410"/>
<path d="M1592.85 514.421H1580.76V526.512H1592.85V514.421Z" stroke="black" stroke-miterlimit="10"/>
<path d="M1592.85 585.888H1580.76V597.98H1592.85V585.888Z" fill="#FF2410"/>
<path d="M1592.85 585.888H1580.76V597.98H1592.85V585.888Z" stroke="black" stroke-miterlimit="10"/>
<path d="M1670.43 585.888H1658.34V597.98H1670.43V585.888Z" fill="#FF2410"/>
<path d="M1670.43 585.888H1658.34V597.98H1670.43V585.888Z" stroke="black" stroke-miterlimit="10"/>
<path d="M1421.33 740.776H1536.25C1539.52 740.776 1542.17 737.963 1542.17 734.491V685.36C1542.17 681.888 1539.52 679.075 1536.25 679.075H1421.33C1418.06 679.075 1415.41 681.888 1415.41 685.36V734.491C1415.41 737.963 1418.06 740.776 1421.33 740.776Z" fill="#FFCA00"/>
<path d="M1421.33 740.776H1536.25C1539.52 740.776 1542.17 737.963 1542.17 734.491V685.36C1542.17 681.888 1539.52 679.075 1536.25 679.075H1421.33C1418.06 679.075 1415.41 681.888 1415.41 685.36V734.491C1415.41 737.963 1418.06 740.776 1421.33 740.776Z" stroke="black" stroke-miterlimit="10"/>
<path d="M1386.96 740.776H1501.89C1505.16 740.776 1507.81 737.963 1507.81 734.491V685.36C1507.81 681.888 1505.16 679.075 1501.89 679.075H1386.96C1383.7 679.075 1381.04 681.888 1381.04 685.36V734.491C1381.04 737.963 1383.7 740.776 1386.96 740.776Z" fill="#4D80C8"/>
<path d="M1386.96 740.776H1501.89C1505.16 740.776 1507.81 737.963 1507.81 734.491V685.36C1507.81 681.888 1505.16 679.075 1501.89 679.075H1386.96C1383.7 679.075 1381.04 681.888 1381.04 685.36V734.491C1381.04 737.963 1383.7 740.776 1386.96 740.776Z" stroke="black" stroke-miterlimit="10"/>
<path d="M1449.97 688.572H1392.82V699.721H1449.97V688.572Z" fill="#FF9900"/>
<path d="M1449.97 688.572H1392.82V699.721H1449.97V688.572Z" stroke="black" stroke-miterlimit="10"/>
<path d="M1410.91 706.348H1392.82V725.554H1410.91V706.348Z" fill="#FF2410"/>
<path d="M1410.91 706.348H1392.82V725.554H1410.91V706.348Z" stroke="black" stroke-miterlimit="10"/>
<path d="M1506.36 656.705C1511.79 656.705 1516.18 652.307 1516.18 646.882C1516.18 641.457 1511.79 637.06 1506.36 637.06C1500.93 637.06 1496.54 641.457 1496.54 646.882C1496.54 652.307 1500.93 656.705 1506.36 656.705Z" fill="#FFCA00"/>
<path d="M1506.36 656.705C1511.79 656.705 1516.18 652.307 1516.18 646.882C1516.18 641.457 1511.79 637.06 1506.36 637.06C1500.93 637.06 1496.54 641.457 1496.54 646.882C1496.54 652.307 1500.93 656.705 1506.36 656.705Z" stroke="black" stroke-miterlimit="10"/>
<path d="M1456.76 656.705C1462.19 656.705 1466.59 652.307 1466.59 646.882C1466.59 641.457 1462.19 637.06 1456.76 637.06C1451.34 637.06 1446.94 641.457 1446.94 646.882C1446.94 652.307 1451.34 656.705 1456.76 656.705Z" fill="#FFCA00"/>
<path d="M1456.76 656.705C1462.19 656.705 1466.59 652.307 1466.59 646.882C1466.59 641.457 1462.19 637.06 1456.76 637.06C1451.34 637.06 1446.94 641.457 1446.94 646.882C1446.94 652.307 1451.34 656.705 1456.76 656.705Z" stroke="black" stroke-miterlimit="10"/>
<path d="M1409.69 656.705C1415.12 656.705 1419.52 652.307 1419.52 646.882C1419.52 641.457 1415.12 637.06 1409.69 637.06C1404.27 637.06 1399.87 641.457 1399.87 646.882C1399.87 652.307 1404.27 656.705 1409.69 656.705Z" fill="#FFCA00"/>
<path d="M1409.69 656.705C1415.12 656.705 1419.52 652.307 1419.52 646.882C1419.52 641.457 1415.12 637.06 1409.69 637.06C1404.27 637.06 1399.87 641.457 1399.87 646.882C1399.87 652.307 1404.27 656.705 1409.69 656.705Z" stroke="black" stroke-miterlimit="10"/>
<path d="M1755.97 764.597L1917.6 764.597L1917.6 602.984L1755.97 602.984L1755.97 764.597Z" fill="#9EDDF4" stroke="black" stroke-miterlimit="10"/>
<path d="M1862.94 739.443L1842.37 679.416L1899.36 707.315L1842.37 679.416H1905.83C1905.83 714.455 1877.41 742.866 1842.37 742.866V679.416L1862.94 739.443Z" fill="#FF9900"/>
<path d="M1862.94 739.443L1842.37 679.416L1899.36 707.315L1842.37 679.416H1905.83C1905.83 714.455 1877.41 742.866 1842.37 742.866V679.416L1862.94 739.443Z" stroke="black" stroke-miterlimit="10"/>
<path d="M1842.37 679.416L1786 708.543L1842.37 679.416L1810.65 734.369L1842.37 679.416V742.866C1807.33 742.866 1778.92 714.455 1778.92 679.416H1842.37Z" fill="#FF9900"/>
<path d="M1842.37 679.416L1786 708.543L1842.37 679.416ZM1842.37 679.416L1810.65 734.369L1842.37 679.416ZM1842.37 679.416V742.866C1807.33 742.866 1778.92 714.455 1778.92 679.416H1842.37Z" stroke="black" stroke-miterlimit="10"/>
<path d="M1898.75 650.289L1842.38 679.416L1874.1 624.464L1842.38 679.416V615.966C1877.42 615.966 1905.83 644.37 1905.83 679.416H1842.38L1898.75 650.289Z" fill="#FF9900"/>
<path d="M1898.75 650.289L1842.38 679.416L1874.1 624.464L1842.38 679.416V615.966C1877.42 615.966 1905.83 644.37 1905.83 679.416H1842.38L1898.75 650.289Z" stroke="black" stroke-miterlimit="10"/>
<path d="M1821.81 619.398L1842.37 679.424L1785.38 651.517L1842.37 679.416H1778.92C1778.92 644.378 1807.32 615.967 1842.37 615.967V679.416L1821.81 619.398Z" fill="#FF9900"/>
<path d="M1821.81 619.398L1842.37 679.424L1785.38 651.517L1842.37 679.416H1778.92C1778.92 644.378 1807.32 615.967 1842.37 615.967V679.416L1821.81 619.398Z" stroke="black" stroke-miterlimit="10"/>
<path d="M1842.37 697.46C1852.34 697.46 1860.42 689.382 1860.42 679.416C1860.42 669.451 1852.34 661.373 1842.37 661.373C1832.41 661.373 1824.33 669.451 1824.33 679.416C1824.33 689.382 1832.41 697.46 1842.37 697.46Z" fill="#FF2410"/>
<path d="M1842.37 697.46C1852.34 697.46 1860.42 689.382 1860.42 679.416C1860.42 669.451 1852.34 661.373 1842.37 661.373C1832.41 661.373 1824.33 669.451 1824.33 679.416C1824.33 689.382 1832.41 697.46 1842.37 697.46Z" stroke="black" stroke-miterlimit="10"/>
<path d="M1670.78 764.599L1755.97 764.599L1755.97 679.422L1670.78 679.422L1670.78 764.599Z" fill="#FF2410" stroke="black" stroke-miterlimit="10"/>
<path d="M1672.69 679.422L1756.43 679.422L1756.43 442.845L1672.69 442.845L1672.69 679.422Z" fill="#FFC739" stroke="black" stroke-miterlimit="10"/>
<path d="M1729.7 514.266H1693.7V654.802H1729.7V514.266Z" fill="#00809C"/>
<path d="M1729.7 514.266H1693.7V654.802H1729.7V514.266Z" stroke="black" stroke-miterlimit="10"/>
<path d="M1711.7 661.373C1721.64 661.373 1729.69 658.151 1729.69 654.176C1729.69 650.202 1721.64 646.98 1711.7 646.98C1701.76 646.98 1693.7 650.202 1693.7 654.176C1693.7 658.151 1701.76 661.373 1711.7 661.373Z" fill="white" stroke="black" stroke-miterlimit="10"/>
<path d="M1729.69 514.266L1711.7 479.626L1693.7 514.266H1729.69Z" fill="white" stroke="black" stroke-miterlimit="10"/>
<path d="M1715.18 486.351L1711.7 479.626L1708.2 486.351H1715.18Z" fill="#FF9900"/>
<path d="M1715.18 486.351L1711.7 479.626L1708.2 486.351H1715.18Z" stroke="black" stroke-miterlimit="10"/>
<path d="M1720.1 514.266V644.053" stroke="black" stroke-miterlimit="10"/>
<path d="M1709.24 514.266V642.8" stroke="black" stroke-miterlimit="10"/>
<path d="M1699.86 514.421V642.955" stroke="black" stroke-miterlimit="10"/>
<path d="M1238.34 760.952L1375.07 760.952L1375.07 624.229L1238.34 624.229L1238.34 760.952Z" fill="white" stroke="black" stroke-miterlimit="10"/>
<path d="M1280.44 695.167C1295.92 695.167 1308.47 682.622 1308.47 667.146C1308.47 651.67 1295.92 639.125 1280.44 639.125C1264.97 639.125 1252.42 651.67 1252.42 667.146C1252.42 682.622 1264.97 695.167 1280.44 695.167Z" fill="#FF9900" stroke="black" stroke-miterlimit="10"/>
<path d="M1312.26 639.125C1343.21 639.125 1368.3 664.21 1368.3 695.159H1312.26V639.125Z" fill="#4D80C8" stroke="black" stroke-miterlimit="10"/>
<path d="M1368.3 699.769C1368.3 730.718 1343.21 755.803 1312.26 755.803V699.769H1368.3Z" fill="#FF2410" stroke="black" stroke-miterlimit="10"/>
<path d="M1307.65 699.769C1276.7 699.769 1251.61 724.855 1251.61 755.803H1307.65V699.769Z" fill="#00809C" stroke="black" stroke-miterlimit="10"/>
<path d="M1557.67 536.652H1511.86V617.316H1557.67V536.652Z" fill="#FFC739" stroke="black" stroke-miterlimit="10"/>
<path d="M1534.77 554.249C1547.42 554.249 1557.67 543.993 1557.67 531.342C1557.67 518.692 1547.42 508.436 1534.77 508.436C1522.11 508.436 1511.86 518.692 1511.86 531.342C1511.86 543.993 1522.11 554.249 1534.77 554.249Z" fill="#4D80C8" stroke="black" stroke-miterlimit="10"/>
<path d="M1534.77 515.99C1542.33 515.99 1548.46 509.859 1548.46 502.297C1548.46 494.734 1542.33 488.603 1534.77 488.603C1527.2 488.603 1521.07 494.734 1521.07 502.297C1521.07 509.859 1527.2 515.99 1534.77 515.99Z" fill="white" stroke="black" stroke-miterlimit="10"/>
<path d="M1534.77 563.039C1542.33 563.039 1548.46 556.908 1548.46 549.345C1548.46 541.783 1542.33 535.652 1534.77 535.652C1527.2 535.652 1521.07 541.783 1521.07 549.345C1521.07 556.908 1527.2 563.039 1534.77 563.039Z" fill="white" stroke="black" stroke-miterlimit="10"/>
<path d="M1874.68 100.22H1828.86V180.884H1874.68V100.22Z" fill="#FFC739" stroke="black" stroke-miterlimit="10"/>
<path d="M1851.77 117.817C1864.42 117.817 1874.68 107.561 1874.68 94.9103C1874.68 82.2595 1864.42 72.004 1851.77 72.004C1839.12 72.004 1828.86 82.2595 1828.86 94.9103C1828.86 107.561 1839.12 117.817 1851.77 117.817Z" fill="#4D80C8" stroke="black" stroke-miterlimit="10"/>
<path d="M1851.77 79.5581C1859.34 79.5581 1865.47 73.4274 1865.47 65.8647C1865.47 58.3021 1859.34 52.1713 1851.77 52.1713C1844.21 52.1713 1838.08 58.3021 1838.08 65.8647C1838.08 73.4274 1844.21 79.5581 1851.77 79.5581Z" fill="white" stroke="black" stroke-miterlimit="10"/>
<path d="M1851.77 126.607C1859.34 126.607 1865.47 120.476 1865.47 112.913C1865.47 105.351 1859.34 99.22 1851.77 99.22C1844.21 99.22 1838.08 105.351 1838.08 112.913C1838.08 120.476 1844.21 126.607 1851.77 126.607Z" fill="white" stroke="black" stroke-miterlimit="10"/>
<path d="M402.816 532.44H357V613.104H402.816V532.44Z" fill="#FFC739" stroke="black" stroke-miterlimit="10"/>
<path d="M379.908 550.036C392.56 550.036 402.816 539.781 402.816 527.13C402.816 514.479 392.56 504.224 379.908 504.224C367.256 504.224 357 514.479 357 527.13C357 539.781 367.256 550.036 379.908 550.036Z" fill="#4D80C8" stroke="black" stroke-miterlimit="10"/>
<path d="M379.908 511.778C387.471 511.778 393.602 505.647 393.602 498.085C393.602 490.522 387.471 484.391 379.908 484.391C372.345 484.391 366.213 490.522 366.213 498.085C366.213 505.647 372.345 511.778 379.908 511.778Z" fill="white" stroke="black" stroke-miterlimit="10"/>
<path d="M379.908 558.835C387.471 558.835 393.602 552.704 393.602 545.141C393.602 537.579 387.471 531.448 379.908 531.448C372.345 531.448 366.213 537.579 366.213 545.141C366.213 552.704 372.345 558.835 379.908 558.835Z" fill="white" stroke="black" stroke-miterlimit="10"/>
</g>
</svg>
