<svg width="46" height="36" viewBox="0 0 46 36" fill="none" xmlns="http://www.w3.org/2000/svg">
<path d="M38.9409 2.9842C36.0091 1.60295 32.8651 0.585295 29.5778 0.00244498C29.5179 -0.00880385 29.4581 0.0193076 29.4273 0.0755318C29.023 0.813931 28.5751 1.77723 28.2614 2.53438C24.7258 1.9909 21.2083 1.9909 17.7451 2.53438C17.4314 1.7604 16.9673 0.813931 16.5611 0.0755318C16.5303 0.0211835 16.4705 -0.00692794 16.4106 0.00244498C13.1252 0.583433 9.98116 1.60108 7.04746 2.9842C7.02206 2.99545 7.00029 3.0142 6.98585 3.03855C1.02233 12.1862 -0.611321 21.1091 0.190095 29.9213C0.193721 29.9644 0.217292 30.0056 0.24993 30.0318C4.18448 32.9986 7.99577 34.7996 11.7363 35.9934C11.7961 36.0122 11.8596 35.9897 11.8977 35.9391C12.7825 34.6985 13.5712 33.3903 14.2475 32.0146C14.2874 31.9341 14.2493 31.8385 14.1677 31.8066C12.9167 31.3194 11.7254 30.7252 10.5795 30.0506C10.4888 29.9962 10.4816 29.8631 10.565 29.7994C10.8061 29.6139 11.0473 29.4208 11.2776 29.2259C11.3192 29.1903 11.3773 29.1828 11.4263 29.2053C18.9545 32.7343 27.1046 32.7343 34.544 29.2053C34.593 29.1809 34.651 29.1885 34.6945 29.2241C34.9248 29.419 35.166 29.6139 35.4089 29.7994C35.4923 29.8631 35.4869 29.9962 35.3962 30.0506C34.2503 30.7383 33.059 31.3194 31.8061 31.8048C31.7246 31.8366 31.6883 31.9341 31.7282 32.0146C32.419 33.3884 33.2077 34.6965 34.0762 35.9372C34.1125 35.9897 34.1777 36.0122 34.2376 35.9934C37.9963 34.7996 41.8075 32.9986 45.7421 30.0318C45.7765 30.0056 45.7983 29.9662 45.8019 29.9231C46.7611 19.7353 44.1954 10.8856 39.0007 3.04041C38.988 3.0142 38.9663 2.99545 38.9409 2.9842ZM15.3717 24.5556C13.1052 24.5556 11.2377 22.4191 11.2377 19.7953C11.2377 17.1714 13.069 15.035 15.3717 15.035C17.6925 15.035 19.542 17.1902 19.5057 19.7953C19.5057 22.4191 17.6744 24.5556 15.3717 24.5556ZM30.6566 24.5556C28.3902 24.5556 26.5226 22.4191 26.5226 19.7953C26.5226 17.1714 28.3539 15.035 30.6566 15.035C32.9775 15.035 34.8269 17.1902 34.7906 19.7953C34.7906 22.4191 32.9775 24.5556 30.6566 24.5556Z" fill="#A2AAB1"/>
</svg>
