<svg width="208" height="98" viewBox="0 0 208 98" fill="none" xmlns="http://www.w3.org/2000/svg">
<g opacity="0.3">
<circle cx="5" cy="5" r="5" fill="#5780C3"/>
<circle cx="5" cy="27" r="5" fill="#5780C3"/>
<circle cx="5" cy="49" r="5" fill="#5780C3"/>
<circle cx="5" cy="71" r="5" fill="#5780C3"/>
<circle cx="5" cy="93" r="5" fill="#5780C3"/>
<circle cx="27" cy="5" r="5" fill="#5780C3"/>
<circle cx="27" cy="27" r="5" fill="#5780C3"/>
<circle cx="27" cy="49" r="5" fill="#5780C3"/>
<circle cx="27" cy="71" r="5" fill="#5780C3"/>
<circle cx="27" cy="93" r="5" fill="#5780C3"/>
<circle cx="49" cy="5" r="5" fill="#5780C3"/>
<circle cx="49" cy="27" r="5" fill="#5780C3"/>
<circle cx="49" cy="49" r="5" fill="#5780C3"/>
<circle cx="49" cy="71" r="5" fill="#5780C3"/>
<circle cx="49" cy="93" r="5" fill="#5780C3"/>
<circle cx="71" cy="5" r="5" fill="#5780C3"/>
<circle cx="71" cy="27" r="5" fill="#5780C3"/>
<circle cx="71" cy="49" r="5" fill="#5780C3"/>
<circle cx="71" cy="71" r="5" fill="#5780C3"/>
<circle cx="71" cy="93" r="5" fill="#5780C3"/>
<circle cx="93" cy="5" r="5" fill="#5780C3"/>
<circle cx="93" cy="27" r="5" fill="#5780C3"/>
<circle cx="93" cy="49" r="5" fill="#5780C3"/>
<circle cx="93" cy="71" r="5" fill="#5780C3"/>
<circle cx="93" cy="93" r="5" fill="#5780C3"/>
<circle cx="115" cy="5" r="5" fill="#5780C3"/>
<circle cx="115" cy="27" r="5" fill="#5780C3"/>
<circle cx="115" cy="49" r="5" fill="#5780C3"/>
<circle cx="115" cy="71" r="5" fill="#5780C3"/>
<circle cx="115" cy="93" r="5" fill="#5780C3"/>
<circle cx="137" cy="5" r="5" fill="#5780C3"/>
<circle cx="137" cy="27" r="5" fill="#5780C3"/>
<circle cx="137" cy="49" r="5" fill="#5780C3"/>
<circle cx="137" cy="71" r="5" fill="#5780C3"/>
<circle cx="137" cy="93" r="5" fill="#5780C3"/>
<circle cx="159" cy="5" r="5" fill="#5780C3"/>
<circle cx="159" cy="27" r="5" fill="#5780C3"/>
<circle cx="159" cy="49" r="5" fill="#5780C3"/>
<circle cx="159" cy="71" r="5" fill="#5780C3"/>
<circle cx="159" cy="93" r="5" fill="#5780C3"/>
<circle cx="181" cy="5" r="5" fill="#5780C3"/>
<circle cx="181" cy="27" r="5" fill="#5780C3"/>
<circle cx="181" cy="49" r="5" fill="#5780C3"/>
<circle cx="181" cy="71" r="5" fill="#5780C3"/>
<circle cx="181" cy="93" r="5" fill="#5780C3"/>
<circle cx="203" cy="5" r="5" fill="#5780C3"/>
<circle cx="203" cy="27" r="5" fill="#5780C3"/>
<circle cx="203" cy="49" r="5" fill="#5780C3"/>
<circle cx="203" cy="71" r="5" fill="#5780C3"/>
<circle cx="203" cy="93" r="5" fill="#5780C3"/>
</g>
</svg>
