<svg width="53" height="42" viewBox="0 0 53 42" fill="none" xmlns="http://www.w3.org/2000/svg">
<path d="M16.6288 42C36.642 42 47.5849 25.8377 47.5849 11.8304C47.5849 11.3686 47.5849 10.9068 47.5624 10.467C49.6833 8.97173 51.5334 7.10262 53 4.96964C51.0596 5.80524 48.9613 6.37696 46.7501 6.64084C49.0064 5.32147 50.7212 3.25445 51.5334 0.769634C49.4351 1.97906 47.1111 2.85864 44.6292 3.34241C42.6437 1.27539 39.8233 0 36.6871 0C30.6854 0 25.8118 4.74974 25.8118 10.599C25.8118 11.4346 25.9021 12.2482 26.1051 13.0178C17.0575 12.578 9.04768 8.35602 3.67774 1.93508C2.75266 3.49634 2.21115 5.32147 2.21115 7.25654C2.21115 10.9288 4.12899 14.1832 7.06215 16.0743C5.27969 16.0304 3.61005 15.5466 2.14347 14.755C2.14347 14.799 2.14347 14.8429 2.14347 14.8869C2.14347 20.0325 5.88889 24.2984 10.8753 25.288C9.97275 25.5298 9.00255 25.6618 8.00979 25.6618C7.31034 25.6618 6.63346 25.5958 5.95658 25.4639C7.33291 29.6859 11.3491 32.7424 16.1098 32.8304C12.387 35.667 7.69391 37.3602 2.59472 37.3602C1.71477 37.3602 0.857386 37.3162 0 37.2063C4.76075 40.2408 10.4917 42 16.6288 42Z" fill="#A2AAB1"/>
</svg>
