<svg width="55" height="48" viewBox="0 0 55 48" fill="none" xmlns="http://www.w3.org/2000/svg">
<path fill-rule="evenodd" clip-rule="evenodd" d="M37.359 17.0156C46.5508 17.0156 54.0025 23.4785 54.0025 31.4513C54.0025 35.5912 51.581 38.8996 49.3457 41.4903C48.2711 42.7358 49.0686 45.2151 49.717 46.6452C50.0803 47.4465 47.6665 47.6998 45.817 46.6452C44.6233 45.9646 43.9412 45.3787 43.0028 45.2737C42.3041 45.2408 41.9119 45.3501 41.3261 45.4757C40.0213 45.7512 38.6917 45.8894 37.3587 45.8882C28.1666 45.8882 20.7148 39.4251 20.7148 31.4526C20.7148 23.4801 28.1659 17.0156 37.359 17.0156Z" fill="#A2AAB1"/>
<path fill-rule="evenodd" clip-rule="evenodd" d="M0 16.7504C0 7.49936 8.7766 0 19.6027 0C30.3315 0 39.0468 7.36454 39.2033 16.5003C38.2441 16.3511 37.2563 16.2733 36.2475 16.2733C27.0544 16.2733 19.6034 22.7378 19.6034 30.7103C19.6034 31.6642 19.71 32.5966 19.9136 33.4988C19.8102 33.5002 19.7066 33.5009 19.6027 33.5009C18.0332 33.5027 16.4676 33.3426 14.9309 33.0231C14.771 32.9895 14.626 32.9524 14.4867 32.9168C14.0254 32.799 13.627 32.6971 12.9559 32.7892C12.2517 32.886 11.423 33.2935 10.6587 33.6694C10.2876 33.8519 9.93165 34.027 9.61246 34.1554C7.61207 34.9603 4.26889 35.6372 3.75662 34.6352C3.69976 34.328 3.9951 33.6725 4.35573 32.8719C5.07806 31.2685 6.06235 29.0836 5.00316 27.9527C1.83891 24.8789 0 21.2068 0 16.7504Z" fill="#A2AAB1"/>
<path fill-rule="evenodd" clip-rule="evenodd" d="M17.014 11.6541C17.014 12.9959 15.87 14.0582 14.425 14.0582C12.9799 14.0582 11.8359 12.9959 11.8359 11.6541C11.8359 10.3123 12.9799 9.25 14.425 9.25C15.87 9.25 17.014 10.3123 17.014 11.6541Z" fill="#F7F9FA"/>
<path fill-rule="evenodd" clip-rule="evenodd" d="M29.5882 11.6541C29.5882 12.9959 28.4442 14.0582 26.9992 14.0582C25.5542 14.0582 24.4102 12.9959 24.4102 11.6541C24.4102 10.3123 25.5542 9.25 26.9992 9.25C28.4442 9.25 29.5882 10.3123 29.5882 11.6541Z" fill="#F7F9FA"/>
<path fill-rule="evenodd" clip-rule="evenodd" d="M34.0282 27.3754C34.0282 28.614 33.0476 29.5946 31.809 29.5946C30.5704 29.5946 29.5898 28.614 29.5898 27.3754C29.5898 26.1368 30.5704 25.1562 31.809 25.1562C33.0476 25.1562 34.0282 26.1368 34.0282 27.3754Z" fill="#F7F9FA"/>
<path fill-rule="evenodd" clip-rule="evenodd" d="M45.1219 27.3754C45.1219 28.614 44.1414 29.5946 42.9028 29.5946C41.6642 29.5946 40.6836 28.614 40.6836 27.3754C40.6836 26.1368 41.6642 25.1562 42.9028 25.1562C44.1414 25.1562 45.1219 26.1368 45.1219 27.3754Z" fill="#F7F9FA"/>
</svg>
