<svg width="41" height="38" viewBox="0 0 41 38" fill="none" xmlns="http://www.w3.org/2000/svg">
<path d="M1.07812 15.1994C1.07812 12.3319 3.4022 10.0078 6.2697 10.0078H13.3585V27.9797H6.2697C3.4022 27.9797 1.07812 25.6557 1.07812 22.7882V15.1994Z" fill="white" stroke="#171717"/>
<path d="M30.4996 1.49087L30.4997 1.49072C31.4442 0.54623 32.8551 0.263362 34.0905 0.775655C35.3211 1.28637 36.1232 2.4872 36.1232 3.8198V34.1749C36.1232 35.5071 35.3215 36.7077 34.0914 37.2186C33.6819 37.387 33.2534 37.4693 32.8288 37.4693C31.9704 37.4693 31.1308 37.135 30.4997 36.5039L30.4986 36.5028C29.3021 35.3141 26.8115 33.1955 23.8018 31.3706C20.8033 29.5526 17.2203 27.9833 13.8569 27.9833C12.0385 27.9833 10.5625 26.5073 10.5625 24.6889V13.3058C10.5625 11.4874 12.0385 10.0114 13.8569 10.0114C17.2408 10.0114 20.8265 8.44287 23.8219 6.62464C26.8282 4.79979 29.3086 2.68084 30.4996 1.49087Z" fill="white" stroke="#171717"/>
<path d="M13.3583 21.3984V21.41V21.4267V21.4437V21.4609V21.4784V21.4961V21.5141V21.5323V21.5507V21.5694V21.5883V21.6075V21.6268V21.6464V21.6663V21.6863V21.7066V21.7271V21.7479V21.7688V21.79V21.8114V21.833V21.8549V21.8769V21.8992V21.9217V21.9444V21.9673V21.9905V22.0138V22.0373V22.0611V22.0851V22.1092V22.1336V22.1582V22.1829V22.2079V22.2331V22.2585V22.284V22.3098V22.3358V22.3619V22.3882V22.4148V22.4415V22.4684V22.4955V22.5228V22.5503V22.5779V22.6057V22.6337V22.6619V22.6903V22.7189V22.7476V22.7765V22.8055V22.8348V22.8642V22.8938V22.9235V22.9534V22.9835V23.0138V23.0442V23.0748V23.1055V23.1364V23.1674V23.1986V23.23V23.2615V23.2932V23.325V23.357V23.3891V23.4214V23.4538V23.4864V23.5191V23.552V23.585V23.6181V23.6514V23.6848V23.7184V23.7521V23.7859V23.8199V23.854V23.8882V23.9225V23.957V23.9916V24.0264V24.0612V24.0962V24.1314V24.1666V24.2019V24.2374V24.273V24.3087V24.3445V24.3805V24.4165V24.4527V24.489V24.5254V24.5619V24.5985V24.6352V24.672V24.7089V24.7459V24.783V24.8202V24.8575V24.8949V24.9325V24.9701V25.0077V25.0455V25.0834V25.1214V25.1594V25.1976V25.2358V25.2741V25.3125V25.351V25.3896V25.4282V25.4669V25.5057V25.5446V25.5835V25.6226V25.6617V25.7008V25.7401V25.7794V25.8187V25.8582V25.8977V25.9373V25.9769V26.0166V26.0563V26.0961V26.136V26.1759V26.2159V26.256V26.296V26.3362V26.3764V26.4166V26.4569V26.4972V26.5376V26.578V26.6185V26.659V26.6996V26.7402V26.7808V26.8215V26.8622V26.9029V26.9437V26.9845V27.0253V27.0661V27.107V27.148V27.1889V27.2299V27.2709V27.3119V27.3529V27.394V27.435V27.4761V27.5172V27.5583V27.5995V27.6406V27.6818V27.7229V27.7641V27.8053V27.8465V27.8877V27.9289V27.9701V28.0113V28.0525V28.0937V28.1349V28.1761V28.2173V28.2585V28.2996V28.3408V28.382V28.4231V28.4643V28.5054V28.5465V28.5876V28.6287V28.6697V28.7108V28.7518V28.7928V28.8337V28.8747V28.9156V28.9565V28.9974V29.0382V29.079V29.1198V29.1605V29.2013V29.2419V29.2826V29.3232V29.3637V29.4042V29.4447V29.4852V29.5255V29.5659V29.6062V29.6464V29.6866V29.7268V29.7669V29.8069V29.8469V29.8869V29.9268V29.9666V30.0063V30.0461V30.0857V30.1253V30.1648V30.2043V30.2436V30.283V30.3222V30.3614V30.4005V30.4395V30.4785V30.5174V30.5562V30.595V30.6336V30.6722V30.7107V30.7491V30.7874V30.8257V30.8639V30.9019V30.9399V30.9778V31.0156V31.0533V31.091V31.1285V31.1659V31.2033V31.2405V31.2776V31.3147V31.3516V31.3884V31.4252V31.4618V31.4983V31.5347V31.571V31.6072V31.6433V31.6792V31.7151V31.7508V31.7865V31.822V31.8573V31.8926V31.9277V31.9628V31.9977V32.0324V32.0671V32.1016V32.136V32.1702V32.2044V32.2383V32.2722V32.3059V32.3395V32.373V32.4063V32.4395V32.4725V32.5054V32.5381V32.5707V32.6032V32.6355V32.6677V32.6997V32.7315V32.7632V32.7948V32.8262V32.8574V32.8885V32.9195V32.9502V32.9808V33.0113V33.0416V33.0717V33.1016V33.1314V33.161V33.1905V33.2198V33.2489V33.2778V33.3066V33.3352V33.3636V33.3918V33.4199V33.4477V33.4754V33.5029V33.5303V33.5574V33.5843V33.6111V33.6377V33.6641V33.6903V33.7163V33.7421V33.7677V33.7931V33.8183V33.8433V33.8682V33.8928V33.9172V33.9414V33.9654V33.9892V34.0128V34.0362V34.0594V34.0823V34.1051V34.1276V34.15V34.1721V34.194V34.2156V34.2371V34.2583V34.2793V34.3001V34.3207V34.341V34.3611V34.381V34.4007V34.4201V34.4393V34.4583V34.477V34.4955V34.5137V34.5317V34.5495V34.567V34.5843V34.6014V34.6182V34.6348V34.6511V34.6671V34.683V34.6985V34.7138V34.7289V34.7437V34.7583V34.7726V34.7866V34.8004V34.8139V34.8272V34.8402V34.8529V34.8654V34.8776V34.8895V34.9012V34.9125V34.9237V34.9345V34.9451V34.9554V34.9654V34.9752V34.9847V34.9939V35.0028V35.0114V35.0197V35.0278V35.0356V35.0431V35.0503V35.0572V35.0638V35.0701V35.0762V35.0819V35.0873V35.0925V35.0973V35.1019V35.1061V35.1101V35.1137V35.1171V35.1201V35.1228V35.1253V35.1274C13.3583 36.4221 12.3072 37.4732 11.0125 37.4732C9.71778 37.4732 8.66672 36.4221 8.66672 35.1274C8.66672 35.0696 8.65387 34.9568 8.6421 34.8551C8.62792 34.7325 8.60729 34.5641 8.58128 34.3576C8.52922 33.9443 8.45497 33.373 8.366 32.6979C8.18804 31.3475 7.9508 29.5787 7.71364 27.8208C7.47646 26.0629 7.23928 24.3154 7.06141 23.0074L6.84647 21.4286L6.84236 21.3984H13.3583Z" fill="white" stroke="#171717"/>
<path d="M37.125 23.5814V14.4181C38.7854 15.2831 39.9194 17.0054 39.9194 19.0006C39.9194 20.9957 38.7855 22.7166 37.125 23.5814Z" fill="white" stroke="#171717"/>
</svg>
