<svg width="46" height="38" viewBox="0 0 46 38" fill="none" xmlns="http://www.w3.org/2000/svg">
<path d="M38.7242 36.5258H7.18111C3.7239 36.5258 0.921875 33.7238 0.921875 30.2666V7.73579C0.921875 4.27859 3.7239 1.47656 7.18111 1.47656H38.7242C42.1814 1.47656 44.9834 4.27859 44.9834 7.73579V30.2666C44.9834 33.7238 42.1814 36.5258 38.7242 36.5258Z" fill="white" stroke="black"/>
<path d="M18.573 18.0429L0.927999 7.45637C1.07414 4.12886 3.81754 1.47656 7.18111 1.47656H38.7242C42.0878 1.47656 44.8312 4.12886 44.9773 7.45637L27.3323 18.0429C27.3323 18.0429 27.3323 18.0429 27.3322 18.043C24.6359 19.6603 21.2694 19.6603 18.5731 18.043C18.573 18.0429 18.573 18.0429 18.573 18.0429Z" fill="white" stroke="black"/>
</svg>
