<svg width="28" height="50" viewBox="0 0 28 50" fill="none" xmlns="http://www.w3.org/2000/svg">
<path d="M4.6723 13.4876L4.67202 13.4875C1.97878 13.0356 0.42063 10.3132 1.51048 8.05102C2.38297 6.24528 3.70388 4.41223 5.6751 3.03052C7.64177 1.652 10.2833 0.703125 13.834 0.703125C19.6059 0.703125 22.797 2.84817 24.5682 5.4262C26.3622 8.03721 26.7522 11.1693 26.7522 13.1998C26.7522 15.5878 26.2871 17.3762 25.5808 18.8049C24.873 20.2368 23.9099 21.3343 22.8731 22.3279C22.443 22.74 22.0054 23.1295 21.5665 23.5202C21.4739 23.6026 21.3813 23.6851 21.2887 23.7678C20.7609 24.2392 20.2358 24.7172 19.7501 25.2244C18.7748 26.2428 17.9403 27.3968 17.5133 28.9189L17.5133 28.9189C16.9933 30.7729 15.4188 32.1288 13.4555 32.1288H13.4299C10.8541 32.1288 8.92521 29.9168 9.35191 27.5719C10.0687 23.6362 12.0171 21.6097 13.8441 19.9064C13.9845 19.7755 14.1254 19.6457 14.2659 19.5163C15.9284 17.9846 17.528 16.5109 17.528 13.9269C17.528 13.2057 17.4664 11.9579 16.8969 10.8775C16.6074 10.3283 16.1831 9.81531 15.5675 9.4422C14.9517 9.06903 14.1744 8.85397 13.2074 8.85397C11.0252 8.85397 9.75293 10.2039 9.04648 11.5494C8.27508 13.0173 6.45643 13.788 4.6723 13.4876Z" fill="white" stroke="#030303"/>
<path d="M19.1025 44.0356C19.1025 45.5287 18.6076 46.7648 17.6169 47.7786C16.6285 48.7778 15.3385 49.292 13.6977 49.292C12.0481 49.292 10.759 48.7771 9.77901 47.7792C8.7867 46.7641 8.28516 45.5272 8.28516 44.0356C8.28516 42.5851 8.78459 41.3434 9.78566 40.278C10.7667 39.2408 12.0535 38.7109 13.6977 38.7109C15.3335 38.7109 16.6233 39.2404 17.6098 40.2782C18.6076 41.3428 19.1025 42.5819 19.1025 44.0356Z" fill="white" stroke="#030303"/>
</svg>
