<svg width="622" height="236" viewBox="0 0 622 236" fill="none" xmlns="http://www.w3.org/2000/svg">
<path d="M488.102 63.7872L423.954 57.0524L434.271 11.0961L621.342 30.7365L611.026 76.6929L547.177 69.9895L511.498 228.934L452.423 222.732L488.102 63.7872Z" fill="#A7FF99"/>
<path d="M488.102 63.7872L493.075 64.3093L494.17 59.4307L489.197 58.9086L488.102 63.7872ZM423.954 57.0524L418.982 56.5304L417.887 61.4089L422.859 61.931L423.954 57.0524ZM434.271 11.0961L435.366 6.21747L430.393 5.6954L429.298 10.574L434.271 11.0961ZM621.342 30.7365L626.315 31.2586L627.41 26.38L622.438 25.8579L621.342 30.7365ZM611.026 76.6929L609.931 81.5715L614.904 82.0936L615.999 77.215L611.026 76.6929ZM547.177 69.9895L548.272 65.1109L543.3 64.5888L542.205 69.4674L547.177 69.9895ZM511.498 228.934L510.403 233.813L515.375 234.335L516.47 229.456L511.498 228.934ZM452.423 222.732L447.45 222.21L446.355 227.088L451.327 227.61L452.423 222.732ZM489.197 58.9086L425.05 52.1738L422.859 61.931L487.007 68.6658L489.197 58.9086ZM428.927 57.5745L439.243 11.6181L429.298 10.574L418.982 56.5304L428.927 57.5745ZM433.175 15.9747L620.247 35.6151L622.438 25.8579L435.366 6.21747L433.175 15.9747ZM616.37 30.2145L606.054 76.1708L615.999 77.215L626.315 31.2586L616.37 30.2145ZM612.121 71.8143L548.272 65.1109L546.082 74.868L609.931 81.5715L612.121 71.8143ZM542.205 69.4674L506.525 228.412L516.47 229.456L552.15 70.5115L542.205 69.4674ZM512.593 224.055L453.518 217.853L451.327 227.61L510.403 233.813L512.593 224.055ZM457.395 223.254L493.075 64.3093L483.129 63.2651L447.45 222.21L457.395 223.254Z" fill="#5780C3"/>
<path d="M224.005 21.0604L200.42 229.732L151.588 227.15L71.585 111.065L59.0175 222.257L0.898667 219.185L24.4837 10.5133L73.3155 13.0946L153.319 129.18L165.886 17.9881L224.005 21.0604Z" fill="#A7FF99"/>
<path d="M224.005 21.0604L228.998 21.3243L229.56 16.356L224.567 16.092L224.005 21.0604ZM200.42 229.732L199.859 234.7L204.852 234.964L205.413 229.996L200.42 229.732ZM151.588 227.15L147.385 230.117L148.679 231.995L151.027 232.119L151.588 227.15ZM71.585 111.065L75.7882 108.099L68.15 97.0155L66.5919 110.801L71.585 111.065ZM59.0175 222.257L58.456 227.225L63.449 227.489L64.0105 222.521L59.0175 222.257ZM0.898667 219.185L-4.09436 218.921L-4.65591 223.889L0.337119 224.153L0.898667 219.185ZM24.4837 10.5133L25.0452 5.54491L20.0522 5.28096L19.4906 10.2493L24.4837 10.5133ZM73.3155 13.0946L77.5188 10.1283L76.2245 8.25035L73.877 8.12626L73.3155 13.0946ZM153.319 129.18L149.116 132.146L156.754 143.23L158.312 129.444L153.319 129.18ZM165.886 17.9881L166.448 13.0197L161.455 12.7558L160.893 17.7242L165.886 17.9881ZM219.012 20.7965L195.427 229.468L205.413 229.996L228.998 21.3243L219.012 20.7965ZM200.982 224.763L152.15 222.182L151.027 232.119L199.859 234.7L200.982 224.763ZM155.792 224.184L75.7882 108.099L67.3817 114.031L147.385 230.117L155.792 224.184ZM66.5919 110.801L54.0245 221.993L64.0105 222.521L76.578 111.329L66.5919 110.801ZM59.5791 217.289L1.46021 214.216L0.337119 224.153L58.456 227.225L59.5791 217.289ZM5.89169 219.449L29.4767 10.7772L19.4906 10.2493L-4.09436 218.921L5.89169 219.449ZM23.9221 15.4816L72.7539 18.063L73.877 8.12626L25.0452 5.54491L23.9221 15.4816ZM69.1122 16.0609L149.116 132.146L157.522 126.214L77.5188 10.1283L69.1122 16.0609ZM158.312 129.444L170.879 18.2521L160.893 17.7242L148.326 128.916L158.312 129.444ZM165.325 22.9565L223.444 26.0288L224.567 16.092L166.448 13.0197L165.325 22.9565Z" fill="#5780C3"/>
<path d="M296.439 54.6249L305.179 99.9907L397.505 91.6713L406.189 136.742L313.863 145.062L327.484 215.762L268.324 221.092L228.595 14.8847L392.631 0.103616L401.314 45.1747L296.439 54.6249Z" fill="#A7FF99"/>
<path d="M296.439 54.6249L295.493 49.7152L290.513 50.164L291.459 55.0737L296.439 54.6249ZM305.179 99.9907L300.2 100.439L301.145 105.349L306.125 104.9L305.179 99.9907ZM397.505 91.6713L402.485 91.2225L401.539 86.3128L396.559 86.7615L397.505 91.6713ZM406.189 136.742L407.135 141.652L412.115 141.203L411.169 136.294L406.189 136.742ZM313.863 145.062L312.917 140.152L307.937 140.601L308.883 145.511L313.863 145.062ZM327.484 215.762L328.43 220.671L333.41 220.223L332.464 215.313L327.484 215.762ZM268.324 221.092L263.344 221.541L264.29 226.451L269.27 226.002L268.324 221.092ZM228.595 14.8847L227.649 9.975L222.67 10.4237L223.615 15.3334L228.595 14.8847ZM392.631 0.103614L397.611 -0.345114L396.665 -5.25482L391.685 -4.80609L392.631 0.103614ZM401.314 45.1747L402.26 50.0844L407.24 49.6357L406.294 44.726L401.314 45.1747ZM291.459 55.0737L300.2 100.439L310.159 99.5419L301.419 54.1762L291.459 55.0737ZM306.125 104.9L398.451 96.581L396.559 86.7615L304.233 95.081L306.125 104.9ZM392.525 92.12L401.209 137.191L411.169 136.294L402.485 91.2225L392.525 92.12ZM405.243 131.833L312.917 140.152L314.809 149.972L407.135 141.652L405.243 131.833ZM308.883 145.511L322.504 216.21L332.464 215.313L318.843 144.613L308.883 145.511ZM326.538 210.852L267.378 216.183L269.27 226.002L328.43 220.671L326.538 210.852ZM273.304 220.644L233.575 14.436L223.615 15.3334L263.344 221.541L273.304 220.644ZM229.541 19.7944L393.577 5.01332L391.685 -4.80609L227.649 9.975L229.541 19.7944ZM387.651 0.552342L396.334 45.6235L406.294 44.726L397.611 -0.345114L387.651 0.552342ZM400.368 40.265L295.493 49.7152L297.385 59.5347L402.26 50.0844L400.368 40.265Z" fill="#5780C3"/>
</svg>
