<svg width="19" height="18" viewBox="0 0 19 18" fill="none" xmlns="http://www.w3.org/2000/svg">
<path d="M1.5 13L6.086 8.414C6.46106 8.03906 6.96967 7.82843 7.5 7.82843C8.03033 7.82843 8.53894 8.03906 8.914 8.414L13.5 13M11.5 11L13.086 9.414C13.4611 9.03906 13.9697 8.82843 14.5 8.82843C15.0303 8.82843 15.5389 9.03906 15.914 9.414L17.5 11M11.5 5H11.51M3.5 17H15.5C16.0304 17 16.5391 16.7893 16.9142 16.4142C17.2893 16.0391 17.5 15.5304 17.5 15V3C17.5 2.46957 17.2893 1.96086 16.9142 1.58579C16.5391 1.21071 16.0304 1 15.5 1H3.5C2.96957 1 2.46086 1.21071 2.08579 1.58579C1.71071 1.96086 1.5 2.46957 1.5 3V15C1.5 15.5304 1.71071 16.0391 2.08579 16.4142C2.46086 16.7893 2.96957 17 3.5 17Z" stroke="#1D1D1F" stroke-width="2" stroke-linecap="round" stroke-linejoin="round"/>
</svg>
