<svg width="110" height="110" viewBox="0 0 110 110" fill="none" xmlns="http://www.w3.org/2000/svg">
<g clip-path="url(#clip0_26_2510)">
<path d="M69.4737 75.625C77.4673 75.625 83.9474 69.4689 83.9474 61.875C83.9474 54.2811 77.4673 48.125 69.4737 48.125C61.4801 48.125 55 54.2811 55 61.875C55 69.4689 61.4801 75.625 69.4737 75.625Z" fill="#F7D046"/>
<path d="M38.1143 43.5469H23.6406V52.7135H38.1143V43.5469Z" fill="#F7D046"/>
<path d="M93.5978 32.0865H90.3653L85.8302 22.4157C85.2548 21.1873 84.3128 20.1461 83.1209 19.4211C81.9289 18.696 80.5393 18.319 79.1241 18.3365H59.8259C58.427 18.3368 57.0582 18.7223 55.8852 19.4463C54.7121 20.1702 53.7851 21.2016 53.2162 22.4157L48.5846 32.0865H40.5276V29.7949C40.5276 27.9715 39.7652 26.2228 38.408 24.9335C37.0508 23.6442 35.2101 22.9199 33.2908 22.9199H28.4662C26.5469 22.9199 24.7062 23.6442 23.349 24.9335C21.9918 26.2228 21.2294 27.9715 21.2294 29.7949V32.0865H16.4048C14.4855 32.0865 12.6448 32.8108 11.2876 34.1002C9.93042 35.3895 9.16797 37.1382 9.16797 38.9615V84.7949C9.16797 86.6182 9.93042 88.3669 11.2876 89.6562C12.6448 90.9455 14.4855 91.6699 16.4048 91.6699H93.5978C95.5171 91.6699 97.3578 90.9455 98.715 89.6562C100.072 88.3669 100.835 86.6182 100.835 84.7949V38.9615C100.835 37.1382 100.072 35.3895 98.715 34.1002C97.3578 32.8108 95.5171 32.0865 93.5978 32.0865ZM42.9399 52.7115C42.9399 53.9271 42.4316 55.0929 41.5268 55.9524C40.622 56.812 39.3949 57.2949 38.1153 57.2949H23.6417C22.3621 57.2949 21.135 56.812 20.2302 55.9524C19.3254 55.0929 18.8171 53.9271 18.8171 52.7115V43.5449C18.8171 42.3293 19.3254 41.1635 20.2302 40.3039C21.135 39.4444 22.3621 38.9615 23.6417 38.9615H38.1153C39.3949 38.9615 40.622 39.4444 41.5268 40.3039C42.4316 41.1635 42.9399 42.3293 42.9399 43.5449V52.7115ZM69.475 82.5032C65.1811 82.5032 60.9835 81.2936 57.4133 79.0272C53.843 76.7609 51.0603 73.5398 49.4171 69.771C47.7739 66.0023 47.3439 61.8553 48.1816 57.8544C49.0193 53.8536 51.0871 50.1786 54.1233 47.2941C57.1596 44.4097 61.028 42.4453 65.2395 41.6495C69.4509 40.8537 73.8162 41.2621 77.7832 42.8232C81.7503 44.3842 85.1411 47.0278 87.5266 50.4196C89.9122 53.8113 91.1855 57.7989 91.1855 61.8782C91.1728 67.3446 88.8813 72.5836 84.8126 76.4489C80.7438 80.3142 75.2291 82.4911 69.475 82.5032Z" fill="#3E84F8"/>
</g>
<defs>
<clipPath id="clip0_26_2510">
<rect width="91.6667" height="73.3333" fill="white" transform="translate(9.16797 18.3359)"/>
</clipPath>
</defs>
</svg>
