<svg width="80" height="75" viewBox="0 0 80 75" fill="none" xmlns="http://www.w3.org/2000/svg">
<path fill-rule="evenodd" clip-rule="evenodd" d="M9.29662 0.675706C7.71896 1.91719 5.89343 3.83388 4.02715 6.20848C2.68292 7.91889 1.02686 11.2304 0.597243 13.0673C0.419781 13.8258 0.19766 14.6017 0.103663 14.7913C-0.00593461 15.0121 0.00752136 15.1361 0.140911 15.1361C0.261429 15.1361 0.282686 15.2397 0.191419 15.3823C-0.247752 16.0692 0.120044 18.1553 0.774706 18.6909C1.19672 19.0363 1.48027 19.0528 2.60472 18.7978C3.24417 18.6526 3.26425 18.6631 4.50552 19.7887C4.79063 20.0472 5.10772 20.2588 5.2101 20.2588C5.31248 20.2588 5.39634 20.3475 5.39634 20.4558C5.39634 20.5642 5.48663 20.6529 5.59721 20.6529C5.84448 20.6529 7.73436 22.4917 7.74197 22.7396C7.74489 22.8381 8.00816 23.1772 8.32701 23.4934C8.64566 23.8095 8.90659 24.1679 8.90659 24.2896C8.90659 24.4116 9.1917 24.8248 9.54039 25.208C9.88907 25.591 10.2027 26.0308 10.2376 26.1849C10.2725 26.3391 10.4698 26.6483 10.6763 26.8719C10.8829 27.0957 11.0517 27.3625 11.0517 27.4652C11.0517 27.5676 11.2711 27.8905 11.5393 28.1827C11.8074 28.4747 12.0268 28.7717 12.0268 28.8424C12.0268 28.9697 12.4457 29.4715 13.3919 30.4783C13.6601 30.7634 14.0351 31.2408 14.2252 31.5387C14.4153 31.8366 14.7007 32.0806 14.859 32.0806C15.0174 32.0806 15.147 32.1708 15.147 32.2811C15.147 32.6655 16.492 33.7975 17.5221 34.28C18.0929 34.5474 18.9986 34.9753 19.5348 35.2309C20.0711 35.4864 20.6416 35.7189 20.8024 35.7473C21.3418 35.8424 22.6533 36.2852 22.8193 36.4282C22.9098 36.506 22.7415 37.0006 22.4454 37.5268C21.6812 38.8863 21.1925 39.9091 21.1925 40.1493C21.1925 40.2628 21.1018 40.3558 20.9908 40.3558C20.8795 40.3558 20.8286 40.5983 20.8773 40.8976C20.9257 41.1955 20.9727 41.5368 20.9815 41.6556C21.0173 42.1393 21.8021 42.7465 23.5939 43.6765C24.6327 44.2158 25.4828 44.6179 25.4828 44.5702C25.4828 44.4648 26.7104 45.0886 26.8479 45.2638C26.9912 45.4466 28.0913 45.9471 28.2617 45.9071C28.3421 45.8882 28.408 45.9666 28.408 46.0812C28.408 46.1959 28.4957 46.2351 28.603 46.1681C28.7103 46.1011 28.798 46.1317 28.798 46.2357C28.798 46.3399 29.0394 46.5214 29.3343 46.6392C30.4681 47.0918 31.4605 47.5767 32.2108 48.0446C32.6398 48.3122 33.0121 48.5104 33.0382 48.485C33.0641 48.4598 33.4152 48.6302 33.8183 48.8639C34.2212 49.0976 34.9019 49.4733 35.331 49.6989C36.5644 50.3477 36.9162 50.6616 37.0576 51.2387C37.201 51.8242 39.8327 54.6124 41.862 56.3285C42.558 56.9171 43.2312 57.5318 43.3576 57.6943C43.4841 57.8569 43.6645 57.9899 43.7583 57.9899C43.8521 57.9899 44.2946 58.3666 44.7414 58.8273C45.1881 59.2877 45.6355 59.6646 45.7356 59.6646C45.8356 59.6646 45.9717 59.8075 46.038 59.982C46.1377 60.2445 46.0653 60.2756 45.6201 60.1609C43.7868 59.6889 41.5509 59.9988 40.8081 60.8281C40.187 61.5216 40.8323 62.6886 41.9546 62.9012C42.3123 62.969 42.7121 63.1552 42.8433 63.3148C42.9745 63.4746 43.2047 63.6052 43.3546 63.6052C43.5048 63.6052 44.1899 63.8627 44.8769 64.1776C45.5641 64.4924 46.164 64.7119 46.21 64.6654C46.256 64.6189 46.4046 64.7161 46.5404 64.8812C46.6761 65.0463 46.8908 65.1814 47.0176 65.1814C47.1443 65.1814 47.682 65.4594 48.2124 65.7995C48.7429 66.1394 49.2017 66.4007 49.232 66.3802C49.2622 66.3595 49.7909 66.6521 50.4069 67.0302C51.0228 67.4081 51.7441 67.7475 52.0095 67.7844C52.275 67.8212 52.58 67.9052 52.6872 67.971C52.8928 68.0971 53.9782 68.3623 54.6374 68.4476C54.8519 68.4754 55.0274 68.5122 55.0274 68.5296C55.0274 68.5873 57.4641 69.0483 58.6351 69.2121C59.4856 69.3313 60.1894 69.4615 61.5603 69.7541C62.1503 69.8798 62.7023 69.9653 62.7872 69.9438C62.8718 69.9223 63.1238 70.0035 63.3469 70.1241C63.6741 70.301 63.7219 70.292 63.5941 70.0776C63.4625 69.8567 63.4892 69.8556 63.7509 70.0697C63.9243 70.2118 64.274 70.3503 64.5279 70.3777C64.7818 70.4051 65.0956 70.4935 65.225 70.5745C65.3547 70.6553 65.4606 70.6697 65.4606 70.6062C65.4606 70.543 65.7229 70.6281 66.0437 70.7958C66.3643 70.9633 66.6715 71.0984 66.7263 71.0962C66.7809 71.0941 66.9 71.0923 66.9909 71.0923C67.0818 71.0923 67.3585 71.2696 67.6058 71.4864C67.8531 71.7031 68.1737 71.8804 68.3182 71.8804C68.4627 71.8804 68.5808 71.9785 68.5808 72.0985C68.5808 72.2185 68.7181 72.2635 68.886 72.1982C69.1175 72.1086 69.1628 72.1712 69.0729 72.4569C68.8359 73.2117 68.8022 73.6537 68.982 73.6537C69.0832 73.6537 69.1659 73.7729 69.1659 73.9187C69.1659 74.7356 71.2662 75.33 72.2686 74.7969C72.7247 74.5541 73.8043 73.634 75.0596 72.4181C75.9454 71.5601 77.4263 69.4893 77.7342 68.6779C77.8883 68.272 78.0856 67.9398 78.173 67.9398C78.2602 67.9398 78.3315 67.8419 78.3315 67.7221C78.3315 67.6025 78.5478 67.0694 78.8123 66.5378C79.2265 65.7044 79.438 65.1016 79.8421 63.6052C80.0354 62.8892 80.0578 59.3096 79.8727 58.7319C79.6015 57.8856 78.8518 57.3024 78.1909 57.4236C77.4731 57.555 77.312 57.6872 77.4446 58.0364C77.5412 58.2905 77.4275 58.3171 76.7266 58.204C76.2687 58.1302 75.499 58.0314 75.0163 57.9846C72.3955 57.7308 71.3231 57.5125 70.8533 57.1371C70.7297 57.0384 70.2775 56.8434 69.8484 56.7035C69.4194 56.5638 68.7612 56.2761 68.3858 56.0643C66.5014 55.0007 65.9211 54.6422 65.6262 54.3588C65.4491 54.1886 65.022 53.8316 64.6771 53.5656C63.8988 52.965 61.8133 50.8509 60.3903 49.2199C57.9181 46.3862 57.1975 45.755 55.9361 45.3182C55.4123 45.1367 55.175 45.1501 54.7226 45.3865C54.2017 45.6586 54.1689 45.6547 54.2764 45.3331C54.5022 44.6577 55.6029 42.2262 55.7267 42.129C55.8706 42.0161 56.1801 41.084 56.1119 40.9689C56.0871 40.9268 56.1427 40.8381 56.2357 40.7719C56.3882 40.6633 56.9771 39.4888 57.9699 37.3142C58.5653 36.0103 58.4173 35.6574 56.6678 34.2087C56.2289 33.8451 55.7168 33.5202 54.9299 33.1061C54.5545 32.9085 53.7208 32.45 53.0772 32.0869C51.8194 31.3776 51.7248 31.3283 50.5421 30.7725C50.113 30.5707 49.7181 30.3534 49.6645 30.2892C49.6109 30.2251 49.1502 30.0135 48.6407 29.8191C48.1311 29.6248 47.7144 29.3742 47.7144 29.2625C47.7144 29.1509 47.6621 29.1123 47.5981 29.1767C47.5344 29.2414 47.1613 29.1088 46.7693 28.8822C44.2529 27.4271 39.5376 25.048 38.7995 24.8608C38.5349 24.7936 37.9564 24.5456 37.5144 24.3093C36.7401 23.8956 36.7125 23.8475 36.7618 23.0052C36.802 22.3166 36.6894 21.9349 36.2323 21.2103C35.7173 20.394 35.6886 20.2738 35.9788 20.1461C36.3542 19.981 36.7634 19.8642 37.1836 19.8021C37.3445 19.7783 37.6516 19.6585 37.8662 19.5357C38.0807 19.413 38.3229 19.3056 38.4044 19.2971C38.4861 19.2886 38.7933 19.1594 39.0869 19.0098C39.3808 18.8603 39.8793 18.6753 40.1944 18.5986C40.5096 18.522 40.9922 18.298 41.267 18.101C41.5418 17.9037 42.1011 17.6015 42.51 17.4293C43.3987 17.0549 44.6489 15.9145 45.3075 14.8774C45.7806 14.1324 45.7818 14.12 45.4331 13.3996L45.0817 12.6732L43.7166 12.7112C42.7062 12.7394 41.9841 12.9027 40.9376 13.3403C40.1599 13.6654 39.5238 13.8891 39.5238 13.8372C39.5238 13.7854 39.3264 13.8514 39.085 13.984C38.8438 14.1168 38.5146 14.24 38.3537 14.2581C38.1928 14.2762 37.5785 14.4319 36.9886 14.6043C35.5166 15.0344 31.5282 15.4482 31.5282 15.1709C31.5282 15.0947 31.9771 14.9245 32.5259 14.7928C33.3994 14.5832 34.1543 14.2593 37.16 12.8042C38.1245 12.3373 39.4684 11.0061 39.8021 10.1873C40.0501 9.57827 40.053 9.42084 39.8225 9.10362C39.4311 8.56534 36.5562 8.641 34.8235 9.23504C34.1373 9.47029 33.4442 9.69057 33.2833 9.72446C33.1224 9.75835 32.9469 9.80347 32.8933 9.82455C32.8397 9.84563 32.7299 9.85253 32.6495 9.83953C32.5692 9.82672 32.5033 9.91972 32.5033 10.0462C32.5033 10.1725 32.4479 10.22 32.3802 10.1516C32.3124 10.0833 32.0711 10.1305 31.8439 10.257C31.6165 10.3835 31.3429 10.5041 31.2357 10.5252C31.1284 10.5463 30.7992 10.6267 30.5044 10.7037C29.9028 10.8611 29.7703 10.669 30.3297 10.4503C31.176 10.1193 32.68 8.75961 33.1016 7.9445C33.6051 6.97098 33.4815 6.41812 32.6712 6.01776C32.0705 5.72083 31.8168 5.69995 31.0167 5.88102C30.4972 5.99884 29.9388 6.21222 29.7762 6.35546C29.6136 6.4987 29.0857 6.82971 28.603 7.09097C28.1203 7.35223 27.0673 7.99809 26.2628 8.52633C25.4584 9.05437 24.5149 9.57551 24.1664 9.68447C23.8177 9.79323 23.5326 9.94908 23.5326 10.0306C23.5326 10.1122 23.2703 10.2371 22.9497 10.3083C22.6293 10.3794 22.3169 10.5195 22.2557 10.6196C22.1946 10.7197 21.9251 10.8014 21.657 10.8014C21.3888 10.8014 21.2118 10.8706 21.2635 10.9551C21.3151 11.0394 21.1228 11.0972 20.8362 11.0832C20.5495 11.0692 20.1308 11.1411 19.9058 11.243C19.592 11.3852 19.2283 11.291 18.3457 10.8391C17.7126 10.5149 16.9839 10.0635 16.7261 9.83598C16.4683 9.60841 16.2025 9.42222 16.1354 9.42222C15.8458 9.42222 14.4376 7.84953 13.7537 6.76233C13.3445 6.11213 12.9204 5.47297 12.8108 5.34214C12.7014 5.21131 12.6119 4.96227 12.6119 4.78869C12.6119 4.60033 12.5212 4.52999 12.3866 4.61373C12.2402 4.70534 12.2148 4.66732 12.3143 4.50497C12.3981 4.36764 12.3858 4.19878 12.2868 4.12963C11.9199 3.87329 11.228 2.46276 11.4125 2.3473C11.5163 2.28268 11.6612 1.90576 11.7347 1.50973C11.8427 0.927904 11.7901 0.710778 11.4601 0.377404C10.8864 -0.202255 10.3115 -0.122852 9.29662 0.675706ZM10.8616 1.63366C10.6617 1.87699 10.5515 1.89098 10.3257 1.70164C10.0794 1.49495 10.0878 1.42895 10.3899 1.20591C10.8472 0.868007 11.2159 1.20237 10.8616 1.63366ZM10.3758 3.74227C10.782 4.28055 11.254 4.97173 11.4244 5.27811C13.0384 8.17936 14.6837 10.1012 16.2358 10.898C16.6559 11.1137 17.0435 11.3474 17.0972 11.4171C17.2079 11.5612 19.5083 12.8344 19.5846 12.7938C19.6119 12.7792 19.961 12.9051 20.3603 13.0738C20.7597 13.2424 21.3071 13.3541 21.5766 13.3222C22.1687 13.2523 22.3932 12.5747 21.8243 12.5747C21.0415 12.5747 21.2278 12.287 22.2945 11.8484C22.9047 11.5976 23.5205 11.3925 23.6633 11.3925C23.8058 11.3925 23.9227 11.3135 23.9227 11.2168C23.9227 11.1202 24.1319 10.988 24.3878 10.9232C24.8975 10.7939 26.5483 9.71954 27.2459 9.06304C27.4885 8.83468 27.7621 8.69459 27.8539 8.75193C27.9456 8.80926 28.0677 8.73262 28.125 8.58169C28.1824 8.43077 28.5328 8.18685 28.9037 8.03986C29.2746 7.89268 29.5781 7.70038 29.5781 7.61211C29.5781 7.52404 29.674 7.45193 29.791 7.45193C29.9082 7.45193 30.2273 7.2746 30.4999 7.05787C31.0522 6.61909 31.5586 6.56096 32.1314 6.87069C32.4916 7.06556 32.4957 7.10831 32.1998 7.60955C32.0272 7.90214 31.5323 8.36319 31.1001 8.6341C30.3651 9.09476 30.1403 9.26795 29.0632 10.2021C28.8337 10.4013 28.4579 10.6243 28.2282 10.698C27.9985 10.7717 27.6022 11.0424 27.3475 11.2995C27.0854 11.5645 26.5598 11.8108 26.1351 11.8677C24.5206 12.0843 23.5722 12.4379 23.4018 12.8872C23.2309 13.3368 23.7074 13.5892 24.5077 13.4729C25.7033 13.2994 26.0345 13.227 26.5938 13.0172C27.3042 12.7506 29.1666 12.1989 29.7117 12.0935C29.9461 12.0482 30.3154 11.915 30.5327 11.7976C30.7497 11.6804 30.9968 11.5996 31.0814 11.6181C31.1663 11.6368 31.3673 11.5962 31.5282 11.5281C32.5963 11.0751 36.3097 9.86297 37.1836 9.6819C37.7328 9.56822 38.7453 9.55521 38.8494 9.66043C39.0893 9.90277 38.4609 10.7457 37.6101 11.3232C36.6034 12.0061 34.7011 12.9431 34.0731 13.0653C33.8526 13.1082 33.5848 13.1979 33.4783 13.2643C33.3719 13.3307 33.1308 13.4182 32.9428 13.4586C32.7546 13.4991 32.1035 13.7084 31.4958 13.9237C30.8882 14.1391 30.3478 14.2719 30.2951 14.2187C30.2425 14.1653 29.9176 14.2689 29.5734 14.4488C29.2292 14.6287 28.7879 14.7337 28.5929 14.6823C28.1757 14.572 27.4329 15.0442 27.4329 15.4198C27.4329 15.7342 28.1145 15.989 29.6756 16.2581C30.8737 16.4648 34.4353 16.3937 35.526 16.1413C36.0623 16.0174 36.6789 15.8828 36.8964 15.8426C37.1136 15.8022 37.629 15.6267 38.0415 15.4527C38.4539 15.2785 38.9892 15.1361 39.2313 15.1361C39.4731 15.1361 39.782 15.0009 39.9177 14.8358C40.0534 14.6707 40.2024 14.5739 40.249 14.621C40.2956 14.6679 40.7877 14.5038 41.3425 14.2561C43.3568 13.3571 43.8252 13.2495 44.3921 13.5561C45.3063 14.0504 43.8689 15.6056 41.2789 16.9243C40.5821 17.2791 39.4105 17.7784 39.2313 17.7971C39.124 17.8084 38.773 17.9374 38.4512 18.0838C38.1294 18.2302 37.6489 18.3863 37.3835 18.4306C37.1181 18.4747 36.7928 18.6014 36.6608 18.7121C36.5288 18.8229 36.3291 18.8564 36.2171 18.7864C36.1052 18.7165 36.0135 18.7342 36.0135 18.8258C36.0135 18.9172 35.8601 19.0043 35.6722 19.0191C35.4845 19.0339 35.072 19.0871 34.7555 19.1371C34.4388 19.1872 33.8403 19.1072 33.4253 18.9592C32.2969 18.5571 30.8685 18.6398 30.5685 19.1249C30.2341 19.666 30.48 19.8344 31.6848 19.8892C32.2537 19.915 32.7634 20.0088 32.8176 20.0974C32.8718 20.1863 33.0961 20.2588 33.3157 20.2588C33.7635 20.2588 35.6789 21.7135 35.4866 21.9076C35.4189 21.9761 35.4556 22.0321 35.5683 22.0321C35.8195 22.0321 36.0254 22.7566 35.8819 23.1347C35.7479 23.4875 35.4706 23.4824 34.7725 23.1146C34.4651 22.9526 34.0534 22.8202 33.8576 22.8202C33.6617 22.8202 33.4508 22.7374 33.389 22.6364C33.3272 22.5353 32.8071 22.3542 32.2336 22.2338C31.2759 22.0331 31.1331 22.0522 30.49 22.4669C30.1048 22.7154 29.786 23.0629 29.7813 23.2395C29.769 23.7159 29.387 23.9541 28.408 24.0954C27.2521 24.2621 26.257 24.6 25.7753 24.9895C25.5608 25.1629 25.0781 25.5094 24.7027 25.7599C23.9773 26.2438 22.9476 27.5706 22.9476 28.0216C22.9476 28.1703 22.8247 28.5311 22.6746 28.8235C22.2352 29.6794 22.6397 31.0954 23.3238 31.0954C23.4386 31.0954 23.5326 31.1669 23.5326 31.2546C23.5326 31.3421 23.8848 31.5706 24.315 31.7624C25.0949 32.1099 25.9348 32.2181 28.8955 32.3519C29.9098 32.3978 30.77 32.5627 31.3543 32.8236C32.6772 33.4142 32.7687 34.3139 31.5233 34.4865C31.2579 34.5233 30.9529 34.6013 30.8457 34.6603C30.7384 34.719 30.2996 34.7919 29.8708 34.8222C29.4419 34.8528 28.9527 34.9525 28.7836 35.0439C28.3594 35.2732 23.4174 35.1203 22.4601 34.8482C22.031 34.7263 21.5805 34.6041 21.4589 34.5767C21.3372 34.5493 20.679 34.251 19.9963 33.9137C19.3135 33.5762 18.6232 33.2482 18.4623 33.1843C17.699 32.8815 14.757 30.1262 14.757 29.714C14.757 29.5941 14.6794 29.5444 14.5846 29.6035C14.4898 29.6628 14.3042 29.4475 14.172 29.1251C14.0397 28.8028 13.8541 28.5874 13.7593 28.6467C13.6645 28.7058 13.5869 28.6341 13.5869 28.4873C13.5869 28.3404 13.0604 27.5264 12.4168 26.6784C11.7733 25.8304 11.2468 25.0756 11.2468 25.0007C11.2468 24.926 11.0931 24.693 10.9055 24.4829C10.7179 24.2727 10.441 23.8595 10.2904 23.5646C10.1399 23.2696 9.63516 22.6145 9.16908 22.1087C8.703 21.6029 8.32155 21.1581 8.32155 21.1198C8.32155 20.9514 6.33709 19.1661 6.02429 19.0532C5.90981 19.0118 5.41467 18.5965 4.92382 18.1299C4.43297 17.6634 4.03124 17.3483 4.03124 17.4295C4.03124 17.5109 3.7241 17.2386 3.34869 16.8246C2.97329 16.4104 2.66615 15.9941 2.66615 15.8994C2.66615 15.8046 2.55557 15.7271 2.42062 15.7271C2.17374 15.7271 1.6238 15.0111 1.5885 14.6435C1.57816 14.5351 1.65344 14.3336 1.75563 14.1954C1.85801 14.0573 1.88843 13.8904 1.8233 13.8246C1.75816 13.7588 1.7956 13.5336 1.90657 13.3242C2.01753 13.1145 2.14468 12.7494 2.18895 12.5126C2.31259 11.8514 3.47428 9.17574 3.83018 8.73262C4.00414 8.51589 4.26058 8.10685 4.40021 7.82353C4.53964 7.5402 4.86473 7.07876 5.12254 6.79779C5.38035 6.51683 5.59135 6.2073 5.59135 6.11016C5.59135 6.01283 5.80158 5.70408 6.05841 5.42411C6.31525 5.14393 6.47613 4.86513 6.41587 4.80425C6.35561 4.74337 6.4307 4.68741 6.58261 4.67993C6.73453 4.67244 7.27667 4.14263 7.78741 3.50288C8.63728 2.43774 8.75468 2.35735 9.1763 2.55162C9.42962 2.66826 9.96942 3.20398 10.3758 3.74227ZM32.8328 26.2682C34.1586 28.9255 34.4914 29.5576 34.6484 29.7162C34.8971 29.9674 35.4343 31.0954 35.3052 31.0954C35.2253 31.0954 35.3452 31.2698 35.5714 31.4828C35.7978 31.696 36.0457 32.0727 36.1222 32.3201C36.1986 32.5676 36.465 32.978 36.7142 33.232C36.9634 33.4862 37.2801 33.9515 37.418 34.2664C37.5559 34.5812 37.7351 34.839 37.8162 34.839C37.8974 34.839 37.9637 34.972 37.9637 35.1345C37.9637 35.2971 38.0456 35.4301 38.1456 35.4301C38.2457 35.4301 38.3777 35.5851 38.4391 35.7749C38.6047 36.2854 39.9122 37.6427 40.6939 38.1156C41.5833 38.6534 43.0373 38.699 46.272 38.2901C49.1559 37.9256 49.762 37.8397 49.762 37.7946C49.762 37.7769 49.9814 37.7347 50.2495 37.7006C50.5177 37.6667 51.0003 37.5727 51.3221 37.492C51.6439 37.411 52.0608 37.3383 52.2484 37.3304C52.436 37.3223 52.5897 37.2518 52.5897 37.1734C52.5897 37.0949 52.7434 37.0295 52.931 37.0282C53.5601 37.0232 54.4737 36.8739 54.6865 36.7411C54.9412 36.5819 55.9049 36.9245 55.9049 37.1744C55.9049 37.4951 55.3269 37.8454 54.6838 37.9142C54.3364 37.9514 53.6792 38.0728 53.2235 38.1837C50.8387 38.7644 50.1719 38.8745 46.6418 39.2711C44.834 39.4743 41.8577 39.5086 40.9289 39.3369C40.0523 39.175 38.2638 37.848 38.0637 37.2112C38.0062 37.0284 37.8059 36.708 37.6187 36.4991C37.0565 35.8728 36.283 34.6441 35.6122 33.312C35.3803 32.8513 35.0977 32.4746 34.9844 32.4746C34.8711 32.4746 34.8372 32.4153 34.909 32.3428C34.9805 32.2703 34.9174 32.0709 34.7682 31.8995C34.4464 31.5299 33.8368 30.3298 32.6078 27.6474C32.1113 26.5637 31.6214 25.5232 31.519 25.3351C31.2337 24.8098 31.2944 24.3596 31.6407 24.4313C31.8098 24.4664 32.3463 25.2929 32.8328 26.2682ZM27.8272 26.4948C27.3896 27.2372 26.9493 27.9774 26.8483 28.14C26.5335 28.6469 25.8666 30.165 25.7468 30.6472C25.6571 31.0087 25.5434 31.08 25.2164 30.9796C24.9874 30.9092 24.6618 30.7293 24.4923 30.5796C24.323 30.4298 24.0816 30.3073 23.956 30.3073C23.7329 30.3073 23.6434 29.8183 23.7216 29.0266C23.7784 28.4531 24.8381 26.8455 25.4085 26.468C25.678 26.2897 26.0602 26.0038 26.2578 25.8328C26.6804 25.4671 28.479 24.8311 28.564 25.0171C28.5962 25.0876 28.2646 25.7526 27.8272 26.4948ZM31.1001 39.4171C31.1438 39.6445 30.9373 39.7617 30.3201 39.8599C29.8583 39.9332 29.2612 40.0285 28.993 40.0715C28.7249 40.1144 28.0667 40.2441 27.5304 40.3597C26.9941 40.4752 26.3798 40.6054 26.1653 40.6492C25.6536 40.7534 25.0288 40.8903 23.7606 41.1764C22.8908 41.3724 22.6921 41.3648 22.5453 41.1295C22.2982 40.7335 22.8056 40.4005 23.9002 40.2403C24.3952 40.1678 24.888 40.0559 24.9952 39.9917C25.1025 39.9274 25.3658 39.8581 25.5803 39.8378C25.7948 39.8173 26.8383 39.662 27.8992 39.4926C28.9601 39.3233 29.8858 39.2207 29.9562 39.2646C30.0266 39.3086 30.2117 39.2633 30.3675 39.1637C30.7353 38.9289 31.0257 39.0294 31.1001 39.4171ZM44.623 46.8702C45.5222 48.6619 46.913 52.0209 47.0572 52.7487C47.2042 53.4915 46.6913 53.9332 46.4074 53.3081C45.6519 51.644 45.3988 51.0344 45.2835 50.6013C45.2114 50.3304 45.0333 49.8427 44.8876 49.5176C44.601 48.8775 44.225 47.9855 43.7351 46.7844C43.3673 45.8824 43.3312 45.2175 43.6559 45.3268C43.7835 45.3698 44.2185 46.0643 44.623 46.8702ZM54.0913 46.4144C54.0244 46.7638 54.103 47.0887 54.3125 47.329C54.6245 47.687 54.62 47.691 54.1964 47.4279C53.6461 47.0863 53.4595 46.5338 53.7676 46.1587C54.1155 45.7353 54.2077 45.8082 54.0913 46.4144ZM56.0512 46.3681C56.2926 46.4459 56.49 46.6028 56.49 46.7165C56.49 46.8303 56.5383 46.8745 56.5974 46.8148C56.7082 46.7029 58.0501 47.8953 58.0501 48.1057C58.0501 48.2129 58.7873 49.0978 59.659 50.0366C59.8466 50.2388 60.0002 50.4486 60.0002 50.5028C60.0002 50.557 60.4611 51.0714 61.0241 51.6457C61.5871 52.2201 62.2759 52.9514 62.5543 53.271C63.1207 53.921 64.4856 55.1491 64.4856 55.0086C64.4856 54.9588 64.7088 55.1438 64.9819 55.4196C65.2549 55.6955 65.6016 55.9211 65.7524 55.9211C65.9029 55.9211 66.0964 56.0363 66.1822 56.1772C66.3969 56.5299 67.6044 57.3649 67.6116 57.1659C67.6149 57.0772 67.707 57.16 67.8164 57.3495C67.9258 57.5391 68.1688 57.6943 68.3566 57.6943C68.5442 57.6943 68.8032 57.8007 68.9319 57.9308C69.0606 58.0608 69.1659 58.1049 69.1659 58.0289C69.1659 57.9528 69.4871 58.0646 69.8796 58.2771C70.2724 58.4897 70.6808 58.6091 70.7874 58.5425C70.8941 58.4759 70.9247 58.514 70.8557 58.6269C70.7441 58.8093 71.5889 59.0341 72.9687 59.1894C74.4724 59.3586 75.4258 59.4774 76.1864 59.5909C76.6691 59.6629 77.5215 59.731 78.0806 59.7424L79.097 59.7631L79.0079 60.9453C78.845 63.102 78.6933 63.781 78.0273 65.3304C77.8758 65.6833 77.7611 65.9936 77.7728 66.02C77.7843 66.0464 77.541 66.5114 77.2319 67.0532C76.9228 67.595 76.5462 68.2823 76.3953 68.5802C76.2441 68.8781 76.0425 69.122 75.9469 69.122C75.8514 69.122 75.8276 69.2107 75.8939 69.319C75.9602 69.4274 75.9186 69.5161 75.8018 69.5161C75.6848 69.5161 75.5329 69.6713 75.4643 69.8609C75.3958 70.0504 75.0992 70.4427 74.8053 70.7323C74.5116 71.022 74.2998 71.288 74.3349 71.3234C74.37 71.3589 74.0549 71.6375 73.6348 71.9425C73.2148 72.2475 72.8712 72.4126 72.8712 72.3092C72.8712 72.2059 72.5422 72.0635 72.1399 71.9929C71.194 71.8268 70.336 71.4836 70.336 71.2716C70.336 71.1798 70.2043 71.1558 70.0434 71.218C69.8826 71.2805 69.7509 71.2281 69.7509 71.1018C69.7509 70.9755 69.6723 70.9211 69.5764 70.981C69.4803 71.0411 69.3467 70.9449 69.2792 70.7674C69.2119 70.5901 69.1052 70.4969 69.0424 70.5603C68.9795 70.624 68.5867 70.4581 68.1694 70.1921C67.7522 69.9259 67.4108 69.7549 67.4108 69.8118C67.4108 69.8688 67.0818 69.7734 66.6795 69.5998C65.7054 69.1796 62.6097 68.3839 61.3653 68.234C61.2044 68.2147 60.6303 68.1347 60.0896 68.0565C58.5273 67.8303 58.2334 67.7887 56.6768 67.5728C55.8679 67.4607 54.91 67.316 54.5478 67.2516C53.4823 67.0621 50.8346 66.1292 50.8346 65.9436C50.8346 65.8494 50.7689 65.7887 50.6883 65.8086C50.5017 65.8547 48.6303 64.9387 48.4749 64.7251C48.3177 64.5092 47.3317 63.9993 47.071 63.9993C46.9563 63.9993 46.5057 63.8308 46.0696 63.6251C45.3857 63.3024 43.3217 62.5564 43.034 62.528C42.619 62.4871 41.4663 61.7555 41.526 61.5709C41.7458 60.8905 44.9922 60.7323 46.1648 61.3449C46.4483 61.4931 47.1104 61.722 47.6362 61.8536C48.1619 61.9852 48.6422 62.1693 48.7037 62.2626C49.0211 62.744 51.8011 62.8669 53.0084 62.4528C54.1873 62.0485 55.0204 61.0842 54.2473 61.0192C54.0864 61.0056 53.8452 60.9869 53.711 60.9772C53.5771 60.9678 52.9692 61.1218 52.3604 61.3199C50.7125 61.8556 48.6358 61.4454 48.0246 60.4634C47.8245 60.1422 46.3493 58.6529 46.3493 58.7723C46.3493 58.8148 45.9434 58.4566 45.4473 57.9765C44.9512 57.4961 44.4567 57.1032 44.3482 57.1032C44.24 57.1032 43.9609 56.9039 43.7283 56.6599C42.98 55.876 41.7887 54.8415 40.9417 54.2404C40.4883 53.9187 40.1153 53.5445 40.1129 53.409C40.1108 53.2736 40.0337 53.1627 39.9421 53.1627C39.764 53.1627 37.9637 51.4521 37.9637 51.283C37.9637 51.1612 38.967 51.6745 39.9411 52.2946C40.3315 52.543 40.6921 52.7048 40.7422 52.6541C40.7923 52.6035 40.9443 52.6973 41.08 52.8624C41.2157 53.0275 41.4404 53.1627 41.5792 53.1627C41.7181 53.1627 42.489 53.5551 43.292 54.0349C44.0953 54.5147 44.8046 54.8545 44.8683 54.7903C44.9321 54.7259 44.9842 54.7767 44.9842 54.903C44.9842 55.0295 45.1207 55.133 45.2874 55.133C45.4541 55.133 45.9856 55.3146 46.4682 55.5369C47.3577 55.9463 47.916 55.9173 48.4944 55.432C48.7362 55.2291 48.8766 55.2823 49.3035 55.7384C49.8084 56.2777 49.8117 56.2978 49.4498 56.6288C49.246 56.815 49.0795 57.0788 49.0795 57.215C49.0795 57.5523 49.9475 57.4366 50.332 57.0481C50.5007 56.8776 51.1696 56.4125 51.8188 56.0141C52.4678 55.6157 52.9636 55.1879 52.9201 55.0636C52.8054 54.7342 51.8182 54.9005 51.2617 55.3428C50.6125 55.8588 50.4297 55.8291 49.8468 55.1129L49.3468 54.4981L49.933 53.3686L50.5194 52.239L51.3596 52.8372C51.8215 53.1664 52.1997 53.4937 52.1997 53.5648C52.1997 53.6357 52.5597 53.858 52.9996 54.0584C53.7222 54.3876 53.8495 54.3943 54.316 54.1289C54.7198 53.899 54.8179 53.713 54.7661 53.2746C54.7298 52.9664 54.5982 52.583 54.4735 52.4228C53.8396 51.6065 52.2229 50.0102 52.03 50.0102C51.7084 50.0102 51.7476 49.8721 52.392 48.7342C52.7122 48.1688 52.9097 47.634 52.8307 47.5458C52.671 47.3675 53.1235 47.6133 53.5425 47.9325C53.6911 48.0458 54.7298 49.0473 55.8505 50.158C57.2989 51.5933 58.0245 52.1775 58.3592 52.1775C58.9357 52.1775 58.9606 51.8331 58.4507 50.9157C57.3909 49.0097 56.4311 47.8062 55.455 47.16C55.1662 46.9689 54.9299 46.6459 54.9299 46.4422C54.9299 46.0665 55.0849 46.0562 56.0512 46.3681ZM55.4174 48.2369C55.7257 48.562 55.9305 48.828 55.8724 48.828C55.7292 48.828 54.7349 47.889 54.7349 47.7538C54.7349 47.5576 54.8513 47.6399 55.4174 48.2369ZM53.401 52.7391C53.6863 53.0805 53.8386 53.3597 53.7395 53.3597C53.5591 53.3597 52.773 52.9548 52.5897 52.7674C52.5361 52.7127 52.1659 52.4222 51.7673 52.1222C51.1113 51.6282 51.0631 51.5307 51.2597 51.0948L51.4768 50.6133L52.1796 51.366C52.5659 51.7797 53.1157 52.3978 53.401 52.7391ZM78.7961 58.5912C78.8754 58.8007 78.836 58.8489 78.6707 58.7445C78.5377 58.6606 78.3113 58.5741 78.1673 58.552C77.6726 58.4763 77.6822 58.2854 78.1806 58.2854C78.4552 58.2854 78.7321 58.4229 78.7961 58.5912ZM57.3496 59.2816C57.145 59.3569 56.9118 59.3797 56.8313 59.3328C56.7507 59.2857 56.685 59.334 56.685 59.4398C56.685 59.5458 56.6331 59.769 56.5695 59.9361C56.4804 60.171 56.5582 60.2173 56.9108 60.1404C57.162 60.0857 58.1135 60.0106 59.0252 59.9736C61.1922 59.8857 61.8472 59.7184 61.5315 59.334C61.3525 59.1159 60.8764 59.0601 59.5094 59.097C58.5261 59.1234 57.5542 59.2065 57.3496 59.2816ZM71.4499 73.0939C71.8025 73.0699 72.0911 73.1416 72.0911 73.2535C72.0911 73.3652 72.0254 73.4427 71.9448 73.4253C71.8643 73.4082 71.6519 73.4594 71.4725 73.539C71.1121 73.6994 70.336 73.3613 70.336 73.0441C70.336 72.9332 70.4423 72.9087 70.5723 72.9899C70.7024 73.0711 71.0973 73.118 71.4499 73.0939Z" fill="black"/>
</svg>
