<svg width="120" height="120" viewBox="0 0 120 120" fill="none" xmlns="http://www.w3.org/2000/svg">
<path d="M102.05 23.55L91.45 12.95C89.5833 11.0721 87.0479 10.0112 84.4 10H47.5C45.5109 10 43.6032 10.7902 42.1967 12.1967C40.7902 13.6032 40 15.5109 40 17.5V92.5C40 94.4891 40.7902 96.3968 42.1967 97.8033C43.6032 99.2098 45.5109 100 47.5 100H97.5C99.4891 100 101.397 99.2098 102.803 97.8033C104.21 96.3968 105 94.4891 105 92.5V30.6C104.989 27.9521 103.928 25.4168 102.05 23.55Z" fill="#3E84F8"/>
<path d="M77.05 33.55L66.45 22.95C64.5832 21.0721 62.0479 20.0112 59.4 20H22.5C20.5109 20 18.6032 20.7902 17.1967 22.1967C15.7902 23.6032 15 25.5109 15 27.5V102.5C15 104.489 15.7902 106.397 17.1967 107.803C18.6032 109.21 20.5109 110 22.5 110H72.5C74.4891 110 76.3968 109.21 77.8033 107.803C79.2098 106.397 80 104.489 80 102.5V40.6C79.9888 37.9521 78.9279 35.4168 77.05 33.55Z" fill="#F7D046"/>
</svg>
