<svg width="34" height="74" viewBox="0 0 34 74" fill="none" xmlns="http://www.w3.org/2000/svg">
<path fill-rule="evenodd" clip-rule="evenodd" d="M1.93115 0.0881789C1.44472 0.422743 1.16663 2.10773 1.27909 4.03957C1.432 6.67062 1.71986 8.95448 1.94524 9.32279C2.32921 9.95059 2.51483 15.3087 2.20788 16.8986C2.14699 17.2143 2.02226 18.0926 1.93093 18.8504C1.73008 20.5189 1.66419 20.9754 1.51742 21.7207C1.45517 22.0365 1.3393 22.808 1.25955 23.4353C1.1798 24.0627 1.07575 24.6397 1.02803 24.7176C0.98055 24.7956 0.881491 25.2122 0.808105 25.6437C0.73472 26.0751 0.579997 26.7897 0.464352 27.2317C-0.15863 29.6136 -0.153405 35.2686 0.471849 35.2686C0.567273 35.2686 0.813785 35.6948 1.02008 36.2156C1.34134 37.0271 3.35592 39.4019 3.72308 39.4019C3.99231 39.4019 5.19193 40.7124 5.68722 41.5477C6.19274 42.3996 7.2833 43.6529 7.2833 43.3818C7.2833 43.309 7.44689 43.3866 7.64705 43.5544C7.84698 43.7221 8.17938 43.8853 8.38545 43.9168C9.90405 44.1496 11.0916 44.2885 11.4252 44.2722C11.6414 44.2619 11.8775 44.3501 11.9498 44.4683C12.0222 44.5866 12.2438 44.6833 12.4421 44.6833C12.6404 44.6833 13.2348 45.041 13.7628 45.4782C14.2906 45.9154 14.7723 46.2229 14.8329 46.1616C15.049 45.943 15.4784 46.712 15.5641 47.4712C15.6118 47.8953 15.7195 49.5178 15.8031 51.0765C15.8869 52.635 16 54.2366 16.055 54.6357C16.3256 56.604 16.4704 64.3732 16.2802 66.7273C16.1861 67.8917 16.5135 68.6438 17.2601 68.9779C17.8719 69.2516 18.2859 69.2387 19.8202 68.8993C21.0368 68.63 22.5041 65.8717 22.6245 63.6274C22.6581 62.9959 22.7615 61.9626 22.8538 61.3311C22.946 60.6996 23.0535 59.6147 23.0925 58.92C23.2775 55.6238 23.4168 52.2269 23.5347 48.1277C23.7641 40.1454 23.8712 38.9426 24.3517 38.9426C24.461 38.9426 24.53 39.0202 24.505 39.1149C24.3253 39.7959 27.6368 44.2431 28.0287 43.847C28.115 43.7597 28.1857 43.8105 28.1857 43.96C28.1857 44.1092 28.5435 44.4038 28.9809 44.6146C29.4182 44.8254 29.7761 45.072 29.7761 45.1625C29.7761 45.2973 30.649 45.7157 31.4233 45.9517C31.5169 45.9802 31.6194 46.0245 31.6505 46.05C31.8825 46.2388 32.6536 46.2202 32.8924 46.0199C33.0528 45.8854 33.1841 45.859 33.1841 45.9614C33.1841 46.0638 33.3706 45.9451 33.5987 45.6978C34.0279 45.2323 34.1445 43.6906 33.7928 43.1333C33.6932 42.9755 33.6748 42.7429 33.7521 42.6166C33.8293 42.4903 33.7782 42.387 33.6385 42.387C33.4988 42.387 33.4504 42.2791 33.531 42.1473C33.6117 42.0155 33.5801 41.7831 33.4608 41.6306C33.3418 41.4784 33.0625 40.7854 32.8408 40.0908C32.6188 39.3961 32.1855 38.3367 31.8777 37.7366C31.5701 37.1364 31.3733 36.5006 31.4403 36.3238C31.5073 36.1469 31.4983 35.9378 31.4199 35.8585C31.3417 35.7793 31.2497 35.5368 31.2159 35.3194C31.0098 34.0009 30.6674 31.2968 30.5697 30.2169C30.4413 28.7973 30.3741 28.4398 30.1269 27.8632C30.0321 27.6421 30.0135 27.3064 30.0855 27.1169C30.1573 26.9275 30.1428 26.7723 30.053 26.772C29.9631 26.7718 29.8672 26.4359 29.8395 26.0257C29.7429 24.5904 28.2384 21.4162 27.0188 20.0748C26.5212 19.5278 25.7369 18.6651 25.2755 18.1579C23.2813 15.9654 23.4452 16.5622 23.312 11.0046C23.1789 5.44029 22.6843 2.20257 21.9677 2.20257C21.5374 2.20257 21.3413 2.77089 21.6601 3.09306C21.8002 3.23474 21.8504 3.3507 21.7718 3.3507C21.693 3.3507 21.7337 3.68641 21.862 4.09698C21.9904 4.50755 22.1226 7.06489 22.156 9.78021C22.241 16.6899 22.3255 17.0545 24.3278 19.1655C24.6427 19.4973 25.2546 20.2339 25.6874 20.8022C26.1204 21.3706 26.5987 21.9389 26.75 22.0652C26.9756 22.2532 27.4893 23.4636 27.8222 24.591C27.8594 24.7173 27.9517 24.9757 28.0271 25.1651C28.1025 25.3546 28.2105 25.8195 28.2673 26.1984C28.3238 26.5773 28.4722 27.3523 28.5969 27.9206C28.7214 28.4889 28.8995 29.7289 28.9927 30.6761C29.2467 33.2624 29.2433 33.2328 29.4464 34.4649C29.5507 35.0964 29.6518 35.7164 29.6713 35.8427C29.6909 35.969 29.7354 36.124 29.7704 36.1871C30.0199 36.6372 29.8867 37.527 29.5082 37.9428C29.1522 38.3341 29.0831 38.6528 29.1738 39.4875C29.304 40.6823 29.7777 41.5218 30.1803 41.2701C30.3295 41.1769 30.3959 40.8517 30.3293 40.539C30.1623 39.7551 30.1578 38.4804 30.3214 38.3151C30.3963 38.2393 30.4577 38.4012 30.4577 38.6747C30.4577 38.9484 30.5661 39.1723 30.6983 39.1723C30.8305 39.1723 30.8807 39.2673 30.8098 39.3833C30.7387 39.4995 30.8423 39.7578 31.0398 39.9574C31.2374 40.1571 31.3281 40.3204 31.2413 40.3204C31.1545 40.3204 31.224 40.4912 31.3956 40.7002C31.5669 40.9089 31.6746 41.0899 31.6346 41.102C31.5678 41.1222 31.8575 42.0088 32.2042 42.8463C32.2828 43.0357 32.3264 43.32 32.3012 43.4777C32.276 43.6355 32.3682 43.7648 32.5059 43.7648C32.6438 43.7648 32.6933 43.8681 32.6161 43.9944C32.5388 44.1207 32.5879 44.224 32.7251 44.224C32.8892 44.224 32.8771 44.3296 32.6902 44.5319C32.4736 44.7662 32.2269 44.7843 31.6589 44.6082C31.2481 44.4807 30.9121 44.2844 30.9121 44.1719C30.9121 44.0594 30.8214 44.024 30.7106 44.0931C30.5999 44.1623 30.3838 44.0663 30.2305 43.8796C30.0771 43.6929 29.8754 43.588 29.7822 43.6463C29.5655 43.7815 27.5345 41.8334 26.7941 40.7796C25.7431 39.2839 25.051 37.9098 24.914 37.0466C24.839 36.5738 24.7177 35.8099 24.6445 35.349C24.5714 34.8879 24.488 33.4945 24.4589 32.2527C24.4301 31.0107 24.339 29.9266 24.2567 29.8435C23.9682 29.5516 23.4699 30.2341 23.3311 31.1108C23.2541 31.5976 23.1314 32.8098 23.0587 33.8045C22.9858 34.7993 22.8174 36.0264 22.6847 36.5316C22.4516 37.4182 22.3541 39.4007 22.1715 46.9795C22.1242 48.9371 22.0186 51.3137 21.9366 52.2609C21.8545 53.2081 21.7459 55.0164 21.6955 56.2794C21.6448 57.5423 21.5476 58.9889 21.4794 59.4941C21.411 59.9993 21.3522 60.8101 21.3486 61.2958C21.3449 61.7816 21.2484 62.4273 21.1341 62.7309C20.993 63.1061 21.0064 63.2829 21.1759 63.2829C21.3486 63.2829 21.3533 63.3713 21.1916 63.57C21.0632 63.7279 20.9026 64.167 20.8346 64.5459C20.6111 65.7939 20.3868 66.3792 20.0238 66.6626C19.8268 66.8164 19.7652 66.9457 19.8868 66.9496C20.2591 66.962 19.2295 67.5962 18.7512 67.649C17.7936 67.7549 17.7872 67.7354 17.7929 64.6905C17.7979 61.9385 17.827 61.7431 18.2152 61.8457C18.4847 61.9169 18.6819 62.2512 18.7728 62.7915C19.0991 64.73 19.3422 65.3914 19.6375 65.1436C19.9785 64.8575 20.0865 62.2117 19.7652 62.0113C19.6443 61.9357 19.4058 61.5364 19.2354 61.124C19.0647 60.7118 18.7596 60.3743 18.5572 60.3743C18.3545 60.3743 18.1889 60.4494 18.1889 60.5412C18.1889 60.6328 18.0612 60.7575 17.9049 60.8184C17.7038 60.8964 17.6282 60.6523 17.6457 59.9818C17.6593 59.461 17.5877 58.3478 17.4868 57.5081C17.3857 56.6683 17.2501 55.17 17.1851 54.1785C17.1199 53.187 17.0211 52.0864 16.965 51.7325C16.9091 51.3789 16.8034 50.3973 16.7303 49.5511C16.6573 48.7052 16.5369 47.3412 16.4631 46.5203C16.389 45.6994 16.3027 44.7177 16.2709 44.3388C16.1577 42.9827 15.8808 42.1574 15.5393 42.1574C15.266 42.1574 15.2155 42.4098 15.2866 43.4203C15.3357 44.1149 15.293 44.6833 15.1919 44.6833C15.0908 44.6833 15.0081 44.5871 15.0081 44.4693C15.0081 43.7847 12.3376 42.7482 10.0692 42.5523C9.53985 42.5067 9.03706 42.3992 8.95231 42.3133C8.86734 42.2277 8.61378 42.1574 8.38886 42.1574C8.13848 42.1574 7.61456 41.5999 7.03974 40.7222C6.52286 39.933 5.98872 39.246 5.85262 39.1957C5.71653 39.1456 5.36937 38.8659 5.08105 38.5748C4.79274 38.2834 4.5569 38.0997 4.5569 38.1665C4.5569 38.2333 4.0457 37.7658 3.4209 37.1277C2.7961 36.4895 2.2849 35.8227 2.2849 35.6461C2.2849 35.4693 2.13268 35.1972 1.9466 35.0411C1.76053 34.8849 1.66442 34.6656 1.73281 34.5538C1.8012 34.4417 1.77529 34.2211 1.6751 34.0631C1.32635 33.5141 1.26591 30.3099 1.58831 29.4531C1.70418 29.1452 1.91798 28.0804 2.06338 27.0866C2.38896 24.8638 2.43985 24.5394 2.59867 23.6725C2.77747 22.6955 3.00445 21.2456 3.08397 20.5726C3.12123 20.2569 3.23778 19.2752 3.34297 18.3912C3.59062 16.3119 3.54791 10.4672 3.28367 10.2737C3.17167 10.1917 3.07397 9.91798 3.0667 9.6654C3.0592 9.41281 2.87585 8.43116 2.6591 7.48395C2.17789 5.38059 2.03112 2.39155 2.35125 1.21931C2.59367 0.331811 2.38669 -0.225489 1.93115 0.0881789ZM23.7578 66.4949C23.4663 66.8205 23.4215 67.3018 23.5147 69.1099C23.683 72.375 24.1168 72.98 26.1409 72.772C26.8282 72.7012 27.5761 72.4785 27.8031 72.2767C28.1782 71.9433 28.1827 71.8856 27.8517 71.6408C27.6045 71.4583 27.2171 71.4356 26.6439 71.5701C25.2805 71.89 25.0667 71.8296 24.7972 71.0479C24.5053 70.2018 24.6305 70.0647 25.8882 69.8516C26.3397 69.7754 26.8622 69.6073 27.0497 69.4787C27.3464 69.2748 27.3364 69.2027 26.9729 68.9216C26.6139 68.6442 26.4258 68.6451 25.631 68.9285C25.1228 69.1097 24.6575 69.2082 24.5973 69.1473C24.5369 69.0865 24.4582 68.6203 24.4223 68.1115C24.3524 67.1174 24.3365 67.1282 25.8001 67.1698C26.2999 67.1838 26.8613 67.0945 27.0479 66.9709C27.6472 66.5739 26.9459 66.2056 25.4816 66.1489C24.4255 66.1078 24.0341 66.1863 23.7578 66.4949ZM12.5198 67.4093C12.3042 67.5441 12.1976 68.0895 12.1856 69.1186C12.1738 70.1485 12.0777 70.6394 11.8841 70.6592C11.5197 70.6966 10.5313 70.6968 10.2369 70.6596C10.1119 70.6438 10.0097 69.9657 10.0097 69.1519C10.0097 67.6194 9.86952 67.3076 9.33105 67.644C9.09681 67.7902 9.01706 68.3955 9.02229 69.9839C9.03138 72.6326 9.23767 73.8457 9.67912 73.8457C9.9947 73.8457 10.111 73.2643 10.0251 72.1166C9.99493 71.7127 10.1369 71.645 11.0873 71.6094C12.0861 71.5722 12.1881 71.6165 12.2281 72.1051C12.2524 72.4004 12.3783 72.9242 12.5078 73.2689C12.6961 73.7692 12.8072 73.8423 13.0592 73.6308C13.2378 73.4811 13.3359 73.0964 13.285 72.7449C13.2355 72.4032 13.1526 71.0569 13.1008 69.7533C13.0487 68.4497 12.9681 67.3445 12.9215 67.2972C12.8747 67.2502 12.6941 67.3005 12.5198 67.4093ZM15.5388 70.3311C15.1451 70.4087 15.0176 70.6452 14.8988 71.5171C14.713 72.8829 14.7757 73.1619 15.3818 73.6657C15.7231 73.9493 16.1443 74.0441 16.7862 73.9816C17.8535 73.8779 18.1889 73.7093 18.1889 73.2771C18.1889 72.8521 17.7613 72.741 16.8893 72.9391C16.3854 73.0537 16.0789 73.0096 15.9051 72.7981C15.7061 72.5557 15.8124 72.4489 16.4092 72.2925C16.863 72.1738 17.1978 71.926 17.246 71.6739C17.3142 71.3161 17.2206 71.2744 16.6214 71.3956C16.2341 71.4739 15.9169 71.4477 15.9169 71.3377C15.9169 71.2275 16.2818 71.1547 16.7275 71.1758C17.5589 71.2153 18.1151 70.8378 17.8542 70.4114C17.7113 70.1777 16.5258 70.1366 15.5388 70.3311ZM19.3885 70.8564C19.1111 70.974 18.8189 71.3331 18.7392 71.6544C18.4154 72.9575 19.2785 74.1596 19.9106 73.2859C20.0981 73.0271 20.3112 72.9502 20.5025 73.073C20.6672 73.1784 20.8528 73.2751 20.9153 73.2879C20.9778 73.3008 21.2091 73.3915 21.4294 73.4893C21.6675 73.5952 21.9697 73.5502 22.1747 73.3782C22.4737 73.1274 22.4146 73.0135 21.7318 72.5226C21.0591 72.0388 20.9821 71.8943 21.205 71.5336C21.3486 71.3012 21.4115 71.0558 21.3445 70.9882C21.0921 70.7331 19.8731 70.6512 19.3885 70.8564Z" fill="black"/>
</svg>
