<svg width="42" height="88" viewBox="0 0 42 88" fill="none" xmlns="http://www.w3.org/2000/svg">
<path fill-rule="evenodd" clip-rule="evenodd" d="M17.2786 0.0758047C17.0366 0.212402 16.9921 0.567691 16.977 2.47718C16.9673 3.70994 16.9342 5.04646 16.9034 5.44745C16.8629 5.97048 16.9353 6.28159 17.1591 6.54768C17.4269 6.86624 17.4953 6.88283 17.6412 6.66498C17.8358 6.37452 17.8392 6.30495 17.8333 2.7866C17.8309 1.35173 17.7692 0.118629 17.6959 0.0465217C17.6226 -0.0255855 17.4349 -0.0123828 17.2786 0.0758047ZM28.7652 4.5996C28.6084 4.77276 28.4803 4.96877 28.4803 5.03512C28.4803 5.10147 28.4007 5.24789 28.3036 5.36028C28.0551 5.6477 26.6204 7.91636 26.6221 8.01911C26.6229 8.06566 26.6935 8.21444 26.779 8.34951C26.9083 8.55382 27.0016 8.52521 27.3311 8.18025C27.9053 7.57936 28.5211 6.70662 29.0841 5.69594C29.5299 4.89565 29.5517 4.7863 29.3134 4.54814C29.0751 4.30982 29.023 4.31473 28.7652 4.5996ZM5.05272 5.79326C4.88837 6.05901 7.13622 9.41369 8.46258 10.8822C9.55333 12.09 9.39913 10.6659 8.30009 9.38237C8.17635 9.23765 8.0687 9.05451 8.06108 8.97512C8.05347 8.8959 7.53484 8.11508 6.90855 7.24015C5.84286 5.75129 5.3271 5.34911 5.05272 5.79326ZM21.3474 9.792C21.3124 9.82704 20.5842 9.87578 19.7293 9.9005C18.8743 9.92521 18.2031 9.99105 18.2377 10.0469C18.2722 10.1028 17.9889 10.161 17.6078 10.1762C17.227 10.1915 16.8705 10.2681 16.8158 10.3467C16.761 10.4254 16.5271 10.5017 16.2957 10.5165C16.0643 10.531 15.8498 10.6184 15.8192 10.7103C15.7886 10.8023 15.664 10.8394 15.5423 10.7927C15.4208 10.7461 15.2126 10.8164 15.0799 10.9493C14.9472 11.082 14.6606 11.247 14.4429 11.3161C13.7232 11.5444 11.2892 13.0387 10.2255 13.9052C8.57616 15.2483 7.22813 16.7718 6.67175 17.9212C6.09489 19.113 5.14023 21.3911 5.21776 21.3911C5.2533 21.3911 5.19694 21.6007 5.09233 21.8566C4.86687 22.4084 4.76193 26.9769 4.97469 26.9769C5.05543 26.9769 5.12161 27.2028 5.12161 27.4789C5.12161 27.755 5.24636 28.2692 5.39904 28.6215C5.55155 28.9737 5.75264 29.4524 5.8459 29.6851C6.23961 30.6681 6.58593 31.2799 6.98371 31.6963C7.21645 31.9401 7.63216 32.4442 7.90722 32.8165C8.18245 33.1889 8.71106 33.7602 9.08193 34.086C9.45296 34.4119 9.90794 34.8498 10.0931 35.0593C10.2783 35.2689 10.5241 35.4402 10.6392 35.4402C10.7543 35.4402 10.8738 35.4974 10.9049 35.5671C10.9359 35.6368 11.304 35.9224 11.723 36.2013C12.1419 36.4803 12.5456 36.8041 12.6201 36.9207C12.6946 37.0374 12.8469 37.1332 12.9586 37.1337C13.3418 37.1352 14.1079 37.8945 14.153 38.3177C14.1777 38.5504 14.2914 39.0647 14.4058 39.4604C14.5201 39.8561 14.6809 40.6559 14.763 41.2377C14.938 42.4774 14.9957 42.7435 15.1399 42.9738C15.1987 43.0676 15.3002 43.4293 15.3657 43.7779C15.4311 44.1262 15.5567 44.4112 15.6449 44.4112C15.7332 44.4112 15.753 44.4959 15.689 44.5995C15.6251 44.7029 15.6527 44.837 15.7503 44.8974C15.8478 44.9576 15.9802 45.2158 16.0442 45.4709C16.1489 45.8881 16.1161 45.9346 15.7166 45.9346C15.4726 45.9346 15.0064 46.1059 14.6809 46.3155C13.8376 46.858 13.4876 48.0633 13.1692 51.5204C13.1392 51.8462 13.0668 52.3033 13.0082 52.536C12.5757 54.2574 12.3951 58.0744 12.6599 59.8991C12.8009 60.8713 12.8677 61.2356 12.916 61.2955C12.9348 61.3187 12.9596 61.4076 12.9713 61.493C12.983 61.5784 13.0443 61.7001 13.1077 61.7634C13.1712 61.8268 13.1821 61.9856 13.1319 62.1161C13.0818 62.2466 13.1297 62.3534 13.2382 62.3534C13.3467 62.3534 13.3892 62.4284 13.3327 62.52C13.2364 62.6757 14.392 65.1988 14.766 65.6495C14.8595 65.7623 14.886 65.9046 14.8248 65.9659C14.7635 66.0272 14.7919 66.0773 14.8877 66.0773C14.9837 66.0773 15.1838 66.4011 15.3322 66.7966C15.4805 67.1922 15.6929 67.7445 15.8041 68.0238C15.9154 68.3031 16.0343 68.678 16.0685 68.8569C16.1027 69.0357 16.2146 69.2833 16.3172 69.4071C16.4199 69.5306 16.4545 69.6319 16.3942 69.6319C16.3338 69.6319 16.4027 69.8604 16.5471 70.1396C16.6914 70.4189 16.7756 70.6474 16.7339 70.6474C16.5421 70.6474 18.042 73.388 18.3333 73.5698C18.5146 73.6831 18.6629 73.8501 18.6629 73.9412C18.6629 74.0321 18.8396 74.2614 19.0557 74.4505C19.2717 74.6397 19.6717 75.2515 19.9444 75.8101C20.2171 76.3686 20.5021 76.8712 20.5778 76.9269C20.6533 76.9824 20.7222 77.2708 20.7306 77.5675C20.7391 77.8644 20.8117 78.1478 20.8921 78.1975C20.9723 78.2471 20.9923 78.3621 20.9361 78.4528C20.8801 78.5435 20.9104 78.7096 21.0037 78.822C21.0967 78.9342 21.1758 79.084 21.1793 79.1547C21.21 79.7937 21.6315 81.3452 21.8158 81.4982C21.9436 81.6044 22.0482 81.8034 22.0482 81.9405C22.0482 82.0776 22.218 82.4283 22.4253 82.7197L22.8026 83.2493L22.1582 82.7577C20.6379 81.5983 19.0014 79.6561 19.0014 79.0114C19.0014 78.718 18.9266 78.6542 18.6629 78.7231C18.2306 78.8362 18.236 79.1204 18.6878 80.0061C19.2226 81.0554 19.9833 81.992 21.0326 82.8933C22.2164 83.9103 22.2434 83.9307 22.7324 84.1926C22.9573 84.3129 23.2437 84.5137 23.3686 84.6386C23.4935 84.7635 23.7046 84.8658 23.8375 84.8658C23.9705 84.8658 24.0794 84.9316 24.0794 85.0118C24.0794 85.0922 24.5555 85.3702 25.1373 85.6295C25.7192 85.8886 26.6031 86.2859 27.1018 86.512C27.6004 86.7382 28.1567 86.9518 28.3378 86.9867C28.5189 87.0215 28.9009 87.1668 29.1866 87.3093C29.4725 87.452 29.7731 87.5273 29.8549 87.4767C29.9368 87.4261 30.0037 87.4743 30.0037 87.5838C30.0037 87.6994 30.1455 87.7457 30.3422 87.6942C30.5284 87.6456 30.6807 87.6627 30.6807 87.7323C30.6807 87.802 30.9665 87.8704 31.3155 87.8843C31.6647 87.8982 32.5596 87.9418 33.3044 87.9814C34.6507 88.0529 35.4066 87.9254 36.3225 87.4725C36.5861 87.3421 36.9172 87.2355 37.0582 87.2355C37.469 87.2355 38.3068 86.696 39.0211 85.9717C39.6432 85.3409 40.5395 83.8453 40.468 83.5573C40.4503 83.4857 40.5269 83.0081 40.6383 82.496C40.7497 81.984 40.8529 80.757 40.8678 79.7695L40.8947 77.9738L40.2808 77.3102C39.6068 76.5819 38.9457 76.4074 38.5098 76.8432C38.263 77.09 38.2229 77.0792 38.0372 76.7154C37.9257 76.4968 37.7364 75.8141 37.6164 75.1985C37.4084 74.1297 37.4485 73.6739 37.8601 72.4247C37.891 72.3316 37.9734 72.0078 38.0435 71.7054C38.1134 71.4027 38.2418 71.1552 38.3288 71.1552C38.4159 71.1552 38.448 71.0923 38.4004 71.0154C38.3529 70.9384 38.621 70.272 38.9961 69.5344C39.7368 68.0778 40.6979 65.4171 40.5623 65.1978C40.5161 65.1229 40.5633 65.0617 40.6674 65.0617C40.7715 65.0617 40.8169 64.9974 40.7683 64.9186C40.7197 64.8401 40.8226 64.4004 40.9968 63.9416C41.3971 62.8883 41.3739 60.8343 40.9526 60.0345C40.7959 59.7366 40.3311 59.2117 39.9201 58.8681C39.3744 58.4119 39.1914 58.147 39.2425 57.8863C39.4137 57.0114 39.2796 55.6507 38.9942 55.3653C38.8905 55.2615 38.8055 55.0394 38.8055 54.8719C38.8055 54.7043 38.7293 54.5672 38.6362 54.5672C38.5431 54.5672 38.467 54.4802 38.467 54.3739C38.467 54.2676 38.2342 53.9583 37.9497 53.6863C37.5402 53.295 37.2542 53.1823 36.5751 53.145C35.6946 53.0964 35.4759 52.926 35.3313 52.1756C35.2271 51.634 34.4251 50.6741 34.0767 50.6741C33.9059 50.6741 33.5481 50.5598 33.2813 50.4202C32.989 50.267 32.5615 50.2006 32.2041 50.2528L31.6117 50.3394L31.5816 48.7717C31.5452 46.8703 31.4951 46.4423 31.3216 46.5494C31.2485 46.5948 31.1885 46.5049 31.1885 46.3498C31.1885 46.102 30.9538 45.7417 30.1369 44.7356C30.0171 44.588 29.8083 44.2833 29.6731 44.0585C29.5379 43.8335 29.0214 43.0021 28.5253 42.2108C28.0294 41.4195 27.5788 40.6388 27.5243 40.4758C27.4698 40.3128 27.3535 40.1796 27.2656 40.1796C27.178 40.1796 27.1532 40.1034 27.2108 40.0103C27.2683 39.9172 27.2347 39.8411 27.1362 39.8411C27.0376 39.8411 26.9569 39.7222 26.9569 39.5772C26.9569 39.4321 26.8956 39.351 26.821 39.3973C26.7462 39.4436 26.4083 39.228 26.0701 38.9182C25.617 38.503 25.4801 38.2608 25.5491 37.9966C25.6595 37.5749 25.2925 36.5876 25.0753 36.7218C24.6911 36.9593 25.0703 36.5331 26.9146 34.6544C28.0085 33.5402 29.132 32.29 29.4113 31.8763C29.6905 31.4624 30.0463 30.9825 30.2021 30.8099C30.3578 30.6372 30.5765 30.2754 30.6882 30.0059C30.7997 29.7364 30.9626 29.5159 31.0497 29.5159C31.1371 29.5159 31.1652 29.4458 31.1124 29.3603C31.0594 29.2747 31.1174 29.1032 31.2414 28.9795C31.3653 28.8556 31.492 28.678 31.5232 28.5849C31.5543 28.4918 31.6821 28.1705 31.8072 27.8709C31.9325 27.5713 32.0349 27.2096 32.0349 27.0669C32.0349 26.9242 32.1237 26.8076 32.2324 26.8076C32.3409 26.8076 32.3856 26.7633 32.3314 26.7091C32.2773 26.6551 32.3455 26.3414 32.4829 26.0122C32.8699 25.0865 32.966 23.8771 32.8238 21.7296C32.7238 20.2181 32.5657 19.3377 32.3472 19.0744C32.2456 18.9522 32.2194 18.8521 32.2888 18.8521C32.3582 18.8521 32.3406 18.757 32.25 18.6405C32.1593 18.5243 31.9411 18.01 31.7651 17.498C31.5892 16.986 31.4066 16.5289 31.3592 16.4824C31.3119 16.4358 31.0828 16.0283 30.85 15.5767C30.3165 14.5413 27.7132 11.9225 27.0925 11.7968C26.8413 11.7458 26.5073 11.5623 26.3504 11.389C26.1937 11.2157 25.9989 11.115 25.9176 11.1653C25.8362 11.2155 25.5608 11.1106 25.3054 10.9322C24.676 10.4924 21.548 9.59125 21.3474 9.792ZM22.764 11.128C23.0181 11.1609 23.3436 11.2854 23.4875 11.4049C23.6313 11.5243 23.7981 11.5728 23.8581 11.5128C23.9182 11.4528 24.1068 11.5299 24.2773 11.6842C24.4477 11.8384 24.5872 11.9097 24.5872 11.8423C24.5872 11.7749 24.8084 11.8774 25.0787 12.07C25.3492 12.2624 25.6539 12.42 25.7558 12.42C25.8579 12.42 25.9413 12.4962 25.9413 12.5893C25.9413 12.6824 26.0386 12.7585 26.1575 12.7585C26.2764 12.7585 26.6238 12.9871 26.9296 13.2663C27.2353 13.5456 27.5666 13.7741 27.6654 13.7741C27.8931 13.7741 29.4959 15.4179 29.4959 15.6515C29.4959 15.7471 29.5626 15.7842 29.644 15.7337C29.7254 15.6835 29.8877 15.9836 30.0045 16.4008C30.1213 16.8181 30.2743 17.1595 30.3444 17.1595C30.4147 17.1595 30.5118 17.2927 30.5604 17.4557C30.609 17.6187 30.8473 18.305 31.0897 18.9811C31.3322 19.6571 31.575 20.5331 31.6291 20.9277C31.7845 22.0587 31.8147 24.2801 31.6759 24.3659C31.6066 24.4088 31.5531 24.6518 31.5572 24.9062C31.5658 25.466 30.8065 27.8124 30.4314 28.385C30.283 28.6115 30.1313 28.9541 30.0942 29.1465C30.0572 29.339 29.7169 29.8886 29.3381 30.3678C28.9595 30.8468 28.6492 31.2893 28.6487 31.3507C28.648 31.4494 28.2249 31.9541 27.1158 33.1789C26.9352 33.3782 26.7876 33.6258 26.7876 33.7291C26.7876 33.8323 26.7255 33.9168 26.6497 33.9168C26.521 33.9168 26.1608 34.2682 24.1779 36.3288C23.7524 36.7711 23.3331 37.1328 23.2461 37.1328C23.1591 37.1328 22.9873 37.231 22.8642 37.3508C22.3324 37.8693 21.2907 38.1804 19.7863 38.2701C18.4274 38.3512 18.0242 38.3045 16.6261 37.9045C15.7447 37.6523 14.6428 37.2068 14.1773 36.9146C13.2618 36.3401 11.6487 35.1724 11.2049 34.7631C9.99782 33.6497 9.04587 32.7204 8.76083 32.3776C8.1943 31.696 7.24776 30.3028 7.04651 29.8544C6.74657 29.1866 6.4446 28.4236 6.44341 28.331C6.4429 28.2845 6.373 28.1165 6.28803 27.9581C5.99418 27.4088 5.76364 23.7168 5.99316 23.2354C6.06442 23.0861 6.1538 22.7053 6.19188 22.3891C6.26467 21.7862 6.36487 21.4629 6.73523 20.6362C6.85862 20.3608 6.92243 20.0751 6.87707 20.0014C6.83154 19.928 6.86674 19.8677 6.95527 19.8677C7.04363 19.8677 7.16753 19.6629 7.23033 19.4126C7.29313 19.1622 7.49709 18.7433 7.68345 18.4816C7.86964 18.2199 7.97019 18.0058 7.90671 18.0058C7.84324 18.0058 8.0665 17.7224 8.403 17.3759C8.7395 17.0296 9.01473 16.6488 9.01473 16.5296C9.01473 16.4106 9.08463 16.3131 9.17011 16.3131C9.25576 16.3131 9.62645 16.0276 9.9941 15.6784C11.0016 14.722 11.5402 14.2819 11.7035 14.2819C11.7846 14.2819 11.9505 14.1618 12.0725 14.0148C12.1944 13.8679 12.6418 13.561 13.0664 13.3329C13.4913 13.1049 14.2386 12.7008 14.7274 12.4353C15.2163 12.1697 15.6161 11.9933 15.6161 12.0432C15.6161 12.0932 15.7493 12.0146 15.9123 11.8689C16.0753 11.723 16.5894 11.5493 17.0549 11.4828C17.5203 11.4161 17.9774 11.3054 18.0704 11.2365C18.1635 11.1675 18.6928 11.0986 19.2467 11.0832C19.8003 11.0678 20.28 11.0287 20.3124 10.9962C20.3725 10.9361 21.9292 11.0197 22.764 11.128ZM35.9341 13.3437C35.8147 13.4874 35.6504 13.6049 35.5688 13.6049C35.487 13.6049 35.2756 13.7381 35.0988 13.9011C34.922 14.0641 34.5708 14.3849 34.3184 14.6139C33.8645 15.026 33.8633 15.0323 34.2169 15.1901C34.4811 15.3079 34.6553 15.2764 34.8841 15.0692C35.0544 14.9152 35.232 14.8273 35.2788 14.874C35.4307 15.0259 36.8114 13.6316 36.7354 13.4033C36.6267 13.0769 36.1827 13.0439 35.9341 13.3437ZM0.614745 15.7153C0.504384 16.0027 1.10071 16.6121 1.88898 17.0174C2.13086 17.1419 2.36681 17.2895 2.41336 17.3455C2.62545 17.6007 3.20299 17.7839 3.47957 17.6832C3.76021 17.5811 3.75361 17.5452 3.39493 17.2221C2.97211 16.8414 1.36578 15.7276 1.2285 15.7202C1.18195 15.7177 1.04807 15.6547 0.931103 15.5804C0.799075 15.4966 0.679066 15.5477 0.614745 15.7153ZM12.0615 15.7617C11.7299 15.8664 10.9445 16.7307 10.4069 17.5826C10.172 17.955 9.93401 18.2978 9.87815 18.3443C9.38034 18.7587 9.16554 19.976 9.62104 19.8012C9.7683 19.7447 9.92064 19.6984 9.95957 19.6984C9.9985 19.6984 10.0303 19.5923 10.0303 19.4627C10.0303 19.333 10.1446 19.183 10.2842 19.1294C10.4239 19.0759 10.5381 18.875 10.5381 18.6829C10.5381 18.4907 10.6524 18.2898 10.792 18.2363C10.9317 18.1827 11.0459 18.041 11.0459 17.9215C11.0459 17.8018 11.4251 17.3228 11.8885 16.857C12.5143 16.228 12.6776 15.9677 12.5233 15.8458C12.409 15.7554 12.2012 15.7177 12.0615 15.7617ZM18.6718 21.8464C17.8651 22.2731 16.9937 23.1633 16.5178 24.0471C16.1638 24.7045 16.1317 24.7126 15.6523 24.2661C14.8293 23.4993 13.8884 23.4038 13.1777 24.0149C12.9072 24.2476 12.7413 24.4379 12.809 24.4379C12.8767 24.4379 12.8117 24.5582 12.6644 24.7055C12.5173 24.8526 12.4369 25.0378 12.4859 25.117C12.5348 25.196 12.5023 25.3057 12.4134 25.3606C12.2562 25.4577 12.2741 26.1065 12.4769 27.6539C12.5756 28.4065 13.0724 29.8999 13.4558 30.5959C13.5644 30.7933 13.6685 31.0308 13.6873 31.1239C13.7059 31.217 14.0324 31.8644 14.4126 32.5626C14.793 33.2609 15.2892 34.1791 15.5155 34.6033C15.9834 35.4801 17.7903 37.5076 17.9926 37.3825C18.066 37.3371 18.1563 37.3903 18.1932 37.5008C18.2309 37.6144 18.3858 37.6533 18.55 37.5903C18.792 37.4974 18.8057 37.4245 18.6331 37.1479C18.5193 36.9658 18.3773 36.8307 18.3177 36.8478C18.1544 36.8947 16.4656 34.8799 16.4639 34.6362C16.4631 34.5199 16.4035 34.4246 16.3314 34.4246C16.1799 34.4246 15.1083 32.3704 15.1083 32.0801C15.1083 31.9731 15.0462 31.8856 14.9703 31.8856C14.8945 31.8856 14.6543 31.3715 14.4366 30.743C14.219 30.1146 13.9839 29.5243 13.9141 29.4312C13.8444 29.3381 13.6909 28.9192 13.5729 28.5003C13.0978 26.8113 13.0866 25.7483 13.538 25.143C13.983 24.5466 14.3725 24.4931 14.8695 24.9599C15.0939 25.1706 15.2781 25.2729 15.2786 25.1867C15.2793 25.1007 15.3905 25.2427 15.5259 25.5022C15.7143 25.8636 15.7297 26.082 15.5917 26.4332C15.4925 26.6857 15.4011 27.692 15.3888 28.6695C15.3707 30.0843 15.4275 30.5602 15.6675 31.0025C15.8334 31.308 16.0308 31.52 16.1063 31.4732C16.1819 31.4265 16.3312 31.5807 16.4384 31.8158C16.5455 32.051 16.7036 32.1996 16.7899 32.1462C16.8763 32.0929 16.9926 32.1234 17.0486 32.214C17.1046 32.3045 17.2812 32.3304 17.4411 32.2717C17.8084 32.1366 18.4882 31.4289 18.3672 31.3077C18.3171 31.2576 18.3589 31.1171 18.4599 30.9952C18.6189 30.8038 18.608 29.5194 18.4406 28.6695C18.2599 27.7526 17.4526 26.0246 17.0865 25.7707C16.9293 25.6618 17.9531 23.5572 18.2186 23.4435C18.3 23.4086 18.5182 23.2285 18.7033 23.0433C18.9279 22.8187 19.3112 22.6921 19.8559 22.6628C20.7779 22.613 21.2047 22.9362 21.8617 24.1814C22.3202 25.0508 22.3097 25.2615 21.7782 25.8766C21.5368 26.1559 21.223 26.613 21.0808 26.8922C20.9388 27.1715 20.7208 27.5165 20.5966 27.6588C20.2729 28.0299 19.8542 29.7579 19.9755 30.2225C20.2132 31.1334 21.0446 31.3898 21.9768 30.8399C22.2953 30.6518 22.556 30.3913 22.556 30.2608C22.556 30.1305 22.6261 30.0237 22.7119 30.0237C22.8427 30.0237 23.0568 29.4256 23.1664 28.7542C23.1816 28.6611 23.2087 28.5468 23.2264 28.5003C23.3258 28.2416 23.4043 27.6269 23.4497 26.754C23.4958 25.8709 23.5526 25.7377 24.0017 25.4606C24.9183 24.8952 25.1843 24.8915 25.6986 25.4362C25.9587 25.7119 26.196 26.1141 26.2257 26.3303C26.2555 26.5463 26.3034 26.8753 26.332 27.0615C26.3606 27.2477 26.3293 27.5586 26.2622 27.7526C26.1952 27.9466 26.0935 28.4004 26.0363 28.7611C25.9789 29.1218 25.8514 29.4668 25.7529 29.5277C25.6544 29.5885 25.5972 29.6679 25.6256 29.7041C25.6541 29.7401 25.4283 30.1315 25.1241 30.5738C24.8199 31.0159 24.6308 31.3778 24.7043 31.3778C24.7776 31.3778 24.629 31.5713 24.3739 31.8077C24.1188 32.0443 23.9098 32.2918 23.9094 32.3578C23.9084 32.529 22.4769 34.086 22.3207 34.086C22.1255 34.086 20.8699 35.4618 20.6033 35.9678C20.4133 36.3288 20.41 36.4656 20.5859 36.7059C20.7816 36.9735 20.8263 36.9764 21.0663 36.7366C21.2117 36.591 21.3779 36.5191 21.4356 36.5766C21.4932 36.6343 21.5404 36.578 21.5404 36.4515C21.5404 36.2183 22.8173 34.9324 23.0491 34.9324C23.1185 34.9324 23.5687 34.5134 24.0496 34.0014C24.5305 33.4894 24.8771 33.0704 24.8201 33.0704C24.763 33.0704 24.9538 32.8275 25.2441 32.5305C25.5346 32.2336 25.772 31.9274 25.772 31.85C25.772 31.7728 25.9625 31.4079 26.1952 31.0393C26.4279 30.6706 26.6184 30.2532 26.6184 30.1117C26.6184 29.9702 26.6825 29.8544 26.7609 29.8544C26.9869 29.8544 27.3474 28.502 27.3897 27.4948C27.4322 26.4853 26.9665 24.7514 26.6223 24.6366C26.5038 24.5972 26.2639 24.422 26.0894 24.2475C25.7001 23.8582 24.4993 23.8201 23.8146 24.1754C23.3019 24.4413 23.0638 24.3873 23.0638 24.0047C23.0638 23.8705 22.983 23.7608 22.8845 23.7608C22.786 23.7608 22.7486 23.6907 22.8014 23.6053C22.8544 23.5196 22.7826 23.3346 22.6421 23.1941C22.5017 23.0536 22.3867 22.8991 22.3867 22.8507C22.3867 22.5861 21.5345 21.9189 20.948 21.7244C19.9378 21.3894 19.4909 21.4134 18.6718 21.8464ZM7.88877 25.0362C7.75658 25.3807 7.9321 27.1169 8.15943 27.715C8.38912 28.319 8.77606 28.2063 8.71411 27.5534C8.68855 27.2829 8.65047 26.5474 8.62948 25.9191C8.59732 24.9508 8.54569 24.7768 8.2901 24.7766C8.12422 24.7766 7.94361 24.8934 7.88877 25.0362ZM16.9702 27.6382C16.9702 27.7958 17.0616 28.0162 17.1733 28.1279C17.2851 28.2396 17.3306 28.331 17.2746 28.331C17.2185 28.331 17.2661 28.6546 17.3802 29.0504C17.7389 30.2935 17.4244 31.5176 16.8849 30.9781C16.3253 30.4184 16.1147 28.8869 16.412 27.5383C16.5068 27.1082 16.9702 27.1912 16.9702 27.6382ZM22.1665 28.1457C22.0446 29.2794 21.4668 30.3139 21.1023 30.0506C20.897 29.9021 20.8261 29.5159 21.0043 29.5159C21.082 29.5159 21.1582 29.4016 21.1736 29.262C21.1892 29.1223 21.2146 28.8938 21.2301 28.7542C21.2455 28.6145 21.3095 28.5003 21.3721 28.5003C21.5074 28.5003 21.951 27.6252 21.9085 27.4424C21.8923 27.3726 21.9637 27.3154 22.0673 27.3154C22.1922 27.3154 22.2258 27.5952 22.1665 28.1457ZM24.5872 37.5477C24.5872 38.0944 24.2436 39.7106 24.0818 39.9257C23.9035 40.1623 23.6767 41.3196 23.6505 42.1262C23.5961 43.7921 23.6232 43.7303 22.7811 44.1028C22.1892 44.3647 21.6472 44.451 20.623 44.4465C19.1065 44.4397 18.6043 44.643 19.1656 45.0362C19.3758 45.1833 19.9451 45.2762 20.6504 45.2784C21.9974 45.2826 22.4512 45.196 23.0149 44.8266C23.5106 44.5016 23.6242 44.5704 23.4841 45.1107C23.2617 45.9688 21.5338 46.3615 19.3017 46.0612C18.4286 45.9438 18.1757 46.1004 18.5821 46.5068C19.1136 47.0383 21.4766 47.1899 22.3444 46.7483C22.6469 46.5943 22.8945 46.5266 22.8945 46.5975C22.8945 46.8328 21.6222 47.9085 21.4226 47.8419C21.3149 47.806 20.9265 47.9216 20.5597 48.099L19.8924 48.4213L19.2372 47.855C18.8768 47.5435 18.4902 47.2888 18.3782 47.2888C18.0366 47.2888 17.6307 46.5817 17.8326 46.3383C17.9614 46.1833 17.869 46.0023 17.4865 45.6616C17.0523 45.2747 16.4624 44.3867 16.4624 44.1199C16.4624 44.0813 16.5956 44.0913 16.7586 44.1421C16.9216 44.1927 17.1623 44.1667 17.2939 44.0842C17.4968 43.9568 17.4922 43.8936 17.2637 43.665C17.1156 43.5168 16.9342 43.3957 16.8605 43.3957C16.6875 43.3957 15.7901 42.3479 15.7732 42.1262C15.7661 42.0331 15.7278 41.7829 15.6884 41.5701C15.6264 41.2368 15.6603 41.2069 15.9347 41.3538C16.2881 41.5429 17.4582 41.9367 18.2397 42.1297C19.0911 42.3399 21.6672 42.3772 22.212 42.1873C23.1862 41.8477 22.8139 41.6077 21.3288 41.6175C20.1792 41.6251 19.0926 41.4755 17.7319 41.1219C17.0249 40.9383 16.4475 40.5684 15.8441 39.9127C15.2254 39.2402 14.8007 38.3996 14.9861 38.2141C15.0211 38.1792 15.5389 38.3459 16.1369 38.5846C16.9919 38.926 17.5919 39.0318 18.9464 39.0794C21.3877 39.1654 22.4862 38.8324 23.8255 37.6012C24.4507 37.0264 24.5872 37.0167 24.5872 37.5477ZM26.6649 41.074C27.754 42.7443 28.048 43.2408 28.9932 45.0037C29.3925 45.7484 29.7681 46.3959 29.8278 46.4424C30.0435 46.6105 30.5203 48.0967 30.5391 48.6595C30.5609 49.3154 30.2127 51.1191 29.9788 51.5627C29.8928 51.7256 29.7108 51.8589 29.5746 51.8589C29.4382 51.8589 29.3266 52.0032 29.3266 52.1794C29.3266 52.3556 29.2291 52.5372 29.11 52.5829C28.9908 52.6286 28.7432 52.9605 28.5598 53.3204C28.3764 53.6802 28.1795 54.0128 28.1221 54.0594C27.9359 54.2106 27.2973 55.5589 27.2233 55.957C27.1837 56.1701 27.1362 56.3636 27.1175 56.3868C27.0706 56.4457 27.0414 56.5759 26.8802 57.4447C26.6639 58.612 26.7321 60.0074 27.0437 60.786C27.3521 61.5569 28.3545 62.5227 28.8461 62.5227C29.0174 62.5227 29.1574 62.6369 29.1574 62.7766C29.1574 63.0659 29.5893 63.1209 29.755 62.8528C29.9416 62.5508 29.3782 61.6085 28.8117 61.2749C27.3665 60.424 27.3482 57.3914 28.7718 54.6153C29.7073 52.7911 31.5995 51.0043 32.5816 51.0179C33.2698 51.0273 34.2375 51.7724 34.6693 52.6252L35.0773 53.4311L34.6986 53.7627C34.4904 53.945 34.2042 54.1816 34.0628 54.2884C33.5528 54.6733 32.3284 56.3541 32.1024 56.9792C32.0435 57.1421 31.9333 57.2754 31.8573 57.2754C31.7116 57.2754 31.4363 57.9478 31.4936 58.1641C31.512 58.234 31.4509 58.291 31.3578 58.291C31.2647 58.291 31.2004 58.3481 31.2149 58.418C31.2293 58.4879 31.0711 58.9124 30.8629 59.3615C30.6548 59.8107 30.4495 60.382 30.4067 60.631C30.3639 60.8801 30.2906 61.2112 30.2439 61.3666C29.9329 62.3995 29.8105 64.4701 30.0335 64.9244C30.3734 65.6167 29.8156 65.2915 28.8921 64.2588C27.5806 62.7923 26.1324 61.3614 25.7556 61.1598C24.5438 60.5113 25.0884 61.8062 26.5507 63.0503C26.7275 63.2008 27.3704 63.8482 27.9793 64.489C29.0673 65.634 29.7552 66.2514 30.5037 66.7543C30.7115 66.894 31.1144 67.1772 31.3989 67.3835C31.6833 67.5898 31.9707 67.7249 32.0376 67.6836C32.1043 67.6425 32.2952 67.7593 32.4616 67.9433C32.6281 68.1272 32.8668 68.2777 32.9921 68.2777C33.1173 68.2777 33.2197 68.3488 33.2197 68.4356C33.2197 68.5225 33.391 68.6427 33.6006 68.7029C33.8101 68.7632 34.2319 68.9257 34.538 69.064C35.1087 69.3218 35.4818 69.371 35.928 69.2473C36.0676 69.2087 36.3948 69.1178 36.6551 69.0455C37.1787 68.9003 38.2977 67.5602 38.2977 67.0785C38.2977 66.9112 38.3644 66.733 38.446 66.6827C38.5276 66.6323 38.5758 66.0375 38.5533 65.3609C38.5277 64.5915 38.5973 63.9628 38.7391 63.6823C38.9326 63.2996 38.9287 63.2031 38.7132 63.0242C38.5086 62.8543 38.3969 62.8722 38.1252 63.118C37.9409 63.2849 37.7899 63.4988 37.7899 63.5935C37.7899 63.6881 37.6567 63.9127 37.4937 64.0928C37.2772 64.332 37.1897 64.7451 37.1687 65.6294C37.1528 66.2946 37.1337 66.8918 37.1264 66.9564C37.1189 67.0211 36.8615 67.3484 36.5541 67.6838C35.769 68.5409 35.1456 68.5413 34.3652 67.6853C33.8626 67.1342 33.6805 65.9463 33.9369 64.8924C34.0566 64.401 34.8272 62.8612 34.9537 62.8612C35.0241 62.8612 35.0817 62.747 35.0817 62.6073C35.0817 62.4677 35.1527 62.3534 35.2396 62.3534C35.3264 62.3534 35.451 62.1843 35.5167 61.9776C35.6387 61.5931 36.8105 60.3525 37.6858 59.6812C38.6884 58.9121 39.9267 59.4544 40.338 60.8427C40.5125 61.4313 40.3082 63.2324 39.9844 63.9614C39.8687 64.2221 39.4551 65.5553 39.2231 66.4158C39.1371 66.7347 38.2801 68.5817 37.8095 69.4626C36.7154 71.51 36.417 72.9039 36.7042 74.6252C36.751 74.9045 36.8171 75.3996 36.8517 75.7254C36.947 76.6276 38.0137 79.2759 38.34 79.421C38.4098 79.4521 38.467 79.5854 38.467 79.7172C38.467 79.8492 38.5311 79.9571 38.6097 79.9571C38.688 79.9571 38.8901 80.2133 39.0589 80.5265C39.2979 80.9705 39.3433 81.3112 39.2645 82.0739C39.2089 82.6118 39.0829 83.1327 38.9846 83.231C38.8861 83.3295 38.8055 83.532 38.8055 83.6809C38.8055 83.8299 38.6 84.2686 38.349 84.6559C37.8649 85.4023 36.5505 86.1735 35.116 86.5527C33.8433 86.8892 30.2979 86.6588 29.7342 86.203C29.6325 86.1209 29.5069 86.0962 29.4548 86.1481C29.4028 86.2001 28.9718 86.0459 28.497 85.8052C28.0224 85.5647 27.634 85.4115 27.634 85.465C27.634 85.5183 27.4055 85.4271 27.1262 85.262C26.8469 85.097 26.6184 84.9023 26.6184 84.8292C26.6184 84.7562 26.5041 84.6965 26.3645 84.6965C26.2248 84.6965 26.1106 84.6254 26.1106 84.5386C26.1106 84.4517 25.9464 84.3287 25.7458 84.265C25.5452 84.2014 25.1188 83.9106 24.7983 83.619C24.4777 83.3271 24.1276 83.0851 24.0205 83.0809C23.9132 83.0766 23.8466 82.9747 23.8727 82.8546C23.8986 82.7345 23.7652 82.5957 23.5765 82.5463C23.3876 82.4969 23.2331 82.3195 23.2331 82.1519C23.2331 81.9844 23.1758 81.8219 23.1061 81.7907C22.9319 81.7134 22.2053 79.9043 22.1721 79.466C22.1575 79.2705 22.1017 79.1107 22.0482 79.1107C21.9947 79.1107 21.9322 78.8633 21.9092 78.5606C21.8864 78.2581 21.7249 77.7058 21.5504 77.3334C21.3759 76.9611 21.1771 76.4666 21.1084 76.2346C20.9969 75.8571 21.0131 75.8371 21.2621 76.0436C21.4151 76.1708 21.5404 76.2154 21.5404 76.143C21.5404 76.0707 21.6899 76.1467 21.8727 76.3121C22.2239 76.63 22.7269 76.5614 22.7227 76.1961C22.7192 75.8877 22.3219 75.1582 22.2002 75.2366C22.1442 75.2726 21.7633 75.0128 21.3539 74.659C20.3308 73.775 20.1863 73.6661 20.1863 73.7789C20.1863 73.928 19.6377 73.3521 19.0344 72.5696C18.737 72.1839 18.4936 71.7839 18.4936 71.681C18.4936 71.5781 18.4361 71.4938 18.3656 71.4938C18.2952 71.4938 18.1287 71.2475 17.9955 70.9467C17.4674 69.7534 16.6317 67.5297 16.6317 67.3176C16.6317 67.1941 16.5509 67.0929 16.4524 67.0929C16.3539 67.0929 16.3202 67.0167 16.3778 66.9236C16.4353 66.8305 16.4017 66.7543 16.3031 66.7543C16.2046 66.7543 16.1329 66.6973 16.1439 66.6274C16.1896 66.3379 16.1115 66.0886 15.9093 65.8777C15.6505 65.6081 15.1276 64.4317 15.0575 63.9614C15.0298 63.7753 14.913 63.4516 14.7979 63.2421C14.6828 63.0325 14.6388 62.8612 14.6999 62.8612C14.7611 62.8612 14.7246 62.7568 14.6186 62.6292C14.4238 62.3944 13.9238 60.8615 13.8385 60.2376C13.8129 60.0514 13.7344 59.6325 13.6638 59.3066C13.4932 58.5197 13.4827 55.92 13.6448 54.6518C13.7163 54.0933 13.8002 53.3696 13.8312 53.0438C13.9703 51.579 14.1365 51.0126 14.4273 51.0126C14.8268 51.0126 15.1823 50.55 15.4175 49.7235C15.6403 48.9416 15.683 47.7952 15.4891 47.7991C15.0917 47.8072 14.8937 48.2108 14.6594 49.4892C14.6167 49.722 14.4822 50.0136 14.3603 50.1372C13.972 50.5312 14.4869 48.0929 14.9209 47.4836C15.2935 46.9602 15.4451 46.8805 15.9546 46.9396C16.3158 46.9816 17.3088 48.1128 17.3088 48.4823C17.3088 48.6527 17.3795 48.836 17.4662 48.8895C17.588 48.9648 17.5867 51.2938 17.4636 53.1284C17.4437 53.427 17.6358 54.7937 17.8284 55.7231C17.9313 56.2192 17.9726 56.668 17.9205 56.7203C17.5811 57.0596 19.7756 58.9478 20.6604 59.0776C20.8046 59.0988 20.9893 59.2352 21.0707 59.3806C21.245 59.6922 21.6386 59.7279 21.8116 59.4478C21.8825 59.333 21.7413 59.0973 21.4737 58.884C21.0665 58.5593 21.0439 58.4923 21.2772 58.2988C21.4219 58.1786 21.5404 57.9847 21.5404 57.8679C21.5404 57.7511 21.6462 57.5676 21.7755 57.4603C21.9048 57.353 22.0952 56.9293 22.1985 56.5187C22.3019 56.108 22.4639 55.7243 22.5587 55.6657C22.6533 55.6073 22.687 55.4885 22.6333 55.4018C22.5799 55.3152 22.6212 55.2443 22.7253 55.2443C22.8294 55.2443 22.8727 55.1767 22.8217 55.0941C22.7708 55.0117 22.8424 54.85 22.981 54.7349C23.1196 54.6198 23.2331 54.4208 23.2331 54.2926C23.2331 54.1643 23.3092 54.0594 23.4023 54.0594C23.4954 54.0594 23.5741 53.9643 23.5772 53.8478C23.5848 53.5653 24.1706 52.8745 24.4027 52.8745C24.5042 52.8745 24.5872 52.799 24.5872 52.7068C24.5872 52.6144 24.7967 52.3288 25.0527 52.0719C25.3086 51.8149 25.5943 51.4823 25.6874 51.3325C25.7805 51.1827 25.9997 50.8574 26.1746 50.6098C26.5325 50.1028 26.7104 48.4196 26.4631 47.8812C26.3777 47.695 26.2299 47.3142 26.1348 47.0349C26.0396 46.7556 25.662 45.7947 25.2957 44.8996C24.9293 44.0043 24.6278 43.0522 24.6256 42.7838C24.6185 41.875 25.3831 39.4514 25.629 39.6034C25.7001 39.6473 26.1663 40.3091 26.6649 41.074ZM24.9039 46.7581C25.7077 48.963 25.534 50.092 24.1803 51.4627C22.7187 52.9421 21.8789 53.9617 21.8789 54.2568C21.8789 54.412 21.7985 54.5658 21.7005 54.5985C21.6023 54.6312 21.5042 54.7708 21.4823 54.9088C21.4603 55.0467 21.198 55.6739 20.899 56.3025C20.6003 56.931 20.3747 57.5368 20.398 57.6488C20.4212 57.7609 20.3259 57.8594 20.1863 57.8679C19.8548 57.8879 19.1707 57.4562 19.1707 57.227C19.1707 57.1287 19.0415 56.9054 18.8834 56.7309C18.648 56.4708 18.598 56.0721 18.6058 54.5171C18.6234 51.0138 18.6774 49.997 18.846 49.997C18.951 49.997 18.945 49.8696 18.8303 49.6549C18.5518 49.1348 18.7705 48.973 19.3977 49.235C19.7047 49.3633 20.0649 49.4488 20.1981 49.4249C21.0461 49.2729 21.6743 49.0708 22.0394 48.8323C23.0541 48.1691 24.2468 46.6731 24.248 46.0616C24.2493 45.4687 24.5501 45.7884 24.9039 46.7581ZM37.2505 54.3126C38.1812 55.0958 38.5968 56.9422 38.0976 58.0766C37.9649 58.378 37.5118 58.8522 37.0886 59.1325C36.0053 59.8502 33.4447 62.7507 33.3193 63.4024C33.2959 63.5237 33.1793 63.9657 33.0603 64.3846C32.9413 64.8035 32.8475 65.44 32.8521 65.7988C32.8567 66.1578 32.815 66.406 32.7595 66.3505C32.704 66.2949 32.5616 66.3298 32.4435 66.428C32.1432 66.6771 31.2679 66.2029 31.1059 65.7032C30.9233 65.1402 30.8962 65.0662 30.8559 65.0194C30.7439 64.889 30.7368 63.5963 30.8473 63.4536C30.9194 63.3605 31.0183 62.8654 31.0667 62.3534C31.1152 61.8414 31.2513 61.0416 31.3691 60.5761C31.6114 59.6183 33.0359 56.8272 33.7571 55.8969C34.0202 55.5577 34.2353 55.2041 34.2353 55.111C34.2353 55.0181 34.3306 54.8942 34.4469 54.8358C34.5634 54.7774 34.9632 54.5489 35.3356 54.3279C36.2211 53.8025 36.6401 53.7991 37.2505 54.3126ZM24.4782 62.6403C24.2705 62.7131 24.3698 63.369 24.5885 63.369C24.6606 63.369 24.7627 63.5403 24.8153 63.7499C24.9658 64.3489 25.3189 64.7358 25.5703 64.5769C25.714 64.4862 25.7522 64.2798 25.6791 63.9889C25.6173 63.7424 25.5048 63.5789 25.4293 63.6256C25.3536 63.6723 25.2429 63.4877 25.183 63.2153C25.073 62.7141 24.8311 62.5168 24.4782 62.6403ZM25.9413 67.3821C25.7307 67.43 25.6874 67.8364 25.6874 69.763C25.6874 72.0341 25.6761 72.1062 25.1796 72.9747C24.9003 73.4633 24.6337 73.8643 24.5872 73.8659C24.1005 73.8818 24.0079 74.7098 24.4927 74.7098C24.7419 74.7098 25.5065 73.8769 25.955 73.1165C26.2538 72.6103 26.6752 69.8521 26.5248 69.3878C26.4929 69.2893 26.4308 68.8021 26.3868 68.3053C26.2978 67.3011 26.2978 67.3011 25.9413 67.3821ZM20.7587 75.6496C20.8164 75.8002 20.788 75.8681 20.6922 75.8089C20.6001 75.752 20.5248 75.6338 20.5248 75.5462C20.5248 75.3028 20.6462 75.3564 20.7587 75.6496ZM33.8073 76.4092C33.1434 76.7298 32.5379 77.0843 32.3734 77.2488C32.1358 77.4865 30.602 78.1178 30.0883 78.1892C29.5253 78.2676 26.9202 77.7448 26.1622 77.4013C25.7717 77.2244 25.3717 77.0795 25.2735 77.0795C25.1754 77.0795 25.095 76.9871 25.095 76.8741C25.095 76.7527 24.9734 76.7959 24.7988 76.979C24.5785 77.2097 24.5577 77.3097 24.7172 77.3688C24.8352 77.4125 25.0447 77.5613 25.1827 77.6992C25.3206 77.8372 25.4335 77.9017 25.4335 77.8424C25.4335 77.7833 25.7192 77.8895 26.0683 78.0784C27.0613 78.6155 28.6314 78.9944 29.8344 78.987C30.7307 78.9816 31.1544 78.8739 32.1195 78.4066C33.5269 77.7251 34.6839 76.9704 34.8051 76.6547C34.9831 76.1904 34.5043 76.0727 33.8073 76.4092Z" fill="black"/>
</svg>
