<svg width="106" height="106" viewBox="0 0 106 106" fill="none" xmlns="http://www.w3.org/2000/svg">
<g clip-path="url(#clip0_26_3246)">
<path d="M41.4555 65.7223L31.9129 55.7406C31.4978 55.3257 30.9445 55.0888 30.3655 55.0781C29.7996 55.0911 29.2605 55.3285 28.861 55.7406L10.8935 74.5115C9.68602 75.7537 9.00781 77.4375 9.00781 79.1931C9.00781 80.9488 9.68602 82.6326 10.8935 83.8748L14.3752 87.4523C14.969 88.0736 15.6784 88.5659 16.4612 88.8997C17.244 89.2336 18.0841 89.4022 18.9316 89.3956C19.7794 89.4048 20.6203 89.2373 21.4034 88.9033C22.1865 88.5693 22.8956 88.0757 23.4879 87.4523L41.4555 68.9906C41.6898 68.7917 41.8783 68.5421 42.0078 68.2596C42.1373 67.9771 42.2044 67.6687 42.2044 67.3565C42.2044 67.0442 42.1373 66.7358 42.0078 66.4533C41.8783 66.1708 41.6898 65.9212 41.4555 65.7223Z" fill="#3E84F8"/>
<path d="M74.1242 27.7344C73.2705 27.7293 72.4345 27.9856 71.7231 28.4706C71.0116 28.9555 70.4568 29.6472 70.1294 30.4574C69.802 31.2676 69.7168 32.1597 69.8848 33.0198C70.0527 33.8799 70.4661 34.6692 71.0723 35.2869C71.4719 35.7009 71.9473 36.0295 72.4712 36.2537C72.995 36.4779 73.5568 36.5934 74.1242 36.5934C74.6917 36.5934 75.2535 36.4779 75.7773 36.2537C76.3011 36.0295 76.7765 35.7009 77.1761 35.2869C77.579 34.8764 77.8988 34.3879 78.117 33.8497C78.3353 33.3115 78.4476 32.7342 78.4476 32.1511C78.4476 31.5681 78.3353 30.9908 78.117 30.4526C77.8988 29.9144 77.579 29.4259 77.1761 29.0153C76.7745 28.6059 76.2982 28.2821 75.7744 28.0623C75.2507 27.8425 74.6899 27.7311 74.1242 27.7344Z" fill="#3E84F8"/>
<path d="M93.9858 32.0215L77.6087 15.194C77.0093 14.5731 76.2962 14.0802 75.5105 13.7439C74.7248 13.4075 73.882 13.2344 73.0308 13.2344C72.1797 13.2344 71.3369 13.4075 70.5512 13.7439C69.7655 14.0802 69.0524 14.5731 68.453 15.194L34.3662 50.2182C34.1648 50.4235 34.0049 50.6677 33.8958 50.9368C33.7866 51.206 33.7305 51.4946 33.7305 51.7861C33.7305 52.0776 33.7866 52.3663 33.8958 52.6354C34.0049 52.9045 34.1648 53.1487 34.3662 53.354L53.8812 73.4057C54.8765 74.4393 56.0614 75.2598 57.3674 75.8198C58.6733 76.3798 60.0744 76.6681 61.4895 76.6681C62.9046 76.6681 64.3056 76.3798 65.6116 75.8198C66.9175 75.2598 68.1024 74.4393 69.0978 73.4057L94.0718 47.7449C95.0799 46.7118 95.8782 45.4832 96.4202 44.1304C96.9623 42.7776 97.2373 41.3277 97.2293 39.8647C97.2213 38.4018 96.9305 36.9551 96.3737 35.6087C95.8169 34.2622 95.0052 33.0429 93.9858 32.0215ZM78.8553 36.9682C77.9181 37.909 76.7333 38.5471 75.4472 38.8037C74.161 39.0603 72.8299 38.9242 71.6182 38.4121C70.4065 37.9 69.3674 37.0344 68.6292 35.9222C67.891 34.8101 67.486 33.5001 67.4643 32.154C67.4631 31.2498 67.6373 30.3545 67.9768 29.5203C68.3163 28.6861 68.8143 27.9298 69.4416 27.2957C70.7167 26.066 72.3997 25.3816 74.1484 25.3816C75.8972 25.3816 77.5802 26.066 78.8553 27.2957C80.0908 28.5948 80.7847 30.3376 80.7896 32.154C80.7908 33.0477 80.6205 33.9329 80.2886 34.7589C79.9567 35.5849 79.4697 36.3357 78.8553 36.9682Z" fill="#FB4407"/>
</g>
<defs>
<clipPath id="clip0_26_3246">
<rect width="88.3333" height="76.1875" fill="white" transform="translate(8.83203 13.25)"/>
</clipPath>
</defs>
</svg>
