<svg width="50" height="80" viewBox="0 0 50 80" fill="none" xmlns="http://www.w3.org/2000/svg">
<path fill-rule="evenodd" clip-rule="evenodd" d="M34.0911 0.724416C33.2524 1.19315 32.6284 1.81253 32.2918 2.51121C31.6618 3.81728 31.2136 6.79147 31.6096 7.03596C31.7631 7.13097 32.6236 7.1866 33.5222 7.1595C35.503 7.10016 36.4143 7.41911 37.6838 8.61678C38.6299 9.50889 38.8778 10.0318 39.4991 12.4471C39.7639 13.4762 39.8874 13.6103 40.4375 13.4665C40.7855 13.3755 41.3079 13.0799 41.5978 12.8097C41.8876 12.5396 42.6528 12.1847 43.2981 12.0209C44.4173 11.7367 44.5215 11.7684 45.5585 12.705C46.7955 13.8225 47.1054 13.8784 47.9869 13.143C48.693 12.5533 49.8935 9.69319 49.4345 9.69319C49.2354 9.69319 49.2359 9.57936 49.4365 9.33657C49.7649 8.93887 49.4057 7.65591 48.4499 5.81405C47.4717 3.92912 45.0892 3.10148 42.768 3.84011C42.2616 4.0013 42.0987 3.83497 41.6745 2.72461C41.4006 2.00681 40.9944 1.41968 40.7718 1.41968C40.5496 1.41968 40.3676 1.30613 40.3676 1.16719C40.3676 0.788321 37.7038 -0.00764742 36.4625 5.55076e-05C35.8425 0.00404962 34.8229 0.31559 34.0911 0.724416ZM31.8924 8.52605C31.5457 8.81534 31.3426 9.13202 31.4405 9.22987C31.5383 9.32773 31.4473 9.4079 31.2382 9.4079C31.0291 9.4079 30.9258 9.4758 31.0085 9.55882C31.0915 9.64184 31.0008 10.3922 30.8068 11.2266C30.4679 12.6851 30.4685 14.374 30.8088 17.1108C30.8967 17.8169 31.0239 19.0366 31.0913 19.8211C31.1589 20.6057 31.2696 21.7611 31.3369 22.3888C31.6767 25.5464 31.6005 27.8881 31.1369 28.5502C30.8787 28.9186 30.6676 29.3379 30.6676 29.4817C30.6676 29.6255 30.2765 30.379 29.7983 31.1561C29.1127 32.2702 28.9998 32.6536 29.2628 32.9706C29.7761 33.5891 29.9641 33.4735 30.6987 32.0887C31.0733 31.3826 31.4442 30.8049 31.5229 30.8049C31.7289 30.8049 31.6541 33.2079 31.3808 35.3696C31.2522 36.3895 31.1232 37.545 31.0944 37.9373C30.9831 39.4524 30.9401 39.5195 30.5398 38.7968C30.3238 38.4063 30.2077 37.9892 30.2816 37.8696C30.3555 37.7498 30.2887 37.652 30.133 37.652C29.9775 37.652 29.7618 37.3632 29.6534 37.01C29.3935 36.1613 27.6503 34.0279 26.8803 33.6159C25.6105 32.9363 21.2509 33.2473 21.7065 33.9848C21.7895 34.1189 21.6569 34.2284 21.4124 34.2284C21.0275 34.2284 20.9046 34.6187 20.9856 35.5836C21.015 35.9345 22.1171 35.6874 22.5778 35.2267C22.8129 34.9916 23.1567 34.7825 23.3415 34.7622C25.5548 34.52 25.9728 34.6763 27.605 36.357C29.3735 38.178 30.7983 43.0825 30.0956 44.9307C29.8317 45.6248 29.974 46.4961 30.3512 46.4961C30.7181 46.4961 31.4604 44.9249 31.4561 44.1578C31.4539 43.7347 31.6607 43.1798 31.9158 42.9248C32.1708 42.6697 32.3899 42.1174 32.403 41.6971C32.4444 40.3674 32.6541 38.6662 32.8313 38.2225C33.458 36.6531 33.4555 27.7694 32.8264 22.3888C32.7713 21.918 32.6413 20.6342 32.5374 19.5358C32.4336 18.4374 32.2373 17.0418 32.1012 16.4344C31.8165 15.1626 32.1123 15.3668 32.6684 16.8255C33.1074 17.9773 33.6361 18.5453 34.7136 19.0237C35.3678 19.3141 35.5849 19.2796 36.2114 18.7869C36.6143 18.47 36.9441 18.1002 36.9441 17.9653C36.9441 17.5567 35.8012 17.3276 35.4046 17.6569C35.0163 17.979 34.5932 17.6186 33.9122 16.3862C33.5205 15.6775 33.1534 13.2417 33.1186 11.1197C33.0934 9.59847 33.1166 9.54969 33.8771 9.52173C34.3088 9.50604 34.6617 9.60218 34.6617 9.7357C34.6617 9.86922 34.8223 9.98191 35.0183 9.98619C35.2146 9.99047 35.6679 10.4718 36.026 11.056C36.7726 12.2748 38.1152 15.1138 37.9446 15.1138C37.8818 15.1138 38.1446 15.9799 38.5283 17.0384C38.9123 18.0968 39.2264 19.2462 39.2264 19.5926C39.2264 19.9389 39.3411 20.5172 39.4812 20.8776C39.7245 21.5026 40.3613 25.139 40.5453 26.9534C41.1259 32.6796 41.4788 43.1969 41.1299 44.3855C41.0423 44.6833 40.8891 45.633 40.7892 46.4961C40.5636 48.4472 39.7268 50.1798 38.3951 51.4547C35.1849 54.5276 32.6595 57.2522 32.1577 58.1837C31.8912 58.6778 31.8618 59.0598 32.0584 59.4675C32.2125 59.7865 32.4227 60.5565 32.526 61.1787C32.7448 62.4985 33.3471 63.7789 34.1741 64.6835C34.4971 65.0364 34.6745 65.3254 34.5687 65.3254C34.4629 65.3254 34.6009 65.5628 34.8757 65.8532C35.1501 66.1434 35.5872 66.6249 35.8465 66.9231C36.1059 67.2212 36.7928 67.8503 37.3731 68.321C37.9534 68.7917 38.6307 69.3695 38.8781 69.6048C39.1257 69.8402 39.4016 70.0442 39.4914 70.0582C39.581 70.0721 39.9576 70.2085 40.3282 70.3614C41.0006 70.639 40.9992 70.6422 39.7836 71.8338C39.1134 72.4909 38.4036 73.0284 38.2062 73.0284C38.0091 73.0284 37.8048 73.1265 37.7523 73.2466C37.647 73.4888 33.771 75.3096 33.3551 75.3124C33.2107 75.3136 32.7074 75.5175 32.2367 75.766C31.766 76.0145 31.1241 76.2716 30.8102 76.3372C30.1358 76.4784 29.3661 76.6473 28.3852 76.8695C25.8299 77.4484 21.4663 77.8992 17.4471 77.9993C14.8287 78.0647 14.3288 78.0064 14.187 77.6207C14.0949 77.3702 13.7197 76.6838 13.3534 76.0953C12.9868 75.507 12.756 75.0254 12.8405 75.0254C12.9249 75.0254 12.7982 74.6465 12.5589 74.1838C12.3195 73.7208 12.1221 72.9824 12.1204 72.5434C12.1152 71.1768 10.8023 67.3225 10.3421 67.3225C10.2235 67.3225 10.1265 67.0657 10.1265 66.7519C10.1265 66.4381 10.022 66.1813 9.89452 66.1813C9.7667 66.1813 9.48826 65.7377 9.27571 65.1956C9.06288 64.6536 8.79699 64.267 8.68487 64.3363C8.57275 64.4056 8.32825 64.0935 8.14139 63.6425C7.95452 63.1917 7.41103 62.4231 6.93317 61.9344C6.45559 61.4457 6.16059 61.046 6.27785 61.046C6.3951 61.046 5.85504 60.4298 5.07762 59.6766C4.30048 58.9234 3.41721 57.8647 3.11537 57.3238C2.81324 56.7829 2.39672 56.2066 2.18931 56.0431C1.98218 55.8799 1.83697 55.6229 1.86664 55.472C1.89631 55.321 1.88518 55.0691 1.84182 54.9122C1.79845 54.7553 1.72542 54.2418 1.67949 53.771C1.48748 51.8002 1.52885 50.7589 1.83611 49.828C2.18246 48.7784 4.57408 46.3797 5.81539 45.8365C7.08209 45.2824 7.46809 44.6431 7.3885 43.2314C7.34827 42.5208 7.43443 41.8655 7.57993 41.7756C7.72514 41.686 7.84411 41.3539 7.84411 41.0384C7.84411 40.7226 8.03383 40.2744 8.26577 40.0424C8.49743 39.8108 8.8512 39.3871 9.05119 39.1012C9.25146 38.8157 9.96013 38.4896 10.6263 38.3772C11.7643 38.1849 11.8996 38.2368 12.8698 39.2359C14.033 40.4336 14.9085 42.2147 15.2141 44.0054C15.347 44.7846 15.569 45.2122 15.8403 45.2122C16.9056 45.2122 16.1265 41.6281 14.5534 39.2921C13.4755 37.6913 12.2741 36.8357 11.2494 36.9387C10.8671 36.9772 10.2885 37.0249 9.96384 37.0448C9.08942 37.0988 7.05784 38.9635 6.39653 40.3192C5.89299 41.3508 5.65391 42.8754 5.85248 43.7858C5.99826 44.4548 5.7977 44.7458 4.99745 45.0248C4.00634 45.37 3.6503 45.6387 1.98104 47.3C0.194249 49.078 -0.332688 51.0285 0.19482 53.9137C0.352302 54.7767 0.561707 55.6112 0.659848 55.7681C0.757989 55.925 0.865545 56.2331 0.898639 56.4528C0.932018 56.6725 1.06411 56.9292 1.19249 57.0234C1.32087 57.1175 1.61815 57.5797 1.85352 58.0504C2.0886 58.5212 2.40927 59.0758 2.56618 59.2829C3.09083 59.9759 5.1264 61.9438 5.77573 62.3861C6.12893 62.6266 6.41764 62.9837 6.41764 63.1797C6.41764 63.3755 6.756 63.8744 7.16968 64.2881C7.58335 64.7018 7.80816 65.0421 7.66894 65.0444C7.53 65.047 7.54455 65.1431 7.70175 65.2584C8.0518 65.5154 9.27058 67.9741 9.27058 68.4237C9.27058 68.6026 9.41265 68.749 9.5864 68.749C9.76014 68.749 9.83146 68.9333 9.74502 69.1583C9.65858 69.3837 9.69481 69.6083 9.82547 69.6576C9.95585 69.707 10.1479 70.4881 10.2517 71.3931C10.3558 72.2983 10.6274 73.5676 10.8554 74.2138C11.2345 75.2885 11.2271 75.4211 10.7695 75.7686C10.4942 75.9774 10.1233 76.1526 9.9453 76.1575C9.46315 76.1712 8.6475 77.5272 8.99299 77.7405C9.15075 77.8381 9.21238 78.027 9.12993 78.1605C9.04719 78.294 9.39468 78.728 9.90193 79.1248C10.5675 79.6457 10.8845 79.7513 11.0414 79.5042C11.1903 79.27 11.2602 79.2632 11.2634 79.4831C11.2745 80.3036 19.5252 80.1136 25.675 79.1513C25.9888 79.102 26.2455 79.0432 26.2455 79.0204C26.2455 78.9976 26.7457 78.9182 27.357 78.8443C27.9684 78.7702 28.7065 78.5825 28.9975 78.4267C29.2885 78.2709 29.5264 78.2281 29.5264 78.3311C29.5264 78.4344 29.6868 78.3862 29.883 78.2241C30.0793 78.0621 30.7532 77.8395 31.3808 77.7297C32.0085 77.6199 32.9465 77.2872 33.4655 76.9908C33.9844 76.6944 34.5382 76.4519 34.6959 76.4519C35.1652 76.4519 38.1831 74.9241 38.7811 74.3841C39.0852 74.1091 39.4812 73.8842 39.6609 73.8842C40.2007 73.8842 41.4922 72.2458 42.5458 70.2245L43.5369 68.323L42.8958 67.8038C42.5144 67.4951 42.0169 67.3502 41.6677 67.4463C39.3043 68.0976 39.0783 68.0429 37.4653 66.4275C34.8586 63.8174 33.8834 62.1581 33.6346 59.9097C33.555 59.1916 34.5048 57.3372 34.9521 57.3372C35.0862 57.3372 35.4845 56.8237 35.8371 56.196C36.19 55.5684 36.5832 55.0549 36.7113 55.0549C36.8394 55.0549 36.9441 54.8623 36.9441 54.6269C36.9441 54.3916 37.1169 54.199 37.3283 54.199C37.7691 54.199 39.322 52.7414 40.3676 51.346C40.7599 50.8225 41.2876 50.1912 41.5401 49.943C41.9455 49.5447 42.6351 47.1713 43.0801 44.6417C43.3358 43.1886 43.16 35.6187 42.7817 31.8034C42.4813 28.7716 42.5167 27.7431 42.9392 27.2339C43.4239 26.6499 45.5465 21.6718 45.9784 20.1064C46.2943 18.9612 46.5602 16.3793 46.4341 15.6844C46.3627 15.2921 46.278 14.8168 46.2455 14.6282C46.1382 14.0031 45.1947 13.1789 44.4159 13.03C43.2858 12.814 42.0226 13.4593 40.9673 14.7917C39.9864 16.0298 39.5117 16.2686 39.5117 15.5229C39.5117 14.8613 37.6761 11.066 37.0371 10.4064C36.7329 10.0926 36.4465 9.70745 36.4003 9.55054C36.3541 9.39363 36.2009 9.29749 36.0596 9.33657C35.9184 9.37594 35.8029 9.28436 35.8029 9.13373C35.8029 8.90635 33.2193 7.95975 32.684 7.99084C32.595 7.99626 32.2387 8.23705 31.8924 8.52605ZM32.0102 14.6145C31.942 14.9674 31.8864 14.6787 31.8864 13.9726C31.8864 13.2665 31.942 12.9778 32.0102 13.3307C32.0781 13.6836 32.0781 14.2616 32.0102 14.6145ZM44.6678 14.7278C44.9885 15.0014 45.0903 15.4986 45.0247 16.4675C44.9394 17.7251 44.7819 18.7655 44.6253 19.1079C44.5893 19.1863 44.5354 19.3789 44.5055 19.5358C44.4236 19.9623 43.8296 21.4561 42.8071 23.8061C42.3592 24.8354 42.2865 24.8882 42.0066 24.3881C41.8371 24.0857 41.6662 23.512 41.6266 23.1134C41.5039 21.8815 41.2346 20.4684 40.9484 19.5546C40.2221 17.2361 40.1265 16.8255 40.3111 16.8238C40.4206 16.8227 41.2021 16.1845 42.048 15.4051C43.5586 14.0131 43.7674 13.9592 44.6678 14.7278ZM16.1176 34.2196C16.1176 34.3714 15.9482 34.4307 15.7408 34.3511C15.3085 34.1854 13.7622 35.4946 13.2924 36.4243C13.0345 36.9344 13.0664 37.1016 13.4638 37.3242C13.8435 37.5367 14.2253 37.3572 15.1782 36.5185C16.5978 35.2689 17.5218 35.1996 18.9255 36.2372C20.7017 37.5507 22.2392 40.8587 22.569 44.0773C22.7216 45.5694 22.8537 45.9255 23.2537 45.9255C23.5992 45.9255 23.7552 45.6878 23.7692 45.1409C23.8217 43.0982 22.5921 38.4573 21.7522 37.5267C21.4774 37.2226 21.2529 36.8286 21.2529 36.6511C21.2529 36.2078 19.8946 35.0441 18.6861 34.4521C17.5912 33.9158 16.1176 33.7822 16.1176 34.2196ZM27.2997 54.0735C26.793 54.2866 26.3485 54.4572 26.312 54.4526C26.1776 54.4358 24.509 55.0817 23.6779 55.4722C22.0298 56.2465 21.8161 56.3067 19.5799 56.6208C18.5047 56.772 17.1578 57.3754 16.6882 57.9164C16.6098 58.0065 16.0523 58.3805 15.4495 58.7468C14.6515 59.2321 13.7999 59.4447 12.3204 59.5286C10.1062 59.6541 9.49767 60.0598 10.4431 60.7799C11.527 61.6058 15.547 61.3111 15.547 60.4058C15.547 60.2349 15.6249 60.173 15.7202 60.268C15.892 60.4401 16.1293 60.284 17.3569 59.1916C18.0482 58.5765 18.1737 58.5292 20.1117 58.1569C21.7322 57.8453 25.7991 56.2631 26.4595 55.6871C26.7343 55.4477 26.9588 55.3516 26.9588 55.4734C26.9588 55.5955 27.1322 55.5513 27.3442 55.3755C27.5562 55.1995 28.3584 54.9736 29.1273 54.8731C30.5104 54.6925 31.2382 54.3536 31.2382 53.8894C31.2382 53.5097 28.3159 53.6461 27.2997 54.0735Z" fill="black"/>
</svg>
