<svg width="154" height="154" viewBox="0 0 154 154" fill="none" xmlns="http://www.w3.org/2000/svg">
<path d="M66.6705 92.6324C66.0065 92.6293 65.3586 92.4283 64.8096 92.0549L27.3363 65.3616C26.2613 66.9546 25.6809 68.8298 25.668 70.7516V109.252C25.668 111.804 26.682 114.252 28.4871 116.057C30.2921 117.863 32.7403 118.877 35.293 118.877H99.4596C102.012 118.877 104.46 117.863 106.266 116.057C108.071 114.252 109.085 111.804 109.085 109.252V70.7516C109.055 68.5227 108.262 66.3714 106.839 64.6558L68.3388 92.0549C67.8476 92.3996 67.2696 92.5997 66.6705 92.6324Z" fill="#FB4407"/>
<path d="M98.3688 62.7949C98.5416 62.6919 98.6749 62.5337 98.7471 62.3459C98.8194 62.1581 98.8265 61.9515 98.7673 61.7591C98.7081 61.5668 98.5861 61.3999 98.4208 61.2852C98.2554 61.1705 98.0563 61.1146 97.8555 61.1266H35.293C35.0921 61.1146 34.893 61.1705 34.7277 61.2852C34.5623 61.3999 34.4403 61.5668 34.3811 61.7591C34.3219 61.9515 34.329 62.1581 34.4013 62.3459C34.4736 62.5337 34.6068 62.6919 34.7796 62.7949L66.1571 85.1249C66.3108 85.2218 66.4888 85.2732 66.6705 85.2732C66.8521 85.2732 67.0301 85.2218 67.1838 85.1249L98.3688 62.7949Z" fill="#FB4407"/>
<path d="M112.294 39.6333L109.021 42.8416C108.422 43.4379 108.077 44.2426 108.059 45.0874C108.074 45.9518 108.418 46.7778 109.021 47.3974L112.294 50.6058C112.592 50.9065 112.947 51.1452 113.338 51.3081C113.729 51.4709 114.148 51.5548 114.572 51.5548C114.995 51.5548 115.414 51.4709 115.805 51.3081C116.196 51.1452 116.551 50.9065 116.849 50.6058C117.419 49.9959 117.74 49.1946 117.748 48.36H125.769C126.62 48.36 127.436 48.0219 128.037 47.4202C128.639 46.8186 128.977 46.0025 128.977 45.1516C128.961 44.3059 128.617 43.4993 128.019 42.9012C127.421 42.303 126.614 41.9597 125.769 41.9433H117.94C117.99 41.268 117.825 40.5944 117.468 40.0188C117.111 39.4433 116.582 38.9952 115.955 38.7389C115.329 38.4825 114.637 38.431 113.979 38.5916C113.322 38.7523 112.731 39.1169 112.294 39.6333Z" fill="#3E84F8"/>
<path d="M125.127 63.375L128.399 60.1666C128.928 59.5408 129.203 58.7394 129.169 57.9208C129.154 57.0564 128.81 56.2305 128.207 55.6108L125.127 52.4024C124.829 52.1017 124.474 51.8631 124.083 51.7002C123.692 51.5373 123.273 51.4534 122.849 51.4534C122.425 51.4534 122.006 51.5373 121.615 51.7002C121.224 51.8631 120.869 52.1017 120.571 52.4024C120.001 53.0124 119.681 53.8137 119.673 54.6483H111.459C110.609 54.6483 109.792 54.9863 109.191 55.588C108.589 56.1897 108.251 57.0057 108.251 57.8566C108.268 58.7024 108.611 59.5089 109.209 60.1071C109.807 60.7052 110.614 61.0485 111.459 61.0649H119.48C119.489 61.6929 119.682 62.3045 120.035 62.8238C120.388 63.3432 120.886 63.7474 121.467 63.9866C122.047 64.2257 122.686 64.2891 123.302 64.169C123.918 64.0489 124.486 63.7505 124.934 63.3108L125.127 63.375Z" fill="#3E84F8"/>
</svg>
