<svg width="92" height="92" viewBox="0 0 92 92" fill="none" xmlns="http://www.w3.org/2000/svg">
<path d="M7.25 11.5C6.42157 11.5 5.75 12.1716 5.75 13V33C5.75 33.8284 6.42157 34.5 7.25 34.5H84.75C85.5784 34.5 86.25 33.8284 86.25 33V13C86.25 12.1716 85.5784 11.5 84.75 11.5H7.25ZM20.125 31.625C18.9878 31.625 17.8761 31.2878 16.9305 30.656C15.9849 30.0241 15.2479 29.1261 14.8127 28.0754C14.3775 27.0248 14.2636 25.8686 14.4855 24.7532C14.7073 23.6378 15.255 22.6133 16.0591 21.8091C16.8633 21.005 17.8878 20.4573 19.0032 20.2355C20.1186 20.0136 21.2748 20.1275 22.3254 20.5627C23.3761 20.9979 24.2741 21.7349 24.906 22.6805C25.5378 23.6261 25.875 24.7378 25.875 25.875C25.875 27.4 25.2692 28.8625 24.1909 29.9409C23.1125 31.0192 21.65 31.625 20.125 31.625ZM34.5 31.625C33.3628 31.625 32.2511 31.2878 31.3055 30.656C30.3599 30.0241 29.6229 29.1261 29.1877 28.0754C28.7525 27.0248 28.6386 25.8686 28.8605 24.7532C29.0823 23.6378 29.63 22.6133 30.4341 21.8091C31.2383 21.005 32.2628 20.4573 33.3782 20.2355C34.4936 20.0136 35.6498 20.1275 36.7004 20.5627C37.7511 20.9979 38.6491 21.7349 39.2809 22.6805C39.9128 23.6261 40.25 24.7378 40.25 25.875C40.25 27.4 39.6442 28.8625 38.5659 29.9409C37.4875 31.0192 36.025 31.625 34.5 31.625Z" fill="#F74846"/>
<path d="M5.75 79C5.75 79.8284 6.42157 80.5 7.25 80.5H84.75C85.5784 80.5 86.25 79.8284 86.25 79V41.75C86.25 40.9216 85.5784 40.25 84.75 40.25H7.25C6.42157 40.25 5.75 40.9216 5.75 41.75V79ZM37.375 56.125C37.375 55.2966 38.0466 54.625 38.875 54.625H53.125C53.9534 54.625 54.625 55.2966 54.625 56.125V58.875C54.625 59.7034 53.9534 60.375 53.125 60.375H38.875C38.0466 60.375 37.375 59.7034 37.375 58.875V56.125Z" fill="#3E84F8"/>
</svg>
