<svg width="108" height="108" viewBox="0 0 108 108" fill="none" xmlns="http://www.w3.org/2000/svg">
<path fill-rule="evenodd" clip-rule="evenodd" d="M22.5 68.9453H54V73.4453H22.5V68.9453ZM77.13 68.9453H81.63V73.4453H77.13V68.9453Z" fill="#F7D046"/>
<path d="M92.25 55.4453H11.25C10.6533 55.4453 10.081 55.6824 9.65901 56.1043C9.23705 56.5263 9 57.0986 9 57.6953V84.6953C9 85.292 9.23705 85.8643 9.65901 86.2863C10.081 86.7083 10.6533 86.9453 11.25 86.9453H92.25C92.8467 86.9453 93.419 86.7083 93.841 86.2863C94.2629 85.8643 94.5 85.292 94.5 84.6953V57.6953C94.5 57.0986 94.2629 56.5263 93.841 56.1043C93.419 55.6824 92.8467 55.4453 92.25 55.4453ZM58.5 75.6953C58.5 76.292 58.2629 76.8643 57.841 77.2863C57.419 77.7083 56.8467 77.9453 56.25 77.9453H20.25C19.6533 77.9453 19.081 77.7083 18.659 77.2863C18.2371 76.8643 18 76.292 18 75.6953V66.6953C18 66.0986 18.2371 65.5263 18.659 65.1043C19.081 64.6824 19.6533 64.4453 20.25 64.4453H56.25C56.8467 64.4453 57.419 64.6824 57.841 65.1043C58.2629 65.5263 58.5 66.0986 58.5 66.6953V75.6953ZM86.13 75.6953C86.13 76.292 85.8929 76.8643 85.471 77.2863C85.049 77.7083 84.4767 77.9453 83.88 77.9453H74.88C74.2869 77.9338 73.7212 77.693 73.3018 77.2736C72.8823 76.8541 72.6415 76.2884 72.63 75.6953V66.6953C72.63 66.0986 72.8671 65.5263 73.289 65.1043C73.711 64.6824 74.2833 64.4453 74.88 64.4453H83.88C84.4767 64.4453 85.049 64.6824 85.471 65.1043C85.8929 65.5263 86.13 66.0986 86.13 66.6953V75.6953Z" fill="#3E84F8"/>
<path d="M69.7514 41.4467C69.4596 41.4561 69.169 41.4049 68.8979 41.2965C68.6269 41.1881 68.3812 41.0247 68.1763 40.8167C63.7805 36.5834 57.9456 34.1702 51.8438 34.0617C45.7419 33.9531 39.825 36.1574 35.2814 40.2317C34.8457 40.6434 34.2644 40.8653 33.6652 40.8484C33.066 40.8315 32.4981 40.5773 32.0864 40.1417C31.6746 39.7061 31.4528 39.1247 31.4696 38.5255C31.4865 37.9264 31.7407 37.3584 32.1764 36.9467C37.5725 32.1007 44.6006 29.4728 51.8525 29.5897C59.1043 29.7065 66.0441 32.5594 71.2814 37.5767C71.6024 37.8861 71.8244 38.2839 71.9189 38.7197C72.0135 39.1554 71.9765 39.6095 71.8125 40.0241C71.6486 40.4388 71.3652 40.7954 70.9982 41.0487C70.6312 41.302 70.1972 41.4405 69.7514 41.4467Z" fill="#F7D046"/>
<path fill-rule="evenodd" clip-rule="evenodd" d="M72.7206 29.7031C73.1295 30.1037 73.6781 30.3296 74.2506 30.3331C74.5277 30.3328 74.8019 30.2769 75.057 30.1687C75.312 30.0605 75.5428 29.9021 75.7356 29.7031C75.9451 29.4978 76.1116 29.2527 76.2252 28.9823C76.3389 28.7118 76.3974 28.4214 76.3974 28.1281C76.3974 27.8347 76.3389 27.5443 76.2252 27.2739C76.1116 27.0034 75.9451 26.7584 75.7356 26.5531C69.2971 20.372 60.7575 16.8573 51.8334 16.7154C42.9094 16.5735 34.2624 19.8149 27.6306 25.7881C27.421 25.9934 27.2546 26.2384 27.1409 26.5089C27.0273 26.7793 26.9688 27.0697 26.9688 27.3631C26.9688 27.6564 27.0273 27.9468 27.1409 28.2173C27.2546 28.4877 27.421 28.7328 27.6306 28.9381C27.8397 29.149 28.0886 29.3163 28.3628 29.4306C28.637 29.5448 28.931 29.6036 29.2281 29.6036C29.5251 29.6036 29.8192 29.5448 30.0934 29.4306C30.3676 29.3163 30.6164 29.149 30.8256 28.9381C36.6199 23.7624 44.155 20.9656 51.923 21.1075C59.6911 21.2493 67.119 24.3193 72.7206 29.7031ZM63.9905 51.9781C64.4227 52.3652 64.9854 52.5742 65.5655 52.5631C66.0114 52.5569 66.4453 52.4184 66.8123 52.1651C67.1793 51.9118 67.4628 51.5552 67.6267 51.1405C67.7907 50.7259 67.8277 50.2718 67.7331 49.8361C67.6385 49.4003 67.4166 49.0025 67.0955 48.6931C63.0588 44.836 57.7139 42.6465 52.1313 42.563C46.5487 42.4796 41.1407 44.5084 36.9905 48.2431C36.7518 48.4401 36.5562 48.6842 36.4162 48.9603C36.2761 49.2363 36.1944 49.5382 36.1764 49.8472C36.1583 50.1562 36.2042 50.4657 36.3112 50.7561C36.4182 51.0466 36.5839 51.3119 36.7981 51.5353C37.0122 51.7588 37.2702 51.9357 37.5559 52.0549C37.8415 52.1742 38.1487 52.2332 38.4582 52.2283C38.7677 52.2234 39.0728 52.1546 39.3546 52.0264C39.6363 51.8982 39.8885 51.7132 40.0955 51.4831C43.4044 48.532 47.7076 46.9427 52.1403 47.0345C56.573 47.1264 60.8067 48.8925 63.9905 51.9781Z" fill="#3E84F8"/>
</svg>
