<svg width="52" height="78" viewBox="0 0 52 78" fill="none" xmlns="http://www.w3.org/2000/svg">
<path fill-rule="evenodd" clip-rule="evenodd" d="M25.831 0.0857816C25.7087 0.207417 18.4785 0.47548 15.786 0.458177C13.9856 0.446556 12.1514 0.908822 12.1514 1.37419C12.1514 1.56865 12.0536 1.72799 11.9339 1.72799C11.8142 1.72799 11.7018 2.97714 11.6844 4.50417C11.6667 6.0312 11.6003 8.733 11.5362 10.5085C11.4723 12.2839 11.3833 16.7 11.3381 20.3219C11.2815 24.8527 11.1623 27.0041 10.9557 27.2177C10.7906 27.3887 10.6023 27.4754 10.5374 27.4109C10.4725 27.3461 9.40604 28.261 8.16795 29.4438C6.9296 30.6269 5.99525 31.673 6.09157 31.7688C6.18814 31.8646 6.13336 31.9431 5.97007 31.9431C5.60349 31.9431 4.67616 33.8059 4.50403 34.8882C4.4342 35.328 4.3101 36.2688 4.22833 36.979C4.14655 37.6892 3.96118 38.7157 3.81606 39.2604C3.6712 39.8048 3.50193 41.4317 3.43988 42.8759C3.30618 45.9929 3.14185 47.4812 2.78566 48.7998C2.64105 49.3357 2.59614 49.8928 2.68623 50.0379C2.77631 50.1828 2.74516 50.4415 2.61691 50.613C2.48866 50.7842 2.39338 51.1569 2.40559 51.441C2.41753 51.725 2.32718 52.248 2.20439 52.6031C1.76278 53.8822 1.53874 60.0993 1.83262 62.9132C2.28149 67.2081 4.20236 71.2885 5.42254 70.5385C5.7764 70.3208 5.51289 68.7654 4.98639 67.9661C4.77896 67.6513 4.36255 66.5351 4.06088 65.4861C3.58527 63.8312 3.51283 62.8948 3.51257 58.4137C3.51257 55.573 3.58838 52.9001 3.68132 52.474C3.77426 52.0478 3.97572 50.8294 4.12889 49.7665C4.28207 48.7033 4.46639 47.739 4.53804 47.6235C4.60996 47.5078 4.72107 45.5304 4.78494 43.2292C4.84906 40.9279 4.94771 38.8126 5.00431 38.5285C5.0609 38.2444 5.22835 37.4046 5.37633 36.6621C5.72266 34.9251 7.44207 31.9109 8.86189 30.5522C10.3923 29.0874 11.3329 28.3277 11.6156 28.3277C11.7472 28.3277 12.0123 28.1825 12.2049 28.0048C12.8662 27.3951 14.2076 26.5199 14.481 26.5199C14.6315 26.5199 14.9576 26.4042 15.2055 26.2627C16.3844 25.5902 19.437 25.0247 21.6564 25.068C22.9254 25.0926 24.11 25.2039 24.2883 25.3152C24.745 25.5998 24.6926 26.5057 24.2086 26.6904C23.9862 26.7753 23.8641 27.0005 23.9376 27.1908C24.1263 27.68 21.8441 29.8862 20.3809 30.6297C19.7059 30.9726 19.0242 31.4086 18.8661 31.5981C18.7077 31.7879 18.4743 31.9431 18.3476 31.9431C17.9572 31.9431 15.6676 33.0601 15.4654 33.3491C15.3605 33.4991 15.273 33.5298 15.2707 33.4178C15.2686 33.3054 14.9467 33.5087 14.5555 33.8697C14.1642 34.2305 13.7683 34.5256 13.6756 34.5256C13.4129 34.5256 11.4736 36.3207 11.7288 36.3274C11.8534 36.3308 11.8155 36.501 11.6447 36.7058C11.2355 37.1965 10.391 39.9894 10.5283 40.399C10.6065 40.6322 10.7711 40.6474 11.133 40.4548C11.6159 40.1976 11.626 40.305 11.4814 44.1369C11.3996 46.3077 11.3417 48.258 11.3526 48.4711C11.3638 48.6842 11.4058 49.7017 11.4461 50.7321C11.5268 52.8004 12.0131 53.609 13.2943 53.8045C13.6645 53.8608 14.2888 53.9674 14.6819 54.0415C15.0749 54.1154 19.2303 54.2171 23.9158 54.2672C28.6013 54.3173 32.4861 54.409 32.5484 54.4713C32.6795 54.6014 28.3998 56.7485 27.7633 56.8717C27.5299 56.9169 27.3388 56.9776 27.3388 57.0065C27.3388 57.1782 25.6586 57.2826 23.0155 57.2746C20.5494 57.2671 19.9622 57.3376 19.8394 57.6557C19.6423 58.1671 20.4128 58.4421 22.2504 58.516C23.0435 58.548 23.7442 58.6255 23.8073 58.6882C23.8704 58.7512 23.6692 59.3542 23.36 60.0285C22.6453 61.5868 22.3251 63.7328 22.41 66.3923C22.4804 68.5908 22.5217 68.8397 23.2045 71.1681C23.4384 71.9653 23.678 72.9079 23.7372 73.263C23.8395 73.8774 24.1359 74.6576 24.6453 75.6518C24.9387 76.2241 24.5202 76.2344 22.4061 75.7071C21.5494 75.4935 20.5564 75.2595 20.1994 75.1875C19.8425 75.1154 18.9663 74.8427 18.2523 74.5811C17.5384 74.3198 16.1365 73.8405 15.137 73.5161C14.1375 73.1917 13.0861 72.8044 12.8005 72.6551C12.1925 72.3377 12.1252 72.3176 10.5938 71.9966C9.95123 71.8618 9.08101 71.6208 8.65991 71.4612C8.23882 71.3014 6.7785 71.103 5.41476 71.0201C2.89288 70.8667 1.60572 70.4613 1.32404 69.7312C1.23343 69.4962 1.34377 69.2271 1.58625 69.0923C2.2615 68.7163 1.84638 68.1215 1.0556 68.332C-0.503635 68.7468 -0.309704 70.1607 1.46657 71.33C2.29836 71.8775 2.88275 72.0232 4.65721 72.1247C6.73073 72.2432 7.62588 72.4542 10.8534 73.5853C11.6387 73.8606 12.5063 74.1305 12.7815 74.185C13.0565 74.2395 13.3485 74.3737 13.4306 74.4838C13.5123 74.5935 13.8714 74.7237 14.2283 74.7733C14.5853 74.8226 15.0259 74.984 15.2073 75.132C15.3888 75.2802 15.8138 75.4315 16.1516 75.4682C16.4896 75.5051 17.1589 75.7089 17.6389 75.9212C19.1433 76.5857 19.5055 76.7039 20.8485 76.9707C20.9913 76.9989 21.2348 77.1011 21.3895 77.1974C21.5442 77.2938 22.07 77.442 22.5578 77.527C23.0456 77.6119 23.8828 77.779 24.4181 77.8981C24.9537 78.0174 25.3917 78.0344 25.3917 77.936C25.3917 77.8374 25.7876 77.803 26.2713 77.8591C27.3354 77.9828 28.4479 77.332 28.6688 76.4568C28.8453 75.7564 27.7069 74.0378 27.0659 74.0378C26.859 74.0378 26.6898 73.9216 26.6898 73.7795C26.6898 73.6375 26.4854 73.5177 26.2354 73.513C25.725 73.5037 25.0215 73.0074 24.9652 72.6164C24.9446 72.4748 24.6718 71.4295 24.3587 70.2932C23.6635 67.769 23.6577 63.5906 24.3473 61.7867C24.4862 61.4231 24.5303 61.1253 24.4449 61.1253C24.3595 61.1253 24.435 60.951 24.6129 60.7379C24.7907 60.5249 24.8429 60.3506 24.7292 60.3506C24.3535 60.3506 25.7222 59.0715 26.2765 58.9046C27.4785 58.5431 31.6447 56.3567 32.8278 55.4668L34.0887 54.5185L37.5935 54.5635C41.3516 54.6117 42.9965 54.2337 43.4896 53.2084C43.6155 52.9466 43.6547 51.5518 43.5765 50.1092C43.4986 48.6663 43.5062 47.5303 43.5937 47.5843C43.7551 47.6845 45.1809 46.3457 47.0847 44.3058C47.6641 43.685 48.9357 42.0216 49.9103 40.6097C51.6575 38.0784 51.6827 38.0179 51.6993 36.3081C51.7099 35.2338 51.5866 34.4185 51.3758 34.1656C51.1728 33.9224 51.1154 33.5735 51.2333 33.3023C51.6074 32.4429 51.7709 31.6165 51.9716 29.5763C52.0588 28.6892 51.9511 28.1141 51.5627 27.3931C51.2727 26.8549 50.9986 25.9585 50.9537 25.4012C50.6816 22.0318 50.4778 20.3749 50.2652 19.8054C49.9568 18.9798 48.8493 18.023 47.9941 17.8435C47.6283 17.7666 47.0675 17.5987 46.748 17.4703C46.4284 17.3417 45.9611 17.3115 45.7095 17.4027C45.3061 17.5491 45.3133 17.4951 45.7713 16.944C46.0569 16.6003 46.5532 16.0417 46.8746 15.7029C47.196 15.3638 47.4588 14.9405 47.4588 14.7621C47.4588 14.5834 47.634 14.3706 47.8482 14.2887C48.0624 14.2071 48.2376 14.0026 48.2376 13.8342C48.2376 13.6658 48.5341 12.9048 48.8965 12.1429C49.7893 10.2654 49.9664 7.83791 49.2618 7.13702C48.6481 6.52652 46.8248 6.45963 45.5244 7.00015C45.041 7.20106 44.5942 7.31444 44.5314 7.2522C44.4688 7.1897 44.2697 7.31599 44.089 7.5324C43.9083 7.74881 43.6386 7.92597 43.4896 7.92597C43.3405 7.92597 43.2889 7.85598 43.3748 7.77025C43.461 7.68476 43.4249 7.33613 43.2948 6.9955C43.1453 6.60451 43.1515 6.37647 43.3115 6.37647C43.6225 6.37647 43.6505 4.91039 43.3431 4.72135C43.2211 4.64646 43.1593 3.9714 43.2055 3.22119C43.3151 1.44236 43.21 1.16346 42.2019 0.557861C41.4184 0.0873311 40.8062 0.047819 33.6557 0.00753212C29.4193 -0.0164851 25.8982 0.0188951 25.831 0.0857816ZM16.8245 4.19995C16.8245 4.60024 15.9382 5.15031 15.6902 4.90394C15.4062 4.62141 15.5124 3.84176 15.8509 3.72451C16.3302 3.5582 16.8245 3.79966 16.8245 4.19995ZM41.1715 7.91874L42.2829 7.92597L42.2099 13.0747L42.1367 18.2234L40.8386 18.9137C39.4048 19.6763 37.6799 21.3531 37.296 22.3582C36.8536 23.5152 38.4614 25.4869 39.8469 25.4869C41.2172 25.4869 43.5934 23.1823 43.415 22.0264C43.291 21.2206 42.2323 20.7834 41.8592 21.3839C41.7611 21.5416 41.8418 21.7712 42.0386 21.8939C42.6554 22.2782 41.7473 23.4759 40.2761 24.2181C38.9772 24.8733 38.952 24.8759 38.9733 24.3473C38.985 24.0508 38.9071 23.5529 38.7999 23.2404C38.6444 22.7864 38.8085 22.4757 39.6182 21.6909C41.1253 20.23 41.4851 19.9798 43.0248 19.3217C44.4997 18.6913 46.5696 18.546 47.7392 18.9907C49.0349 19.4834 49.4061 20.2587 49.6759 23.0336C49.7449 23.7437 49.8643 24.6009 49.9412 24.9384C50.0583 25.451 50.004 25.521 49.6138 25.3624C48.822 25.0412 46.5787 24.5673 46.0309 24.6055C44.8159 24.6905 43.2941 24.9689 42.8618 25.1853C40.8804 26.1777 40.2493 26.5819 39.0377 27.6335C36.9655 29.4317 36.1254 31.5746 37.0322 32.7502C37.2923 33.0875 37.5805 33.5686 37.6724 33.8193C37.7646 34.0701 38.1348 34.3867 38.4954 34.5231C39.3425 34.8435 39.322 34.9871 38.2721 36.0888C37.155 37.261 36.9247 38.2752 37.4684 39.6271C37.8134 40.485 38.0569 40.7115 38.844 40.9059C39.3895 41.0407 40.1907 41.048 40.7088 40.9227C42.5038 40.4891 42.3862 40.2722 42.3351 43.9195C42.3094 45.7481 42.2247 47.3077 42.1468 47.3849C42.0692 47.4624 39.4064 47.5055 36.2297 47.4812C33.0531 47.4567 28.176 47.4319 25.3917 47.4257C22.6073 47.4195 19.9204 47.412 19.4206 47.4092C17.9714 47.4007 16.8343 47.4216 14.6834 47.497L12.6725 47.5672L12.7291 42.418L12.7857 37.269L13.7016 36.196C14.2055 35.6059 15.2603 34.8007 16.0456 34.4068C16.831 34.0133 17.824 33.5161 18.2523 33.3026C22.0282 31.4192 22.4952 31.1297 23.8784 29.8126C24.1396 29.5642 24.4586 29.3607 24.5874 29.3607C24.7162 29.3607 24.9675 28.9831 25.1456 28.5213C26.1119 26.0187 26.1072 26.0403 25.8037 25.4345C25.6401 25.1083 25.164 24.6781 24.7458 24.4787C23.8195 24.0368 19.6519 23.8509 18.0875 24.1815C15.6297 24.7011 14.5996 25.0192 13.8161 25.5011C13.3664 25.7774 12.9542 26.0034 12.8996 26.0034C12.8451 26.0034 12.8005 22.1392 12.8005 17.4166V8.8301L13.5793 8.76063C14.0077 8.72241 14.8839 8.65268 15.5264 8.60568C16.169 8.55868 17.6293 8.43989 18.7716 8.34201C19.9139 8.24387 21.605 8.10365 22.5295 8.02979C23.4539 7.95618 24.2408 7.86554 24.2782 7.82835C24.3156 7.79116 27.8819 7.79478 32.2032 7.8361C36.5241 7.87742 40.5601 7.91461 41.1715 7.91874ZM47.937 7.83662C48.4661 7.97762 48.5281 8.1194 48.4167 8.93082C48.2316 10.2799 48.1628 10.4886 47.3848 12.058C46.6932 13.4533 46.2661 14.0336 44.466 16.0249L43.5646 17.0223L43.548 15.7667C43.5134 13.1666 43.5077 10.3566 43.5355 9.72777C43.5732 8.88278 45.0166 8.08273 47.1992 7.69768C47.2706 7.68502 47.6026 7.74752 47.937 7.83662ZM48.1418 26.1075C48.4461 26.1496 48.855 26.3177 49.0505 26.4812C49.2459 26.6446 49.6883 26.9928 50.0339 27.2549C50.9719 27.9669 51.0996 29.0384 50.5565 31.641L50.2678 33.0239L48.9282 32.8287C45.5213 32.3326 42.793 32.7814 40.2914 34.2496C39.5216 34.7015 39.4806 34.7028 39.5938 34.2723C39.66 34.0208 40.0255 33.6553 40.4061 33.4601C41.828 32.7311 42.7481 31.6645 43.0103 30.4409C43.3172 29.0105 43.0319 28.3277 42.1276 28.3277C41.4041 28.3277 41.2865 28.77 41.8924 29.2106C42.6835 29.786 41.5863 31.6273 40.0092 32.3718C39.1862 32.7603 39.1327 32.7525 38.6647 32.1774C38.2514 31.6697 38.2215 31.4535 38.4694 30.7596C38.7913 29.8578 40.2296 28.0694 40.6328 28.0694C40.7732 28.0694 41.0897 27.8476 41.3363 27.5764C42.0773 26.7622 45.7947 25.6974 47.0694 25.9347C47.3549 25.9877 47.8375 26.0657 48.1418 26.1075ZM17.4019 26.4672C16.4909 27.1648 16.3753 28.5485 17.1531 29.4467C17.6573 30.0287 17.9463 30.1532 18.5678 30.0559C20.4126 29.7666 21.2449 28.6714 19.4364 28.9126C18.6799 29.0136 18.3113 28.9361 18.0184 28.6143C17.5703 28.1216 17.7209 27.1459 18.278 26.9334C18.729 26.7611 18.7612 26.0014 18.3172 26.0091C18.1389 26.0122 17.7269 26.2185 17.4019 26.4672ZM49.3223 34.1197C50.4825 34.6026 50.6157 35.1602 50.0352 37.1081C49.3968 39.2516 48.154 41.2171 45.9533 43.5644C45.6202 43.9195 45.1846 44.5155 44.9852 44.8889C44.6749 45.4689 43.9896 45.963 43.5747 45.9054C43.5088 45.8961 43.4504 44.4194 43.4449 42.6236L43.4348 39.3588L44.5706 38.8743C45.1955 38.608 46.0091 38.4211 46.3788 38.4593C47.3261 38.5569 47.4845 37.7057 46.5618 37.4754C45.8206 37.2902 43.0069 38.2163 42.3626 38.8573C42.0272 39.1909 42.002 39.1542 42.1533 38.5546C42.3891 37.6208 41.8304 36.3264 41.2688 36.5046C41.0321 36.5798 40.6634 36.6965 40.4492 36.7639C40.1286 36.8651 40.1489 36.9519 40.5637 37.2559C41.2738 37.7757 41.273 38.2674 40.5611 38.9327C40.2228 39.2488 40.0188 39.6248 40.1078 39.7681C40.2 39.9161 40.1403 39.9491 39.9702 39.8443C39.8054 39.743 39.6704 39.773 39.6704 39.9107C39.6704 40.0486 39.5068 40.1377 39.3072 40.1085C38.6631 40.0145 38.1462 39.4133 38.2498 38.8787C38.4422 37.8849 38.6683 37.3664 38.9089 37.3664C39.0421 37.3664 39.1512 37.2202 39.1512 37.0415C39.1512 36.642 42.2704 34.507 43.3945 34.1372C44.7762 33.6825 48.247 33.6721 49.3223 34.1197Z" fill="black"/>
</svg>
