<svg width="94" height="94" viewBox="0 0 94 94" fill="none" xmlns="http://www.w3.org/2000/svg">
  <path
    d="M56.1864 27.9819C56.6536 27.5147 56.5471 26.7305 55.956 26.4353C52.461 24.6897 48.599 23.7859 44.6802 23.805C39.6328 23.805 34.6988 25.3017 30.502 28.1059C26.3053 30.9101 23.0343 34.8957 21.1028 39.5589C19.1712 44.2221 18.6658 49.3533 19.6505 54.3037C20.6352 59.2541 23.0658 63.8013 26.6348 67.3704C30.2038 70.9394 34.7511 73.3699 39.7015 74.3546C44.6519 75.3393 49.7831 74.8339 54.4463 72.9024C59.1094 70.9708 63.0951 67.6999 65.8993 63.5031C68.7034 59.3064 70.2002 54.3724 70.2002 49.325C70.2193 45.4061 69.3155 41.5441 67.5699 38.0491C67.2746 37.458 66.4904 37.3515 66.0232 37.8187L60.4016 43.4404C60.1241 43.7179 60.0374 44.1313 60.1599 44.5042C60.6706 46.0584 60.9277 47.6862 60.9202 49.325C60.9202 52.537 59.9677 55.6768 58.1832 58.3475C56.3988 61.0181 53.8624 63.0996 50.8949 64.3288C47.9275 65.558 44.6622 65.8796 41.5119 65.2529C38.3616 64.6263 35.468 63.0796 33.1968 60.8084C30.9256 58.5372 29.3788 55.6435 28.7522 52.4933C28.1256 49.343 28.4472 46.0777 29.6764 43.1102C30.9055 40.1427 32.9871 37.6064 35.6577 35.8219C38.3284 34.0374 41.4682 33.085 44.6802 33.085C46.3189 33.0774 47.9467 33.3346 49.501 33.8453C49.8739 33.9678 50.2873 33.8811 50.5648 33.6036L56.1864 27.9819Z"
    fill="#3E84F8" />
  <path
    d="M45.1685 39.0289C45.6212 38.5627 45.3248 37.8076 44.6773 37.8625C42.3771 37.8627 40.129 38.5467 38.2185 39.8276C36.3079 41.1084 34.8214 42.9284 33.9476 45.0561C33.0739 47.1839 32.8524 49.5233 33.3114 51.7772C33.7704 54.0311 34.8891 56.0977 36.5254 57.7143C38.1616 59.3309 40.2415 60.4246 42.5008 60.8563C44.7601 61.2881 47.0967 61.0384 49.2137 60.139C51.3308 59.2397 53.1326 57.7312 54.3904 55.8054C55.6481 53.8796 56.3049 51.6233 56.2773 49.3233C56.3316 48.6829 55.5821 48.3945 55.1276 48.849L49.7349 54.2417C49.0897 54.914 48.3152 55.4489 47.4581 55.8143C46.6009 56.1797 45.6787 56.3681 44.7469 56.3681C43.8151 56.3681 42.8929 56.1797 42.0357 55.8143C41.1786 55.4489 40.4041 54.914 39.7589 54.2417C38.5379 53.0063 37.8542 51.3387 37.8565 49.6017C37.8274 48.6162 38.0066 47.6357 38.3823 46.7242C38.7581 45.8127 39.3221 44.9907 40.0373 44.3121L45.1685 39.0289Z"
    fill="#FB4407" />
  <path
    d="M70.8646 32.9751C70.5305 33.3076 70.4757 33.8275 70.7196 34.2309C73.4702 38.7786 74.9294 43.9961 74.9319 49.3212C74.9318 55.2823 73.1653 61.1097 69.8554 66.0675C66.5454 71.0252 61.8405 74.891 56.3349 77.1764C50.8293 79.4618 44.7699 80.0645 38.922 78.9083C33.0741 77.752 27.6999 74.8888 23.4783 70.6801C19.2567 66.4714 16.3769 61.1061 15.2027 55.2618C14.0285 49.4174 14.6126 43.3562 16.8811 37.8436C19.1496 32.331 23.0009 27.6143 27.9484 24.2891C32.896 20.9639 38.718 19.1795 44.6791 19.1612C50.0047 19.1637 55.2229 20.6232 59.771 23.3744C60.1736 23.6179 60.6924 23.5638 61.0251 23.2311L69.6925 14.5637C70.1283 14.1279 70.0703 13.4047 69.5607 13.0579C60.7808 7.08326 50.1182 4.48682 39.55 5.77648C28.5923 7.11367 18.5407 12.5305 11.3984 20.9476C4.25606 29.3646 0.547408 40.1638 1.0115 51.193C1.47558 62.2223 6.07834 72.6717 13.9025 80.459C21.7267 88.2462 32.1978 92.7995 43.2291 93.2115C54.2604 93.6234 65.0419 89.8637 73.4251 82.6817C81.8083 75.4996 87.1775 65.4226 88.4629 54.4587C89.7029 43.8817 87.0544 33.2287 81.0349 24.4758C80.6873 23.9703 79.9681 23.9135 79.5333 24.3463L70.8646 32.9751Z"
    fill="#FB4407" />
  <path
    d="M92.7026 10.5778L83.4226 1.29781C83.1482 1.00749 82.8022 0.794591 82.4193 0.680552C82.0365 0.566512 81.6303 0.555355 81.2418 0.648205C80.8642 0.746296 80.5174 0.938029 80.2336 1.20567C79.9497 1.47331 79.7379 1.80822 79.6178 2.1794L74.9778 15.6354L74.0498 16.5634L64.2594 26.493L61.0114 29.741L54.3762 36.3762L51.0818 39.6706L43.0546 47.6978C42.8327 47.9061 42.6558 48.1577 42.5349 48.437C42.4139 48.7163 42.3516 49.0174 42.3516 49.3218C42.3516 49.6262 42.4139 49.9273 42.5349 50.2066C42.6558 50.4859 42.8327 50.7375 43.0546 50.9458C43.2629 51.1677 43.5145 51.3446 43.7938 51.4655C44.0731 51.5865 44.3742 51.6488 44.6786 51.6488C44.983 51.6488 45.2841 51.5865 45.5634 51.4655C45.8427 51.3446 46.0943 51.1677 46.3026 50.9458L54.237 42.965L57.5314 39.6706L64.1666 33.0354L67.4146 29.7874L77.3442 19.8578L78.2722 18.9298L91.7282 14.2898C92.1049 14.1655 92.4435 13.9467 92.7116 13.6543C92.9797 13.3618 93.1683 13.0055 93.2594 12.6194C93.3475 12.2598 93.3426 11.8837 93.2452 11.5265C93.1478 11.1694 92.9611 10.8429 92.7026 10.5778Z"
    fill="#3E84F8" />
</svg>