<svg width="50" height="58" viewBox="0 0 50 58" fill="none" xmlns="http://www.w3.org/2000/svg">
<path fill-rule="evenodd" clip-rule="evenodd" d="M34.8851 0.453949C34.4988 0.698893 33.8616 3.00788 34.082 3.3646C34.249 3.63458 34.9388 3.34565 34.9792 2.98868C34.9911 2.88371 35.1697 2.42274 35.3765 1.96419C35.9364 0.722464 35.6844 -0.0524636 34.8851 0.453949ZM29.5508 2.35105C29.3839 2.4186 29.2471 2.60669 29.2471 2.7695C29.2471 3.87199 30.4601 4.8802 30.7809 4.04452C30.8868 3.76823 30.1255 2.14766 29.9189 2.20938C29.8835 2.21983 29.718 2.28374 29.5508 2.35105ZM38.1622 4.32664C37.6539 4.88846 37.6284 5.59219 38.1166 5.59219C38.5989 5.59219 39.5092 4.66757 39.3874 4.30137C39.23 3.82849 38.6013 3.84137 38.1622 4.32664ZM32.2442 7.11215C31.478 7.55247 30.8817 8.39762 29.8871 10.4522C28.9292 12.4309 28.1708 13.8357 27.8539 14.2187C27.7434 14.3523 27.3281 14.8991 26.9313 15.4334C26.5342 15.968 26.1002 16.5425 25.9666 16.7104C25.5525 17.2302 21.787 20.4152 21.5865 20.4152C21.3554 20.4152 17.8261 24.0058 17.3993 24.675C17.2314 24.9384 17.0195 25.3129 16.9287 25.5077C16.7274 25.9388 16.0128 26.8083 15.0116 27.8401C14.2671 28.6072 12.2283 29.5245 10.7185 29.7714C10.2841 29.8424 9.65517 29.9515 9.32105 30.0139C8.98692 30.0764 8.24893 30.1505 7.6808 30.1787C7.11291 30.2071 6.64805 30.3311 6.64805 30.454C6.64805 30.5772 6.42935 30.6207 6.16205 30.5507C5.89475 30.481 5.67605 30.5155 5.67605 30.6275C5.67605 30.7398 5.45735 30.9009 5.18981 30.9857C4.73248 31.131 3.00961 32.7708 3.00523 33.0655C3.00402 33.1401 3.14836 33.4001 3.32599 33.6429C3.60496 34.0244 3.72937 34.0424 4.23725 33.7756C4.56092 33.6055 4.91303 33.3183 5.01995 33.1372C5.12687 32.9562 5.37934 32.8082 5.58104 32.8082C5.79633 32.8082 5.87604 32.6923 5.77446 32.5275C5.66803 32.3557 5.70764 32.313 5.87652 32.4175C6.02791 32.511 6.34624 32.4838 6.5839 32.3565C6.96346 32.1536 8.23824 31.9341 10.3246 31.7132C11.3367 31.6061 14.4241 30.5753 14.4241 30.3444C14.4241 30.2292 14.5881 30.1352 14.7886 30.1352C14.989 30.1352 15.1531 30.0193 15.1531 29.8779C15.1531 29.7364 15.251 29.681 15.3705 29.7549C15.4903 29.829 15.6507 29.726 15.7275 29.5262C15.804 29.3265 16.007 29.1627 16.1783 29.162C16.3493 29.1613 16.9768 28.4233 17.5721 27.5217C18.1675 26.6202 19.0695 25.3756 19.5769 24.7554C20.084 24.1355 20.4991 23.5309 20.4991 23.4119C20.4991 23.2928 20.735 23.0347 21.0234 22.8381C21.3119 22.6416 21.8859 22.1976 22.2992 21.8516C22.7125 21.5053 23.3132 21.0132 23.6342 20.7581C24.9664 19.6983 27.2627 17.2715 28.3844 15.7374C29.5015 14.2097 29.6473 14.0972 30.509 14.0972C31.0178 14.0972 31.4341 13.9878 31.4341 13.8542C31.4341 13.7205 31.5765 13.6112 31.7507 13.6112C32.1349 13.6112 33.5314 10.7008 33.4211 10.13C33.2767 9.38299 32.6665 9.71128 32.1691 10.8033C31.8984 11.3975 31.6771 11.9819 31.6771 12.1022C31.6771 12.4115 30.847 13.1252 30.4873 13.1252C30.2927 13.1252 30.2395 12.932 30.3367 12.5784C30.5316 11.8706 31.5084 9.63789 31.6921 9.48019C31.7701 9.41336 31.9021 9.17376 31.9854 8.94753C32.2182 8.31573 33.2843 7.71674 33.8538 7.89753C34.6672 8.15559 35.3959 10.0646 35.2389 11.526C35.0572 13.219 34.9527 13.6248 34.3697 14.9044C34.0917 15.5149 33.8641 16.1131 33.8641 16.2336C33.8641 16.3542 33.6454 16.7051 33.3781 17.0132C33.1108 17.3213 32.8921 17.7074 32.8921 17.8712C32.8921 18.0348 32.7292 18.3038 32.5302 18.469C32.3312 18.6342 32.2289 18.867 32.3025 18.9864C32.3764 19.1059 32.2736 19.2663 32.0739 19.3428C31.7828 19.4546 31.359 20.2247 31.0822 21.1442C31.062 21.211 30.9733 21.4844 30.8849 21.7517C30.5318 22.8189 30.4859 23.7321 30.7444 24.544C31.5077 26.9419 31.5854 27.0331 32.2756 26.3432C32.5207 26.0977 32.6063 25.7665 32.5062 25.4504C32.1742 24.405 32.2158 21.6122 32.5684 21.2596C32.7562 21.0718 33.0823 20.5044 33.2932 19.9984C33.5042 19.4925 33.882 18.7895 34.1331 18.4362C34.6178 17.7539 36.2627 14.0637 36.4462 13.2467C36.7924 11.7056 36.2605 8.33031 35.6333 8.08974C35.4623 8.02389 35.3221 7.84407 35.3221 7.69025C35.3221 6.96635 33.1931 6.56662 32.2442 7.11215ZM37.1446 26.1762C36.8773 26.2192 35.8477 26.4965 34.8567 26.7922C33.3518 27.2413 32.8422 27.539 31.7662 28.598C29.9644 30.3711 29.7163 31.8411 31.0943 32.5786C32.6607 33.4167 36.0511 32.3392 36.0511 31.0029C36.0511 30.793 36.1371 30.6212 36.2423 30.6212C36.3475 30.6212 36.451 30.3908 36.4722 30.1094C36.5072 29.6458 36.4719 29.6322 36.0987 29.9636C35.6559 30.3571 33.8641 31.1597 33.8641 30.9648C33.8641 30.9002 33.6412 30.9663 33.3688 31.1121C32.8731 31.3774 31.9201 31.2338 31.9201 30.8936C31.9201 30.7942 32.1322 30.4851 32.3915 30.2069C32.6508 29.9286 32.8085 29.6465 32.7419 29.5802C32.6755 29.5136 32.9555 29.3112 33.3642 29.1304C33.7727 28.9496 34.1071 28.7365 34.1071 28.6568C34.1071 28.5771 34.5717 28.3744 35.1398 28.2065C35.7079 28.0383 36.3366 27.825 36.5371 27.7322C37.0551 27.4923 41.7416 27.5881 42.1501 27.8469C42.3375 27.9652 42.6546 28.0731 42.8551 28.0862C44.0577 28.1657 47.1489 30.0258 47.3394 30.7845C47.4174 31.0955 47.5887 31.3502 47.7197 31.3502C48.08 31.3502 48.0025 32.5958 47.5933 33.3802C46.9683 34.5787 47.7357 34.9653 48.543 33.8587C49.0861 33.1139 49.1079 31.426 48.5874 30.4219C48.047 29.379 46.6906 28.3105 44.7991 27.4374C43.7466 26.9517 43.5129 26.8744 42.3083 26.6158C42.0075 26.5512 41.4632 26.4338 41.0984 26.3546C40.2934 26.1801 37.8152 26.0683 37.1446 26.1762ZM1.73726 29.7099C-0.0551082 32.5112 -0.292762 42.5817 1.2865 48.7937C1.43205 49.3662 1.65561 50.0223 1.78294 50.2517C1.91052 50.4811 2.3399 51.3882 2.73721 52.2674C3.22855 53.3546 3.94006 54.3451 4.96066 55.3625C5.78613 56.1855 6.54599 56.8069 6.64878 56.7432C6.75181 56.6796 6.95593 56.7721 7.1027 56.949C7.4446 57.3609 8.09997 57.3101 8.80346 56.8176C9.19761 56.5413 9.38131 56.1362 9.43915 55.4133C9.4841 54.8546 9.55797 54.363 9.60317 54.3212C9.88359 54.0622 12.9957 52.0052 13.1072 52.0052C13.1823 52.0052 13.4078 51.8412 13.6083 51.6407C13.8306 51.4184 14.4258 51.2762 15.1339 51.2762C16.05 51.2762 16.5209 51.4385 17.3644 52.0448C17.9524 52.4674 18.47 52.9048 18.5145 53.0168C18.5592 53.1286 18.7106 53.2202 18.8513 53.2202C18.9917 53.2202 19.3698 53.5038 19.6911 53.8505C20.0123 54.1973 20.4077 54.5006 20.5695 54.5244C20.7311 54.5484 21.4016 54.8687 22.0591 55.2366C23.4748 56.0283 26.568 57.1405 26.8571 56.9619C26.9687 56.8929 27.0601 56.9357 27.0601 57.0569C27.0601 57.1782 27.3606 57.2902 27.7283 57.3063C28.096 57.322 28.6699 57.4105 29.0041 57.5023C29.8329 57.7305 33.7892 57.7689 34.8361 57.559C35.3038 57.4652 36.1215 57.322 36.653 57.2409C37.1844 57.1597 38.196 56.8292 38.9007 56.5068C39.6054 56.1841 40.1821 55.9729 40.1821 56.0378C40.1821 56.2324 40.9281 55.5975 42.1686 54.3468C43.2319 53.2751 43.3411 53.0601 43.3401 52.0383C43.3384 49.8989 41.443 47.6302 38.5348 46.2864C36.0625 45.1443 33.562 44.7874 32.7504 45.461C32.5611 45.6182 32.4061 45.6843 32.4061 45.608C32.4061 45.5319 32.0807 45.583 31.6834 45.7215C30.6897 46.0677 29.4881 47.4898 29.4978 48.308C29.5061 49.0253 30.5661 50.4187 30.9318 50.1929C31.0559 50.1161 31.2219 50.1577 31.3009 50.2852C31.4214 50.4801 31.8902 50.4935 32.9528 50.3319C33.0529 50.3166 33.1351 50.1402 33.1351 49.9397C33.1351 49.7392 33.0529 49.5983 32.9528 49.6265C32.8527 49.6547 32.4284 49.6056 32.0102 49.5169C30.9242 49.2872 30.6939 48.2871 31.5451 47.498C31.8851 47.1831 32.1631 46.9882 32.1631 47.065C32.1631 47.1418 32.2999 47.0971 32.4668 46.9656C33.422 46.2133 36.3018 46.5156 38.5403 47.6028C39.5386 48.0876 42.4551 50.5472 42.0315 50.5472C41.9171 50.5472 41.9258 50.684 42.051 50.851C42.3557 51.2575 42.4646 52.9772 42.1858 52.9772C42.0643 52.9772 41.8167 53.2545 41.6352 53.5937C41.1404 54.5181 38.3311 55.7097 35.5942 56.1564C33.1511 56.5551 31.0419 56.456 28.1536 55.8065C25.1442 55.1299 23.2702 54.3907 21.7748 53.2904C21.3406 52.9709 20.9851 52.751 20.9851 52.802C20.9851 52.8528 20.3275 52.257 19.5239 51.4779C18.72 50.6986 17.8518 50.0612 17.5942 50.0612C17.3364 50.0612 17.0555 49.9475 16.9695 49.8082C16.8835 49.6692 16.6128 49.6189 16.3681 49.6967C16.1234 49.7745 15.867 49.7475 15.7987 49.6369C15.5166 49.1803 12.9036 49.702 12.3367 50.3283C12.1068 50.5824 11.7717 50.7902 11.5919 50.7902C11.4121 50.7902 11.265 50.9542 11.265 51.1547C11.265 51.3552 11.1832 51.5063 11.0828 51.4905C10.5985 51.414 10.2794 51.5437 10.4145 51.7622C10.4972 51.8959 10.3531 52.0052 10.094 52.0052C9.83524 52.0052 9.48143 52.1765 9.30768 52.3857C8.91864 52.8545 7.62151 53.5458 7.6164 53.2873C7.61422 53.1835 7.53233 53.2102 7.43415 53.3466C7.18338 53.695 5.91905 54.2245 5.91905 53.9813C5.91905 53.871 5.72781 53.5543 5.4938 53.2778C4.36215 51.9401 4.21805 51.7384 4.21805 51.4932C4.21805 51.3484 4.01927 50.9394 3.77603 50.5846C3.39136 50.0233 2.80087 48.4188 2.61522 47.43C2.58169 47.2524 2.47622 46.9243 2.38048 46.701C2.19143 46.2592 2.17102 46.1533 1.9268 44.3507C1.8364 43.6824 1.69911 42.6983 1.62184 42.1637C1.47847 41.1725 1.486 36.9708 1.63447 34.9952C1.894 31.5448 2.46942 29.8344 3.17388 30.419C3.64918 30.8137 4.03677 30.2188 3.70653 29.6016C3.36512 28.9634 2.17272 29.0291 1.73726 29.7099ZM34.8361 33.1797C33.405 33.4626 32.7436 33.6774 32.1631 34.0477C31.9626 34.1756 31.6073 34.3444 31.3733 34.4232C31.1393 34.5017 30.9481 34.6625 30.9481 34.7806C30.9481 34.8985 30.7947 34.9952 30.6074 34.9952C30.2164 34.9952 29.6186 36.3424 29.6944 37.0517C29.7911 37.9537 30.6866 38.603 32.0727 38.776C32.9718 38.8885 33.4954 38.8453 33.7445 38.6387C34.196 38.2638 34.2205 37.8157 33.7802 37.9846C33.3428 38.1525 31.5429 37.3307 31.3718 36.8848C31.2034 36.4459 31.3573 36.2272 32.2943 35.5726C33.059 35.038 33.5319 34.8992 36.347 34.3831C38.049 34.0711 42.2568 34.3019 43.1007 34.7537C43.3313 34.8771 43.5719 34.9264 43.6351 34.863C43.7505 34.7476 45.9011 35.7893 46.9253 36.4568C47.2261 36.6527 47.4721 36.9392 47.4721 37.0933C47.4721 37.2471 47.6378 37.4369 47.8402 37.5144C48.0426 37.5921 48.3148 37.9355 48.4448 38.2774C48.7228 39.0088 48.4773 39.5449 47.2575 40.8707C46.7316 41.4425 46.4891 41.9064 46.5854 42.1571C46.6979 42.4504 46.8458 42.4903 47.1724 42.3153C47.9095 41.9209 48.9483 40.766 49.392 39.8477C49.8586 38.8817 49.68 37.8886 48.8693 36.9436C48.6353 36.6707 48.4441 36.3395 48.4441 36.2075C48.4441 36.0753 48.361 35.9672 48.2594 35.9672C48.1578 35.9672 47.8023 35.7208 47.4696 35.4197C46.6928 34.717 44.2754 33.5474 43.2691 33.3877C42.841 33.3197 42.2172 33.2026 41.8831 33.1273C40.7725 32.8775 36.1922 32.9115 34.8361 33.1797ZM17.3131 35.1167C17.2263 35.507 17.2934 36.1519 17.4647 36.5747C17.6637 37.0658 19.7701 39.3029 19.7701 39.0232C19.7701 38.9401 20.0422 39.0504 20.3749 39.2684C21.5449 40.035 23.8401 39.662 24.4009 38.6142C24.6869 38.0798 24.6852 38.0794 22.9502 38.2405C21.0538 38.4169 20.3987 38.2108 19.2841 37.0879C18.444 36.2418 18.192 35.9135 18.0037 35.4204C17.8559 35.0336 17.3782 34.8234 17.3131 35.1167ZM34.5931 39.5213C33.3501 39.7198 32.1631 40.1249 32.1631 40.3509C32.1631 40.4792 32.0265 40.592 31.8593 40.6017C31.4272 40.6267 30.2813 42.074 30.09 42.8363C29.7732 44.099 31.8301 45.2185 33.4376 44.6581C34.221 44.385 34.3248 43.9862 33.6125 43.9862C33.2075 43.9862 32.6998 43.751 31.7184 43.1087C31.487 42.9576 32.5582 41.7589 33.2201 41.4284C34.3671 40.8554 38.1559 40.7225 39.5777 41.2053C40.2 41.4167 40.9188 41.6053 41.1747 41.6245C41.4306 41.6439 41.6401 41.7521 41.6401 41.8653C41.6401 41.9783 41.7402 42.0092 41.8624 41.9336C41.9846 41.858 42.1231 41.9122 42.1705 42.0539C42.2177 42.1958 42.4352 42.3379 42.6536 42.37C43.6052 42.5097 45.5147 44.653 45.704 45.7939C45.747 46.0532 45.8252 46.3086 45.8782 46.3613C45.9312 46.4143 45.8649 46.7717 45.731 47.1554C45.5718 47.612 45.1606 48.0042 44.5422 48.289C43.56 48.7417 43.404 48.9492 43.8429 49.2204C44.4552 49.5988 45.7713 49.063 46.3611 48.195C47.0427 47.1921 47.0687 45.5638 46.423 44.3152C45.4683 42.4689 42.0762 40.2097 39.8176 39.916C39.283 39.8465 38.7362 39.7099 38.6026 39.6124C38.3425 39.4229 35.6008 39.3607 34.5931 39.5213ZM31.0829 51.337C31.2999 52.0448 31.6634 52.4912 32.0226 52.4912C32.1801 52.4912 32.4389 52.6212 32.598 52.7804C33.1338 53.3162 36.0897 53.4494 36.6744 52.9641C37.2571 52.4805 36.6804 52.1303 35.2487 52.0988C33.1397 52.0523 33.0311 52.0261 32.3533 51.3977C31.5045 50.6104 30.8506 50.5793 31.0829 51.337Z" fill="black"/>
</svg>
