<svg width="105" height="70" viewBox="0 0 105 70" fill="none" xmlns="http://www.w3.org/2000/svg">
<path d="M56.9546 12.7266H22.2879C18.1853 12.7266 14.8594 15.5757 14.8594 19.0902V44.5447C14.8594 48.0593 18.1853 50.9084 22.2879 50.9084H56.9546C61.0573 50.9084 64.3832 48.0593 64.3832 44.5447V19.0902C64.3832 15.5757 61.0573 12.7266 56.9546 12.7266Z" fill="#F74846"/>
<path fill-rule="evenodd" clip-rule="evenodd" d="M7.42932 59.3906H17.3341C17.9908 59.3906 18.6206 59.6141 19.085 60.0119C19.5494 60.4097 19.8103 60.9493 19.8103 61.5118V63.633C19.8103 65.3208 19.0276 66.9394 17.6345 68.1328C16.2414 69.3262 14.3519 69.9967 12.3817 69.9967C10.4115 69.9967 8.52203 69.3262 7.1289 68.1328C5.73578 66.9394 4.95312 65.3208 4.95312 63.633V61.5118C4.95312 60.9493 5.21401 60.4097 5.67838 60.0119C6.14276 59.6141 6.77259 59.3906 7.42932 59.3906ZM86.6684 59.3906H96.5731C97.2299 59.3906 97.8597 59.6141 98.3241 60.0119C98.7885 60.4097 99.0493 60.9493 99.0493 61.5118V63.633C99.0493 65.3208 98.2667 66.9394 96.8736 68.1328C95.4804 69.3262 93.5909 69.9967 91.6208 69.9967C89.6506 69.9967 87.7611 69.3262 86.368 68.1328C84.9748 66.9394 84.1922 65.3208 84.1922 63.633V61.5118C84.1922 60.9493 84.4531 60.4097 84.9174 60.0119C85.3818 59.6141 86.0117 59.3906 86.6684 59.3906Z" fill="#F74846"/>
<path d="M90.6164 16.9688H87.6641C87.1118 16.9688 86.6641 17.4165 86.6641 17.9688V20.2112C86.6641 20.7635 87.1118 21.2112 87.6641 21.2112H90.6164C91.1687 21.2112 91.6164 20.7635 91.6164 20.2112V17.9688C91.6164 17.4165 91.1687 16.9688 90.6164 16.9688Z" fill="#F74846"/>
<path d="M73.5924 0H7.42857C5.45839 0 3.56891 0.670452 2.17578 1.86387C0.782651 3.05728 0 4.6759 0 6.36364V57.2727C0 58.9605 0.782651 60.5791 2.17578 61.7725C3.56891 62.9659 5.45839 63.6364 7.42857 63.6364H73.5924V0ZM61.9048 55.1515H17.3333C15.3632 55.1515 13.4737 54.4811 12.0805 53.2876C10.6874 52.0942 9.90476 50.4756 9.90476 48.7879V14.8485C9.90476 13.1607 10.6874 11.5421 12.0805 10.3487C13.4737 9.1553 15.3632 8.48485 17.3333 8.48485H61.9048C63.8749 8.48485 65.7644 9.1553 67.1576 10.3487C68.5507 11.5421 69.3333 13.1607 69.3333 14.8485V48.7879C69.3333 50.4756 68.5507 52.0942 67.1576 53.2876C65.7644 54.4811 63.8749 55.1515 61.9048 55.1515V55.1515Z" fill="#3E84F8"/>
<path d="M96.5735 0H78.5469V63.6364H96.5735C98.5437 63.6364 100.433 62.9659 101.826 61.7725C103.219 60.5791 104.002 58.9605 104.002 57.2727V6.36364C104.002 4.6759 103.219 3.05728 101.826 1.86387C100.433 0.670452 98.5437 0 96.5735 0ZM94.0974 53.0303H84.1926C83.5359 53.0303 82.906 52.8068 82.4417 52.409C81.9773 52.0112 81.7164 51.4717 81.7164 50.9091C81.7164 50.3465 81.9773 49.807 82.4417 49.4092C82.906 49.0114 83.5359 48.7879 84.1926 48.7879H94.0974C94.7541 48.7879 95.3839 49.0114 95.8483 49.4092C96.3127 49.807 96.5735 50.3465 96.5735 50.9091C96.5735 51.4717 96.3127 52.0112 95.8483 52.409C95.3839 52.8068 94.7541 53.0303 94.0974 53.0303ZM94.0974 44.5455H84.1926C83.5359 44.5455 82.906 44.322 82.4417 43.9242C81.9773 43.5264 81.7164 42.9868 81.7164 42.4242C81.7164 41.8617 81.9773 41.3221 82.4417 40.9243C82.906 40.5265 83.5359 40.303 84.1926 40.303H94.0974C94.7541 40.303 95.3839 40.5265 95.8483 40.9243C96.3127 41.3221 96.5735 41.8617 96.5735 42.4242C96.5735 42.9868 96.3127 43.5264 95.8483 43.9242C95.3839 44.322 94.7541 44.5455 94.0974 44.5455ZM94.0974 36.0606H84.1926C83.5359 36.0606 82.906 35.8371 82.4417 35.4393C81.9773 35.0415 81.7164 34.502 81.7164 33.9394C81.7164 33.3768 81.9773 32.8373 82.4417 32.4395C82.906 32.0417 83.5359 31.8182 84.1926 31.8182H94.0974C94.7541 31.8182 95.3839 32.0417 95.8483 32.4395C96.3127 32.8373 96.5735 33.3768 96.5735 33.9394C96.5735 34.502 96.3127 35.0415 95.8483 35.4393C95.3839 35.8371 94.7541 36.0606 94.0974 36.0606ZM96.5735 23.3333C96.5735 23.8959 96.3127 24.4355 95.8483 24.8333C95.3839 25.2311 94.7541 25.4545 94.0974 25.4545H84.1926C83.5359 25.4545 82.906 25.2311 82.4417 24.8333C81.9773 24.4355 81.7164 23.8959 81.7164 23.3333V14.8485C81.7164 14.2859 81.9773 13.7464 82.4417 13.3486C82.906 12.9508 83.5359 12.7273 84.1926 12.7273H94.0974C94.7541 12.7273 95.3839 12.9508 95.8483 13.3486C96.3127 13.7464 96.5735 14.2859 96.5735 14.8485V23.3333Z" fill="#3E84F8"/>
</svg>
